<?xml version="1.0" encoding="UTF-8"?><svg id="svg2" xmlns="http://www.w3.org/2000/svg" xmlns:xlink="http://www.w3.org/1999/xlink" viewBox="0 0 38.03 43.99"><defs><clipPath id="clippath"><path d="M2.51,5.6c-3.5,19.2,2.1,31.6,16.5,36.8,14.5-5.2,20-17.6,16.5-36.8-7.9-3-16.5-3.1-16.5-3.1,0,0-8.7,0-16.5,3.1Z" style="fill:none; stroke:#F8F9FA; stroke-miterlimit:10; stroke-width:3px;"/></clipPath></defs><g id="g10"><g id="g12"><g id="g14"><g id="g24"><path id="path26" d="M19.01,42.4C4.51,37.2-.99,24.8,2.51,5.6c7.9-3,16.5-3.1,16.5-3.1,0,0,8.7,0,16.5,3.1,3.5,19.2-2.1,31.6-16.5,36.8Z" style="fill:none; stroke:#F8F9FA; stroke-miterlimit:10;"/></g></g></g><g style="clip-path:url(#clippath);"><g id="g30"><path id="path36" d="M37.71,42.5h-18.8V2.5h18.8v40Z" style="fill:none; stroke:#F8F9FA; stroke-miterlimit:10; stroke-width:3px;"/></g></g><path d="M2.51,5.6c-3.5,19.2,2.1,31.6,16.5,36.8,14.5-5.2,20-17.6,16.5-36.8-7.9-3-16.5-3.1-16.5-3.1,0,0-8.7,0-16.5,3.1Z" style="fill:none; stroke:#F8F9FA; stroke-miterlimit:10; stroke-width:3px;"/></g></svg>