<svg width="1124" height="1065" viewBox="0 0 1124 1065" fill="none" xmlns="http://www.w3.org/2000/svg">
<path d="M1124 537.001C1124 294.216 967.631 78.816 740.612 2.58813V66.3498C933.019 139.921 1064.14 327.119 1064.14 537.205C1064.14 747.292 933.426 934.285 740.612 1007.86V1071.82C968.039 995.39 1124 781.012 1124 537.205" fill="#E40521"/>
<path d="M1124 537.001C1124 294.216 967.631 78.816 740.612 2.58813V66.3498C933.019 139.921 1064.14 327.119 1064.14 537.205C1064.14 747.292 933.426 934.285 740.612 1007.86V1071.82C968.039 995.39 1124 781.012 1124 537.205V537.001Z" fill="#E40521"/>
<path d="M389.8 64.1024V0.340698C158.912 74.7293 0.0996094 290.742 0.0996094 537.001C0.0996094 783.26 159.522 999.069 390.003 1073.66V1010.1C194.135 938.169 60.1631 749.132 60.1631 537.001C60.1631 324.871 193.524 135.834 389.8 64.1024Z" fill="#E40521"/>
<path d="M389.8 64.1024V0.340698C158.912 74.7293 0.0996094 290.742 0.0996094 537.001C0.0996094 783.26 159.522 999.069 390.003 1073.66V1010.1C194.135 938.169 60.1631 749.132 60.1631 537.001C60.1631 324.871 193.524 135.834 389.8 64.1024Z" fill="#E40521"/>
<path d="M866.238 692.114V372.284L733.691 371.262V254.57C733.691 189.787 674.239 120.711 564.292 120.711C462.286 120.711 393.874 188.765 393.874 252.526V419.083L677.293 567.043V677.4C677.293 681.078 676.071 766.503 564.495 766.503C460.046 766.503 454.752 692.523 454.752 677.604V551.511H394.892V677.604C394.892 729.104 430.32 826.586 564.495 826.586C691.138 826.586 737.153 737.279 737.153 677.4V530.462L453.734 382.502V252.322C453.734 222.485 495.881 180.59 564.292 180.59C644.105 180.59 673.831 225.755 673.831 254.366V430.732L806.378 431.754V691.91C806.378 693.953 792.126 892.8 564.292 892.8C336.458 892.8 332.386 693.136 332.386 691.092V370.853H272.526V691.092C272.526 796.34 350.303 952.883 564.292 952.883C814.93 952.883 866.238 747.088 866.238 691.91" fill="#E40521"/>
<path d="M866.238 692.114V372.284L733.691 371.262V254.57C733.691 189.787 674.239 120.711 564.292 120.711C462.286 120.711 393.874 188.765 393.874 252.526V419.083L677.293 567.043V677.4C677.293 681.078 676.071 766.503 564.495 766.503C460.046 766.503 454.752 692.523 454.752 677.604V551.511H394.892V677.604C394.892 729.104 430.32 826.586 564.495 826.586C691.138 826.586 737.153 737.279 737.153 677.4V530.462L453.734 382.502V252.322C453.734 222.485 495.881 180.59 564.292 180.59C644.105 180.59 673.831 225.755 673.831 254.366V430.732L806.378 431.754V691.91C806.378 693.953 792.126 892.8 564.292 892.8C336.458 892.8 332.386 693.136 332.386 691.092V370.853H272.526V691.092C272.526 796.34 350.303 952.883 564.292 952.883C814.93 952.883 866.238 747.088 866.238 691.91V692.114Z" fill="#E40521"/>
</svg>
