<?xml version="1.0" encoding="UTF-8"?>
<svg id="svg2" xmlns="http://www.w3.org/2000/svg" version="1.1" xmlns:xlink="http://www.w3.org/1999/xlink" viewBox="0 0 45 45">
  <!-- Generator: Adobe Illustrator 29.3.1, SVG Export Plug-In . SVG Version: 2.1.0 Build 151)  -->
  <defs>
    <style>
      .st0 {
        fill: #30a7e3;
      }

      .st1 {
        fill: #ccd6dd;
      }

      .st2 {
        fill: #292a83;
      }

      .st3 {
        fill: none;
      }

      .st4 {
        clip-path: url(#clippath-1);
      }

      .st5 {
        clip-path: url(#clippath);
      }
    </style>
    <clipPath id="clippath">
      <rect class="st3" width="45" height="45"/>
    </clipPath>
    <clipPath id="clippath-1">
      <path class="st3" d="M5.9,5.6c-3.5,19.2,2.1,31.6,16.6,36.8,14.5-5.2,20-17.6,16.5-36.8-7.9-3-16.5-3.1-16.5-3.1s-8.7,0-16.6,3.1Z"/>
    </clipPath>
  </defs>
  <g id="g10">
    <g id="g12">
      <g class="st5">
        <g id="g14">
          <g id="g20">
            <path id="path22" class="st1" d="M41.2,3.8C32.5,0,22.5,0,22.5,0c0,0-10,0-18.8,3.8-3.8,18.8,0,35,18.8,41.2,18.8-6.2,22.5-22.5,18.8-41.2"/>
          </g>
          <g id="g24">
            <path id="path26" class="st0" d="M22.5,42.3C8,37.2,2.5,24.8,5.9,5.6c7.9-3,16.5-3.1,16.6-3.1s8.7,0,16.5,3.1c3.5,19.2-2.1,31.6-16.5,36.8"/>
          </g>
        </g>
      </g>
    </g>
    <g id="g28">
      <g class="st4">
        <g id="g30">
          <path id="path36" class="st2" d="M41.2,42.5h-18.8V2.5h18.8v40Z"/>
        </g>
      </g>
    </g>
  </g>
</svg>