<?xml version="1.0" encoding="UTF-8"?><svg id="svg2" xmlns="http://www.w3.org/2000/svg" xmlns:xlink="http://www.w3.org/1999/xlink" viewBox="0 0 45 45"><defs><clipPath id="clippath"><rect width="45" height="45" style="fill:none;"/></clipPath><clipPath id="clippath-1"><path d="M5.95,5.56c-3.5,19.23,2.07,31.61,16.55,36.8,14.48-5.19,20.05-17.57,16.55-36.8-7.85-3.01-16.46-3.06-16.55-3.06s-8.67.04-16.55,3.06Z" style="fill:none;"/></clipPath></defs><g id="g10"><g id="g12"><g style="clip-path:url(#clippath);"><g id="g14"><g id="g20"><path id="path22" d="M41.25,3.75C32.5,0,22.5,0,22.5,0c0,0-10,0-18.75,3.75-3.75,18.75,0,35,18.75,41.25,18.75-6.25,22.5-22.5,18.75-41.25" style="fill:#ccd6dd;"/></g><g id="g24"><path id="path26" d="M22.5,42.35C8.01,37.16,2.45,24.79,5.95,5.56c7.88-3.02,16.46-3.06,16.55-3.06s8.7.05,16.55,3.06c3.5,19.23-2.06,31.61-16.55,36.8" style="fill:#55acee;"/></g></g></g></g><g id="g28"><g style="clip-path:url(#clippath-1);"><g id="g30"><path id="path36" d="M41.25,42.5h-18.75V2.5h18.75v40Z" style="fill:#269;"/></g></g></g></g></svg>