<svg width="221" height="57" viewBox="0 0 221 57" fill="none" xmlns="http://www.w3.org/2000/svg">
<path d="M178.655 24.1412L180.984 18.7928L183.281 24.1412H178.655ZM169.477 32.469H174.942L176.641 28.6262H185.274L186.973 32.469H192.459L180.952 6.66418L169.467 32.469H169.477ZM141.66 6.57996V32.469H146.726V21.9934L154.006 32.069L161.275 21.9934V32.469H166.341V6.57996L154.006 23.5726L141.66 6.57996ZM131.706 32.469H136.772V7.18007H131.706V32.469ZM118.521 19.2139H116.832V19.1929H114.881V12.2126H117.724C118.951 12.2126 120.189 12.5706 120.849 13.2128C121.521 13.9182 121.846 14.7289 121.846 15.6448C121.846 17.5715 120.367 19.2034 118.521 19.2034M109.836 32.469H114.902V21.288L122.14 32.469H128.328L122.465 23.3094C123.891 22.7409 124.594 22.2145 125.486 20.9721C126.545 19.4666 127.08 17.8558 127.08 16.1502V15.4869C127.08 12.6864 126.178 11.2861 124.636 9.74897C123.115 8.24343 120.849 7.18007 118.038 7.18007H109.815V32.469H109.836ZM90.8504 7.1169V32.5006H106.039V27.447H95.9167V22.3513H103.511V17.2872H95.9167V12.1915H106.039V7.12743H90.8504V7.1169ZM78.9452 27.5102C77.5186 27.5102 75.9977 26.3626 75.9977 24.9518L70.9734 26.0257C71.5503 29.7948 75.0747 32.6585 78.9661 32.6585C83.2038 32.6585 87.0218 29.2158 87.0218 24.9518C87.0218 21.4354 84.2212 19.0033 81.043 18.0769C79.2913 17.5504 76.4173 16.9503 76.4173 14.6762C76.4173 13.276 77.5816 12.1073 78.9871 12.1073C80.3927 12.1073 81.536 13.276 81.536 14.6657L86.5603 13.6023C86.0358 9.85426 82.8262 6.9695 78.9557 6.9695C74.7075 6.9695 71.2566 10.4017 71.2566 14.6657C71.2566 18.1084 73.9733 20.6352 77.0361 21.6881C78.7773 22.2987 81.8612 22.6145 81.8612 24.9308C81.8612 26.331 80.3192 27.4997 78.9137 27.4997L78.9347 27.5207L78.9452 27.5102Z" fill="black"/>
<path d="M220.224 50.2303C220.402 50.1882 220.56 50.125 220.717 50.0408V49.2722C220.56 49.3459 220.413 49.3986 220.287 49.4302C220.161 49.4617 220.004 49.4723 219.857 49.4723C219.553 49.4723 219.311 49.3986 219.122 49.2512C218.934 49.1038 218.839 48.8406 218.839 48.4721V44.9662H220.738V44.1765H218.839V42.3657H217.948V44.1765H217.109V44.9662H217.948V48.5984C217.948 48.9037 217.99 49.1564 218.074 49.3775C218.157 49.5986 218.273 49.7671 218.43 49.9039C218.577 50.0408 218.766 50.1356 218.965 50.1987C219.175 50.2619 219.395 50.2935 219.636 50.2935C219.857 50.2935 220.046 50.2724 220.224 50.2303ZM210.563 50.1882H211.455V46.7454C211.455 46.4717 211.497 46.2085 211.591 45.9769C211.675 45.7453 211.801 45.5452 211.969 45.3768C212.126 45.2083 212.326 45.082 212.546 44.9978C212.766 44.9135 213.007 44.8609 213.259 44.8609C213.794 44.8609 214.203 45.0188 214.486 45.3452C214.769 45.6716 214.916 46.1137 214.916 46.6717V50.1777H215.808V46.4401C215.808 46.0822 215.755 45.7558 215.651 45.461C215.546 45.1662 215.399 44.9135 215.2 44.703C215 44.4924 214.759 44.3239 214.486 44.2081C214.203 44.0923 213.878 44.0291 213.521 44.0291C213.007 44.0291 212.577 44.145 212.252 44.3766C211.927 44.6082 211.665 44.8819 211.465 45.2083V44.166H210.574V50.1882H210.563ZM208.906 47.5456C208.906 47.4719 208.917 47.4193 208.917 47.3666V47.2297C208.917 46.7876 208.854 46.377 208.728 45.9874C208.602 45.5979 208.424 45.261 208.182 44.9767C207.941 44.6924 207.647 44.4608 207.301 44.2924C206.955 44.1239 206.556 44.0397 206.116 44.0397C205.696 44.0397 205.308 44.1239 204.962 44.2818C204.616 44.4398 204.312 44.6714 204.05 44.9556C203.798 45.2399 203.599 45.5768 203.452 45.9558C203.305 46.3348 203.242 46.7454 203.242 47.1876C203.242 47.6509 203.326 48.0825 203.483 48.4721C203.64 48.8616 203.861 49.188 204.123 49.4723C204.396 49.746 204.71 49.9671 205.077 50.1145C205.445 50.2619 205.833 50.3461 206.242 50.3461C206.808 50.3461 207.291 50.2408 207.679 50.0408C208.067 49.8302 208.413 49.567 208.707 49.2196L208.151 48.7142C207.899 48.9669 207.626 49.1775 207.333 49.3354C207.039 49.4933 206.682 49.567 206.263 49.567C206.001 49.567 205.749 49.5249 205.508 49.4302C205.266 49.3459 205.046 49.2091 204.857 49.0406C204.668 48.8722 204.511 48.6616 204.385 48.4089C204.259 48.1562 204.186 47.872 204.154 47.5561H208.906V47.5456ZM204.154 46.8191C204.186 46.5349 204.259 46.2717 204.364 46.019C204.48 45.7663 204.616 45.5558 204.784 45.3768C204.952 45.1978 205.151 45.0504 205.371 44.9556C205.591 44.8609 205.833 44.8082 206.084 44.8082C206.378 44.8082 206.64 44.8609 206.871 44.9662C207.102 45.0714 207.291 45.2188 207.448 45.4084C207.605 45.5979 207.731 45.8084 207.826 46.0506C207.92 46.2927 207.973 46.5559 208.004 46.8191H204.144H204.154ZM192.532 50.1882H193.424V46.7665C193.424 46.4928 193.466 46.2296 193.55 46.0085C193.634 45.7768 193.749 45.5768 193.907 45.4084C194.053 45.2399 194.232 45.103 194.431 45.0083C194.63 44.9135 194.851 44.8714 195.092 44.8714C195.574 44.8714 195.952 45.0293 196.225 45.3452C196.497 45.661 196.634 46.0927 196.634 46.6612V50.1882H197.515V46.7244C197.515 46.4296 197.557 46.1664 197.651 45.9348C197.735 45.7031 197.861 45.5031 198.008 45.3452C198.155 45.1873 198.333 45.0714 198.532 44.9872C198.732 44.903 198.941 44.8609 199.172 44.8609C199.655 44.8609 200.043 45.0188 200.315 45.3347C200.588 45.6505 200.724 46.0927 200.724 46.6717V50.1777H201.616V46.4507C201.616 45.7031 201.417 45.103 201.029 44.6714C200.63 44.2397 200.085 44.0291 199.392 44.0291C199.13 44.0291 198.889 44.0607 198.679 44.1239C198.469 44.1871 198.281 44.2713 198.102 44.3766C197.934 44.4819 197.777 44.6187 197.641 44.7556C197.504 44.903 197.389 45.0609 197.274 45.2188C197.116 44.8819 196.875 44.5977 196.55 44.3661C196.235 44.1344 195.837 44.0186 195.344 44.0186C195.092 44.0186 194.861 44.0502 194.672 44.1134C194.483 44.1765 194.305 44.2608 194.148 44.3661C193.99 44.4713 193.854 44.5977 193.739 44.7345C193.623 44.8714 193.508 45.0188 193.403 45.1662V44.1555H192.511V50.1777L192.532 50.1882ZM190.875 47.5456C190.875 47.4719 190.886 47.4193 190.886 47.3666V47.2297C190.886 46.7876 190.823 46.377 190.697 45.9874C190.571 45.5979 190.393 45.261 190.151 44.9767C189.91 44.6924 189.616 44.4608 189.27 44.2924C188.924 44.1239 188.526 44.0397 188.085 44.0397C187.665 44.0397 187.288 44.1239 186.931 44.2818C186.575 44.4398 186.281 44.6714 186.019 44.9556C185.767 45.2399 185.568 45.5768 185.421 45.9558C185.274 46.3348 185.211 46.7454 185.211 47.1876C185.211 47.6509 185.284 48.0825 185.452 48.4721C185.61 48.8616 185.83 49.188 186.092 49.4723C186.365 49.746 186.679 49.9671 187.047 50.1145C187.414 50.2619 187.802 50.3461 188.211 50.3461C188.777 50.3461 189.26 50.2408 189.648 50.0408C190.036 49.8302 190.382 49.567 190.676 49.2196L190.12 48.7142C189.868 48.9669 189.595 49.1775 189.302 49.3354C189.008 49.4933 188.651 49.567 188.232 49.567C187.97 49.567 187.718 49.5249 187.477 49.4302C187.235 49.3459 187.026 49.2091 186.826 49.0406C186.638 48.8722 186.48 48.6616 186.354 48.4089C186.228 48.1562 186.155 47.872 186.124 47.5561H190.875V47.5456ZM186.124 46.8191C186.155 46.5349 186.228 46.2717 186.333 46.019C186.449 45.7663 186.585 45.5558 186.753 45.3768C186.921 45.1978 187.12 45.0504 187.34 44.9556C187.561 44.8609 187.802 44.8082 188.064 44.8082C188.358 44.8082 188.62 44.8609 188.851 44.9662C189.081 45.0714 189.27 45.2188 189.428 45.4084C189.585 45.5979 189.711 45.8084 189.805 46.0506C189.9 46.2927 189.952 46.5559 189.984 46.8191H186.124ZM181.781 51.8727C182.169 51.7464 182.494 51.5358 182.767 51.2726C183.019 51.0199 183.208 50.7251 183.333 50.3672C183.459 50.0092 183.533 49.5986 183.533 49.1354V44.166H182.641V45.2504C182.515 45.082 182.379 44.9346 182.222 44.7872C182.064 44.6398 181.896 44.5134 181.708 44.4082C181.519 44.3029 181.309 44.2081 181.068 44.145C180.827 44.0818 180.575 44.0502 180.292 44.0502C179.935 44.0502 179.589 44.1134 179.243 44.2502C178.907 44.3766 178.603 44.5661 178.341 44.8188C178.078 45.0714 177.869 45.3557 177.711 45.7137C177.554 46.0611 177.47 46.4612 177.47 46.9034V46.9244C177.47 47.3561 177.543 47.7456 177.711 48.0931C177.869 48.4405 178.078 48.7353 178.341 48.9774C178.603 49.2196 178.907 49.4091 179.243 49.546C179.578 49.6723 179.924 49.746 180.292 49.746C180.837 49.746 181.309 49.6197 181.687 49.3775C182.064 49.1248 182.389 48.83 182.652 48.4826V49.188C182.652 49.8934 182.452 50.4304 182.064 50.7883C181.666 51.1463 181.141 51.3358 180.47 51.3358C180.04 51.3358 179.631 51.2726 179.253 51.1357C178.876 50.9989 178.508 50.8094 178.162 50.5672L177.753 51.2621C178.152 51.5464 178.582 51.7569 179.043 51.8938C179.494 52.0307 179.977 52.1043 180.48 52.1043C180.984 52.1043 181.393 52.0412 181.781 51.9043M179.673 48.7774C179.421 48.6827 179.201 48.5353 179.012 48.3563C178.823 48.1773 178.666 47.9667 178.561 47.714C178.445 47.4614 178.393 47.1876 178.393 46.8823V46.8613C178.393 46.5559 178.445 46.2717 178.55 46.019C178.655 45.7663 178.813 45.5557 179.001 45.3873C179.19 45.2083 179.41 45.082 179.662 44.9767C179.914 44.8819 180.187 44.8293 180.47 44.8293C180.753 44.8293 181.036 44.8819 181.299 44.9767C181.561 45.0714 181.792 45.2083 182.001 45.3873C182.201 45.5663 182.368 45.7768 182.494 46.0295C182.62 46.2822 182.683 46.5559 182.683 46.8718V46.8928C182.683 47.1982 182.62 47.4719 182.494 47.7246C182.368 47.9773 182.201 48.1878 182.001 48.3668C181.792 48.5458 181.561 48.6932 181.299 48.7879C181.036 48.8827 180.764 48.9353 180.47 48.9353C180.176 48.9353 179.924 48.8827 179.673 48.7879M174.176 50.0092C174.533 49.8092 174.806 49.567 175.016 49.2933V50.1882H175.897V46.5138C175.897 45.7558 175.687 45.1662 175.267 44.7451C174.827 44.3029 174.176 44.0818 173.327 44.0818C172.886 44.0818 172.498 44.1344 172.152 44.2187C171.816 44.3134 171.481 44.4397 171.145 44.5977L171.407 45.3347C171.69 45.2083 171.974 45.0925 172.257 45.0188C172.551 44.9451 172.865 44.903 173.222 44.903C173.788 44.903 174.218 45.0399 174.533 45.3136C174.837 45.5873 174.995 45.9874 174.995 46.5244V46.7139C174.722 46.6402 174.449 46.577 174.166 46.5244C173.883 46.4717 173.547 46.4507 173.159 46.4507C172.771 46.4507 172.435 46.4928 172.12 46.577C171.806 46.6612 171.533 46.7876 171.313 46.9455C171.082 47.1034 170.904 47.314 170.788 47.5561C170.662 47.7983 170.6 48.0825 170.6 48.4089V48.43C170.6 48.7458 170.662 49.009 170.788 49.2407C170.914 49.4723 171.082 49.6723 171.292 49.8302C171.502 49.9882 171.743 50.104 172.005 50.1882C172.278 50.2619 172.551 50.304 172.834 50.304C173.358 50.304 173.799 50.1987 174.145 49.9987M172.477 49.5039C172.299 49.4512 172.141 49.3775 171.995 49.2722C171.858 49.167 171.743 49.0511 171.669 48.8932C171.586 48.7458 171.544 48.5774 171.544 48.3879V48.3668C171.544 48.0088 171.69 47.714 171.995 47.493C172.299 47.2719 172.729 47.1666 173.285 47.1666C173.652 47.1666 173.977 47.1876 174.271 47.2508C174.554 47.3034 174.806 47.3666 175.036 47.4298V47.9878C175.036 48.2299 174.984 48.4405 174.879 48.6405C174.774 48.8406 174.638 49.009 174.449 49.1459C174.271 49.2933 174.061 49.3986 173.82 49.4723C173.578 49.546 173.327 49.5881 173.044 49.5881C172.844 49.5881 172.655 49.567 172.477 49.5039ZM163.886 50.1882H164.778V46.7454C164.778 46.4717 164.82 46.2085 164.914 45.9769C164.998 45.7453 165.124 45.5452 165.292 45.3768C165.449 45.2083 165.649 45.082 165.869 44.9978C166.089 44.9135 166.33 44.8609 166.582 44.8609C167.117 44.8609 167.526 45.0188 167.809 45.3452C168.093 45.6716 168.24 46.1137 168.24 46.6717V50.1777H169.131V46.4401C169.131 46.0822 169.079 45.7558 168.974 45.461C168.869 45.1662 168.722 44.9135 168.523 44.703C168.323 44.4924 168.082 44.3239 167.809 44.2081C167.526 44.0923 167.201 44.0291 166.844 44.0291C166.33 44.0291 165.9 44.145 165.586 44.3766C165.261 44.6082 164.998 44.8819 164.799 45.2083V44.166H163.907V50.1882H163.886ZM160.205 50.0092C160.561 49.8092 160.834 49.567 161.044 49.2933V50.1882H161.925V46.5138C161.925 45.7558 161.715 45.1662 161.296 44.7451C160.855 44.3029 160.205 44.0818 159.355 44.0818C158.915 44.0818 158.527 44.1344 158.18 44.2187C157.845 44.3134 157.499 44.4397 157.173 44.5977L157.446 45.3347C157.719 45.2083 158.013 45.0925 158.296 45.0188C158.589 44.9451 158.904 44.903 159.261 44.903C159.827 44.903 160.257 45.0399 160.572 45.3136C160.876 45.5873 161.033 45.9874 161.033 46.5244V46.7139C160.761 46.6402 160.488 46.577 160.205 46.5244C159.922 46.4717 159.586 46.4507 159.198 46.4507C158.81 46.4507 158.474 46.4928 158.159 46.577C157.845 46.6612 157.572 46.7876 157.352 46.9455C157.121 47.1034 156.943 47.314 156.827 47.5561C156.701 47.7983 156.638 48.0825 156.638 48.4089V48.43C156.638 48.7458 156.701 49.009 156.827 49.2407C156.953 49.4723 157.121 49.6723 157.331 49.8302C157.541 49.9882 157.782 50.104 158.055 50.1882C158.327 50.2619 158.6 50.304 158.873 50.304C159.397 50.304 159.838 50.1987 160.184 49.9987M158.495 49.5039C158.317 49.4512 158.159 49.3775 158.013 49.2722C157.876 49.167 157.761 49.0511 157.687 48.8932C157.614 48.7353 157.562 48.5774 157.562 48.3879V48.3668C157.562 48.0088 157.708 47.714 158.013 47.493C158.317 47.2719 158.747 47.1666 159.303 47.1666C159.67 47.1666 159.995 47.1876 160.289 47.2508C160.572 47.3034 160.824 47.3666 161.054 47.4298V47.9878C161.054 48.2299 161.002 48.4405 160.897 48.6405C160.792 48.8406 160.656 49.009 160.467 49.1459C160.289 49.2933 160.079 49.3986 159.838 49.4723C159.596 49.546 159.345 49.5881 159.061 49.5881C158.862 49.5881 158.673 49.567 158.485 49.5039M147.062 50.1882H147.953V43.5975L150.911 47.9457H150.953L153.911 43.5764V50.1777H154.824V42.0288H153.901L150.943 46.4717L147.985 42.0288H147.062V50.1777V50.1882ZM138.167 50.1882H139.059V48.6195L140.275 47.3877L142.415 50.1882H143.485L140.884 46.756L143.401 44.1765H142.289L139.048 47.5667V41.7024H138.157V50.1987L138.167 50.1882ZM135.199 50.1882C135.461 50.104 135.681 49.9882 135.87 49.8302C136.059 49.6723 136.206 49.4828 136.321 49.2617C136.436 49.0406 136.489 48.7879 136.489 48.5037V48.4826C136.489 48.2089 136.436 47.9773 136.321 47.7983C136.206 47.6088 136.059 47.4508 135.87 47.3245C135.681 47.1982 135.482 47.0824 135.251 46.9981C135.02 46.9139 134.79 46.8402 134.559 46.7665C134.359 46.7033 134.16 46.6402 133.982 46.577C133.793 46.5138 133.636 46.4507 133.489 46.3664C133.342 46.2927 133.237 46.198 133.143 46.0927C133.059 45.9874 133.017 45.8611 133.017 45.7242V45.7031C133.017 45.4505 133.122 45.2504 133.332 45.082C133.541 44.9135 133.825 44.8293 134.181 44.8293C134.475 44.8293 134.779 44.8819 135.083 44.9872C135.387 45.0925 135.681 45.2294 135.954 45.4084L136.363 44.7345C136.059 44.5345 135.713 44.3766 135.335 44.2502C134.957 44.1344 134.58 44.0713 134.213 44.0713C133.919 44.0713 133.646 44.1134 133.394 44.1976C133.143 44.2818 132.922 44.3976 132.744 44.545C132.566 44.6924 132.419 44.8819 132.325 45.0925C132.22 45.3031 132.178 45.5452 132.178 45.7979V45.819C132.178 46.1032 132.241 46.3348 132.356 46.5138C132.471 46.7033 132.629 46.8507 132.818 46.9771C133.006 47.1034 133.216 47.2087 133.457 47.2824C133.688 47.3666 133.929 47.4403 134.16 47.514C134.349 47.5667 134.538 47.6298 134.727 47.693C134.905 47.7562 135.073 47.8299 135.209 47.9036C135.345 47.9878 135.461 48.0825 135.545 48.1878C135.629 48.2931 135.671 48.43 135.671 48.5668V48.5879C135.671 48.8827 135.555 49.1143 135.324 49.2828C135.094 49.4512 134.79 49.5354 134.433 49.5354C134.076 49.5354 133.72 49.4723 133.373 49.3354C133.027 49.2091 132.681 49.009 132.356 48.7669L131.905 49.4091C132.241 49.6828 132.639 49.8934 133.08 50.0513C133.52 50.2093 133.961 50.2935 134.391 50.2935C134.695 50.2935 134.968 50.2514 135.23 50.1671M129.377 42.8605H130.395V41.8708H129.377V42.8605ZM129.44 50.1882H130.332V44.166H129.44V50.1882ZM121.133 50.1882H122.045V47.0192H124.363L126.723 50.1882H127.846L125.349 46.8613C125.664 46.8086 125.958 46.7139 126.23 46.5875C126.503 46.4612 126.734 46.2927 126.933 46.1032C127.132 45.9032 127.279 45.6716 127.395 45.4084C127.5 45.1346 127.552 44.8398 127.552 44.4924V44.4713C127.552 44.145 127.5 43.8502 127.395 43.5764C127.29 43.3027 127.132 43.0711 126.933 42.871C126.681 42.6184 126.356 42.4183 125.968 42.2709C125.58 42.1235 125.129 42.0604 124.626 42.0604H121.133V50.2093V50.1882ZM122.056 46.198V42.8921H124.563C125.223 42.8921 125.737 43.0395 126.094 43.3132C126.461 43.5975 126.639 43.987 126.639 44.4924V44.5134C126.639 44.7767 126.587 45.0083 126.482 45.2188C126.377 45.4189 126.23 45.5979 126.042 45.7453C125.853 45.8927 125.632 45.9979 125.381 46.0822C125.129 46.1559 124.846 46.198 124.542 46.198H122.045H122.056ZM114.052 51.7043C114.367 51.4516 114.65 51.0094 114.902 50.3882L117.419 44.1765H116.465L114.545 49.188L112.364 44.1765H111.378L114.105 50.1671C113.927 50.5988 113.748 50.8936 113.559 51.0515C113.371 51.22 113.14 51.2937 112.878 51.2937C112.689 51.2937 112.521 51.2726 112.374 51.241C112.227 51.2094 112.08 51.1463 111.934 51.0726L111.629 51.778C111.829 51.8833 112.028 51.957 112.227 52.0096C112.427 52.0622 112.657 52.0833 112.899 52.0833C113.35 52.0833 113.727 51.957 114.042 51.7043M109.72 50.2303C109.899 50.1882 110.056 50.125 110.213 50.0408V49.2722C110.056 49.3459 109.909 49.3986 109.773 49.4302C109.636 49.4617 109.49 49.4723 109.343 49.4723C109.039 49.4723 108.797 49.3986 108.609 49.2512C108.42 49.1038 108.336 48.8406 108.336 48.4721V44.9662H110.234V44.1765H108.336V42.3657H107.444V44.1765H106.605V44.9662H107.444V48.5984C107.444 48.9037 107.486 49.1564 107.57 49.3775C107.654 49.5986 107.769 49.7671 107.927 49.9039C108.074 50.0408 108.262 50.1356 108.462 50.1987C108.661 50.2619 108.892 50.2935 109.133 50.2935C109.353 50.2935 109.542 50.2724 109.72 50.2303ZM104.203 42.8605H105.221V41.8708H104.203V42.8605ZM104.256 50.1882H105.147V44.166H104.256V50.1882ZM99.5354 50.1882H100.427V47.7877C100.427 47.335 100.49 46.935 100.616 46.5981C100.742 46.2506 100.909 45.9664 101.13 45.7347C101.35 45.5031 101.602 45.3241 101.885 45.2083C102.179 45.0925 102.483 45.0293 102.808 45.0293H102.881V44.0607C102.598 44.0607 102.326 44.0923 102.084 44.166C101.833 44.2397 101.612 44.3555 101.402 44.5134C101.193 44.6608 101.004 44.8504 100.847 45.0609C100.689 45.2715 100.553 45.5031 100.437 45.7453V44.1765H99.5459V50.1987L99.5354 50.1882ZM95.8327 49.9776C96.1579 49.746 96.4201 49.4723 96.6194 49.1459V50.1987H97.5005V44.1765H96.6194V47.6193C96.6194 47.893 96.5774 48.1562 96.483 48.3879C96.3886 48.6195 96.2628 48.8195 96.1054 48.988C95.9481 49.1564 95.7593 49.2828 95.539 49.367C95.3187 49.4617 95.0775 49.5039 94.8258 49.5039C94.2908 49.5039 93.8817 49.3354 93.5985 49.0196C93.3153 48.6932 93.1685 48.251 93.1685 47.693V44.1871H92.2769V47.9246C92.2769 48.2826 92.3293 48.609 92.4342 48.9037C92.5391 49.1985 92.686 49.4512 92.8853 49.6618C93.0846 49.8724 93.3258 50.0408 93.609 50.1566C93.8922 50.2724 94.2174 50.3356 94.574 50.3356C95.088 50.3356 95.518 50.2198 95.8432 49.9882M89.9063 49.9987C90.2839 49.7776 90.6301 49.5039 90.9343 49.1564L90.3679 48.6195C90.1266 48.8722 89.8539 49.0933 89.5602 49.2617C89.2665 49.4302 88.9203 49.5144 88.5322 49.5144C88.2176 49.5144 87.9239 49.4512 87.6617 49.3354C87.3994 49.2196 87.1687 49.0511 86.9694 48.83C86.7701 48.6195 86.6127 48.3668 86.5078 48.0825C86.3925 47.7983 86.34 47.493 86.34 47.1666V47.1455C86.34 46.8191 86.3925 46.5138 86.4974 46.2296C86.6022 45.9453 86.7596 45.7031 86.9484 45.4926C87.1372 45.282 87.3679 45.1136 87.6302 44.9978C87.8924 44.8819 88.1756 44.8188 88.4798 44.8188C88.8889 44.8188 89.235 44.903 89.5182 45.082C89.8014 45.261 90.0637 45.4715 90.3049 45.7242L90.8923 45.0925C90.756 44.9451 90.5986 44.8082 90.4413 44.6714C90.2839 44.5345 90.1056 44.4292 89.9063 44.3239C89.7175 44.2292 89.4973 44.1555 89.2665 44.0923C89.0357 44.0397 88.7735 44.0081 88.4903 44.0081C88.0498 44.0081 87.6407 44.0923 87.2631 44.2608C86.8854 44.4292 86.5603 44.6608 86.2876 44.9451C86.0148 45.2294 85.7946 45.5663 85.6477 45.9453C85.4904 46.3243 85.417 46.7349 85.417 47.156V47.1771C85.417 47.5982 85.4904 47.9983 85.6477 48.3773C85.8051 48.7564 86.0148 49.0933 86.2876 49.367C86.5603 49.6513 86.8854 49.8723 87.2631 50.0408C87.6407 50.2093 88.0498 50.2935 88.4903 50.2935C89.0567 50.2935 89.5287 50.1882 89.9063 49.9671M84.1163 47.5456C84.1163 47.4719 84.1268 47.4193 84.1268 47.3666V47.2297C84.1268 46.7876 84.0639 46.377 83.938 45.9874C83.8121 45.5979 83.6338 45.261 83.3926 44.9767C83.1513 44.6924 82.8576 44.4608 82.5115 44.2924C82.1653 44.1239 81.7667 44.0397 81.3262 44.0397C80.9066 44.0397 80.529 44.1239 80.1724 44.2818C79.8157 44.4398 79.522 44.6714 79.2598 44.9556C79.0081 45.2399 78.8088 45.5768 78.6619 45.9558C78.5151 46.3348 78.4521 46.7454 78.4521 47.1876C78.4521 47.6509 78.5361 48.0825 78.6934 48.4721C78.8507 48.8616 79.0605 49.188 79.3332 49.4723C79.606 49.746 79.9206 49.9671 80.2878 50.1145C80.6549 50.2619 81.043 50.3461 81.4521 50.3461C82.029 50.3461 82.501 50.2408 82.8891 50.0408C83.2772 49.8302 83.6233 49.567 83.917 49.2196L83.3611 48.7142C83.1093 48.9669 82.8366 49.1775 82.5429 49.3354C82.2492 49.4933 81.8926 49.567 81.473 49.567C81.2108 49.567 80.9591 49.5249 80.7178 49.4302C80.4766 49.3459 80.2563 49.2091 80.0675 49.0406C79.8787 48.8722 79.7109 48.6616 79.5955 48.4089C79.4696 48.1562 79.3962 47.872 79.3647 47.5561H84.1163V47.5456ZM79.3542 46.8191C79.3857 46.5349 79.4591 46.2717 79.5745 46.019C79.6899 45.7663 79.8262 45.5558 79.9941 45.3768C80.1619 45.1978 80.3612 45.0504 80.5815 44.9556C80.8017 44.8609 81.043 44.8082 81.3052 44.8082C81.5989 44.8082 81.8611 44.8609 82.0919 44.9662C82.3227 45.0714 82.5115 45.2188 82.6688 45.4084C82.8261 45.5979 82.952 45.8084 83.0464 46.0506C83.1408 46.2927 83.1933 46.5559 83.2247 46.8191H79.3647H79.3542ZM75.3893 50.1461C75.725 50.0408 76.0187 49.8829 76.2599 49.6828C76.5012 49.4828 76.69 49.2407 76.8263 48.9564C76.9627 48.6721 77.0361 48.3563 77.0361 48.0088V47.9878C77.0361 47.3666 76.8158 46.8823 76.3963 46.5244C75.9662 46.1664 75.3054 45.8927 74.3928 45.6821C73.9418 45.5873 73.5747 45.4926 73.2915 45.3873C73.0083 45.282 72.7775 45.1662 72.6202 45.0399C72.4628 44.9135 72.3474 44.7767 72.2845 44.6187C72.2216 44.4713 72.1901 44.2924 72.1901 44.1028V44.0818C72.1901 43.7133 72.3474 43.3974 72.6516 43.1448C72.9558 42.8921 73.3859 42.7657 73.9208 42.7657C74.3404 42.7657 74.739 42.8394 75.1166 42.9763C75.5047 43.1132 75.8823 43.3448 76.2599 43.6501L76.7949 42.9447C76.3753 42.6078 75.9452 42.3657 75.5047 42.1972C75.0641 42.0288 74.5397 41.9445 73.9418 41.9445C73.5537 41.9445 73.1971 41.9972 72.8719 42.113C72.5467 42.2288 72.2635 42.3762 72.0223 42.5762C71.781 42.7763 71.5922 43.0079 71.4664 43.2816C71.3405 43.5554 71.2671 43.8502 71.2671 44.166V44.1871C71.2671 44.524 71.3195 44.8082 71.4349 45.0609C71.5398 45.3136 71.7076 45.5242 71.9384 45.7137C72.1586 45.9032 72.4523 46.0611 72.788 46.1874C73.1341 46.3138 73.5432 46.4401 74.0047 46.5349C74.4348 46.6296 74.7809 46.7244 75.0537 46.8297C75.3264 46.935 75.5466 47.0402 75.6935 47.1666C75.8508 47.2929 75.9557 47.4298 76.0187 47.5772C76.0816 47.7246 76.1131 47.893 76.1131 48.0825V48.1036C76.1131 48.5037 75.9452 48.8406 75.6201 49.0933C75.2949 49.3565 74.8544 49.4828 74.3089 49.4828C73.7635 49.4828 73.2495 49.388 72.809 49.1985C72.3789 49.009 71.9489 48.7142 71.5188 48.3352L70.9524 49.009C71.4349 49.4512 71.9489 49.7776 72.4838 49.9882C73.0188 50.1987 73.6166 50.304 74.267 50.304C74.6656 50.304 75.0432 50.2514 75.3788 50.1356" fill="#878787"/>
<path d="M58.9003 28.6473C58.9003 16.1397 50.8446 5.0429 39.1492 1.11584V4.40067C49.0614 8.19086 55.8165 17.8348 55.8165 28.6579C55.8165 39.481 49.0824 49.1143 39.1492 52.9045V56.1999C50.8656 52.2623 58.9003 41.2181 58.9003 28.6579" fill="#E40521"/>
<path d="M58.9003 28.6473C58.9003 16.1397 50.8446 5.0429 39.1492 1.11584V4.40067C49.0614 8.19086 55.8165 17.8348 55.8165 28.6579C55.8165 39.481 49.0824 49.1143 39.1492 52.9045V56.1999C50.8656 52.2623 58.9003 41.2181 58.9003 28.6579V28.6473Z" stroke="#E40521" stroke-width="0.49" stroke-miterlimit="10"/>
<path d="M21.0763 4.28483V1C9.18156 4.8323 1 15.9607 1 28.6473C1 41.3339 9.21303 52.4518 21.0868 56.2946V53.0203C10.9962 49.3143 4.09431 39.5757 4.09431 28.6473C4.09431 17.7189 10.9647 7.98026 21.0763 4.28483Z" fill="#E40521"/>
<path d="M21.0763 4.28483V1C9.18156 4.8323 1 15.9607 1 28.6473C1 41.3339 9.21303 52.4518 21.0868 56.2946V53.0203C10.9962 49.3143 4.09431 39.5757 4.09431 28.6473C4.09431 17.7189 10.9647 7.98026 21.0763 4.28483Z" stroke="#E40521" stroke-width="0.49" stroke-miterlimit="10"/>
<path d="M45.621 36.6383V20.1615L38.7925 20.1089V14.0972C38.7925 10.7597 35.7297 7.20117 30.0655 7.20117C24.8105 7.20117 21.2861 10.7071 21.2861 13.9919V22.5725L35.887 30.195V35.8802C35.887 36.0698 35.8241 40.4706 30.076 40.4706C24.6951 40.4706 24.4224 36.6593 24.4224 35.8908V29.3948H21.3385V35.8908C21.3385 38.5439 23.1637 43.5659 30.076 43.5659C36.6003 43.5659 38.9708 38.965 38.9708 35.8802V28.3104L24.3699 20.6879V13.9814C24.3699 12.4443 26.5412 10.286 30.0655 10.286C34.1773 10.286 35.7087 12.6127 35.7087 14.0867V23.1726L42.5372 23.2252V36.6278C42.5372 36.733 41.8029 46.9771 30.0655 46.9771C18.3281 46.9771 18.1184 36.6909 18.1184 36.5856V20.0878H15.0345V36.5856C15.0345 42.0077 19.0414 50.0724 30.0655 50.0724C42.9777 50.0724 45.621 39.4704 45.621 36.6278" fill="#E40521"/>
<path d="M45.621 36.6383V20.1615L38.7925 20.1089V14.0972C38.7925 10.7597 35.7297 7.20117 30.0655 7.20117C24.8105 7.20117 21.2861 10.7071 21.2861 13.9919V22.5725L35.887 30.195V35.8802C35.887 36.0698 35.8241 40.4706 30.076 40.4706C24.6951 40.4706 24.4224 36.6593 24.4224 35.8908V29.3948H21.3385V35.8908C21.3385 38.5439 23.1637 43.5659 30.076 43.5659C36.6003 43.5659 38.9708 38.965 38.9708 35.8802V28.3104L24.3699 20.6879V13.9814C24.3699 12.4443 26.5412 10.286 30.0655 10.286C34.1773 10.286 35.7087 12.6127 35.7087 14.0867V23.1726L42.5372 23.2252V36.6278C42.5372 36.733 41.8029 46.9771 30.0655 46.9771C18.3281 46.9771 18.1184 36.6909 18.1184 36.5856V20.0878H15.0345V36.5856C15.0345 42.0077 19.0414 50.0724 30.0655 50.0724C42.9777 50.0724 45.621 39.4704 45.621 36.6278V36.6383Z" stroke="#E40521" stroke-width="0.49" stroke-miterlimit="10"/>
<path d="M215.42 17.6558C213.993 17.6558 212.797 16.4555 212.797 15.0342V7.15906H210.175V15.0448C210.175 16.4977 210.689 17.74 211.707 18.7718C212.735 19.793 213.972 20.3089 215.42 20.3089C216.867 20.3089 218.095 19.793 219.122 18.7718C220.15 17.74 220.664 16.4977 220.664 15.0448V7.15906H218.042V15.0342C218.042 16.445 216.836 17.6558 215.42 17.6558ZM200.955 7.15906V20.1826H208.78V17.5821H203.567V7.15906H200.955ZM196.864 20.5932C197.777 20.5932 198.532 19.8457 198.532 18.9297C198.532 18.0137 197.766 17.2557 196.864 17.2557C195.962 17.2557 195.197 18.0137 195.197 18.9297C195.197 19.8457 195.941 20.5932 196.864 20.5932Z" fill="#E40521"/>
</svg>
