<?xml version="1.0" encoding="UTF-8"?><svg id="Layer_1" xmlns="http://www.w3.org/2000/svg" xmlns:xlink="http://www.w3.org/1999/xlink" viewBox="0 0 588.09 166.98"><defs><clipPath id="clippath"><rect y="2.64" width="167.02" height="163.87" style="fill:none;"/></clipPath><clipPath id="clippath-1"><path d="M22.08,22.89c-12.99,70.03,7.68,115.11,61.43,134.01,53.74-18.9,74.42-63.98,61.43-134.01-29.14-10.96-61.09-11.14-61.43-11.14s-32.18.15-61.43,11.14Z" style="fill:none;"/></clipPath></defs><path d="M356.84,18.78h7.34l3.52,6.75,2.93,5.58,4.99,9.39,3.81,7.34,3.52,6.46.88.88,3.52-6.75,3.81-7.34,2.93-5.58,2.64-4.7,2.35-4.7,3.52-6.46.59-.88h7.63v56.05h-6.16l-2.64-.29-.29-1.47v-34.63h-.59l-.59,1.47-2.35,4.7-4.4,8.22-3.52,6.46-3.23,5.87-.59.59h-5.58l-1.47-1.47-3.52-6.75-3.81-6.75-3.81-7.04-2.35-4.11-.59-.88-.29,35.8-.29.29h-5.58l-2.93-.29v-14.09l.29-41.38.29-.29Z" style="fill:#30a8e4;"/><path d="M231.24,18.78h29.35l7.63.29v6.75l-.29.29h-27l.29,16.14h25.24l.29.29v7.04h-25.82l.29,17.61h26.7l.29.29v7.04h-37.27V19.07l.29-.29Z" style="fill:#30a8e4;"/><path d="M195.74,18.49h8.8l5.58,1.17,4.11,1.47,4.99,2.64.59.59-.29,1.76-2.05,4.4-.59,1.17-1.17-.59-3.81-2.35-3.23-1.47-4.7-1.17h-7.63l-3.52,1.17-1.76,1.17-1.76,2.05-.88,2.35v2.64l1.47,2.93,2.93,1.76,6.75,2.05,5.87,1.47,6.16,2.05,4.4,2.35,2.64,2.35,2.35,4.11.29,1.47v4.99l-1.17,3.81-2.05,3.23-1.47,1.47-2.64,2.05-4.7,2.05-4.4,1.17-3.23.29h-5.28l-6.16-.88-4.4-1.17-4.4-1.76-3.52-2.05.29-1.76,2.05-4.7,1.17-.59,4.11,2.35,5.58,2.05,2.93.59h9.68l3.52-1.17,2.64-1.76,1.47-2.93v-2.93l-1.17-2.35-2.93-1.76-5.28-1.76-9.1-2.35-4.99-1.76-3.23-1.76-2.64-2.05-2.05-2.93-1.17-2.93-.29-2.05.29-4.7,1.17-3.23,2.05-3.23,2.64-2.64,4.11-2.35,3.23-1.17,3.81-.88Z" style="fill:#30a8e4;"/><path d="M83.64,1.47h4.4l11.15.59,9.1.88,6.75.88,11.15,2.05,10.27,2.64,7.34,2.05,7.04,2.93,2.35,1.76,1.47,1.76,1.17,3.52.88,4.4.88,6.75,1.17,8.8.59,8.51v21.13l-.88,9.1-1.76,10.56-1.47,6.16-2.35,7.34-2.93,7.63-2.05,4.11-3.52,6.46-3.81,5.58-2.93,4.11-2.64,2.93-2.64,3.23-3.23,3.23h-.59l-.29.88-2.93,2.05-1.47,1.47-4.7,3.52-4.11,2.93-3.23,2.05-4.4,2.64-3.52,2.05-.88-.29,7.04-4.4,4.7-3.23,4.7-3.81,2.35-2.05,3.52-3.23,4.11-4.4,2.64-3.23,2.93-3.81,3.23-4.99,3.52-6.16,2.93-6.16,3.23-8.51,1.76-5.87,1.76-7.63,1.76-11.15.59-4.99.29-4.4v-16.73l-.59-8.51-1.76-13.5-2.05-12.62-.59-1.17-5.58-2.35-7.34-2.64-12.03-3.23-7.92-1.76-11.44-1.76-14.67-1.47-4.7-.29h-9.1l-8.51.59-11.15,1.17-10.56,1.76-7.92,1.76-13.5,3.52-4.7,1.47-1.47.29,1.17-.88,4.11-1.76,7.63-2.35,3.52-.59,10.56-2.64,11.44-2.05,11.44-1.47,11.15-.88,4.11-.29Z" style="fill:#8d8c91;"/><path d="M334.25,18.78h9.68l.29.29v55.46l-.29.29h-7.34l-2.64-.29V19.07l.29-.29Z" style="fill:#30a8e4;"/><path d="M545.24,48.42l-.88-2.64-1.17-2.35-2.05-3.23-2.93-2.64-4.11-2.05-2.93-.59h-5.28l-4.11,1.17-1.47.88-2.35,1.76-1.17,2.05-.88.59v-22.6h-9.68v55.17l.29.59,1.47.29h7.34l.59-.29.29-6.16,1.17,2.05,2.35,2.05,2.35,1.17,2.05.88,2.93.59h3.23l3.52-.88,4.7-2.35v-.59h.59l1.47-1.47.59-1.17h.59l1.17-1.76,2.05-4.7.88-4.99v-4.7l-.59-4.11ZM535.85,59.57l-.88,2.35-1.47,2.35-2.35,2.35-1.76.88h-6.46l-2.93-1.47-1.47-1.17-2.05-3.23-.59-2.35v-9.1l1.17-3.23h.59v-.88h.59l.59-1.47,3.23-2.05.88-.29h5.87l3.81,2.05,1.76,2.05,1.17,2.64.29,1.17v9.39Z" style="fill:#2a2d85;"/><path d="M76.89,2.64h11.74l11.15,1.17,8.8,1.17,8.51,1.17,2.64.59,3.52.59,6.75,1.47,7.63,2.05,8.8,2.93,3.52,1.76,2.64,2.05,1.17,2.64.88,3.52,2.05,14.97.59,7.04.29,6.46v15.26l-.88,10.27-1.47,9.1-.59,2.64-1.17,4.7-3.23,10.27-2.93,6.75-2.35,4.99-1.76,2.64-1.47,2.93-2.93,4.4-2.05,2.93-2.64,3.52-2.64,2.93-1.47,1.17.29-1.17,3.23-3.81,3.23-4.7,3.52-5.87,3.52-6.75,2.93-7.34,2.64-7.92,2.05-8.8,1.76-11.15.59-4.99.29-4.4v-16.73l-.59-8.51-1.76-13.5-2.05-12.62-.59-1.17-5.58-2.35-7.34-2.64-12.03-3.23-7.92-1.76-11.44-1.76-14.67-1.47-4.7-.29h-9.1l-8.51.59-6.46.59h-4.11v-.29l3.52-.59,16.14-1.47Z" style="fill:#6d6b70;"/><path d="M322.22,69.55l-3.52-6.75-3.52-6.46-2.05-2.64-2.64-2.05-1.17-.88,4.11-1.47,2.93-1.76,2.93-2.93,1.76-2.64,1.17-3.81v-6.75l-.59-2.05-1.76-3.52-2.05-2.35-2.64-2.05-3.52-1.47-6.46-1.17h-27l-.29.59v55.17l3.81.29h6.16v-23.18l10.56.29,1.76.29,2.35,1.47,1.17,1.47,2.35,4.11,3.52,6.46,4.11,8.22,1.47.88h9.68v-.88l-2.64-4.4ZM304.61,44.31h-16.73v-17.9l.29-.29h15.85l4.7,1.17,1.76,1.17,1.76,2.05.59,1.76v5.58l-1.17,2.64-1.47,1.76-2.35,1.17-3.23.88Z" style="fill:#30a8e4;"/><path d="M85.69,0h3.52l9.98.59,12.91,1.47,7.34,1.17,9.1,1.76,6.46,1.76,9.98,2.93,5.28,2.05,3.23,1.76,2.05,2.35,1.47,3.52,1.17,7.34,2.05,15.55.59,9.1v15.26l-.59,8.8-.88,6.75-1.17,6.75-1.76,7.63-2.35,7.63-1.47,3.52-2.35,5.58-2.64,4.99-1.76,3.23-2.05,3.23-.59,1.17h-.59l-.29,1.17-2.35,3.23-1.17,1.76-2.05,2.35-.59.88h-.59l-.59,1.17-1.47,1.76-2.35,2.05-.88.88h-.59l-.29.88-2.35,2.05-3.81,3.23-3.81,2.93-4.7,3.23-6.16,3.52-4.7,2.35-7.63,3.52-4.7,1.76-2.93.88h-.88v-.59l10.56-4.99,4.4-2.35,1.17.29,7.04-4.11,3.23-2.05,4.99-3.52,5.28-4.11h.59l.29-.88,2.93-2.05,1.47-1.47,2.05-2.35,1.47-1.47,2.93-3.23,2.93-3.81,3.23-4.7,2.93-4.7,2.05-3.52,2.05-4.7,1.47-3.23,2.35-6.16,2.05-7.34,1.47-6.16,1.47-9.1.88-9.1v-21.13l-.88-11.15-1.17-8.22-.88-5.87-1.17-5.28-1.17-2.35-2.05-1.76-3.52-1.76-4.4-1.76-6.16-1.76-7.63-2.05-9.98-2.05-9.1-1.47-11.74-1.17-11.74-.59h-3.81l-12.33.88-12.33,1.47-9.1,1.47-8.22,1.76-7.92,2.05-1.17-.29,3.52-1.17,3.81-.88,2.64-.88,3.52-.88,4.99-1.17,11.74-2.05,7.34-.88,7.63-.88,7.92-.29Z" style="fill:#bcbcbd;"/><path d="M390.59,84.52h2.93c1.56,2.54,4.34,8.11,5.58,10.86.09.26,2.73,5.12,2.35,5.28h.59c1.6-5.24,5.73-11.13,7.92-16.14h2.93v24.06h-3.23v-15.85h-.59c-.25.99-3.01,6.04-3.52,7.04-.44.81-2.08,4.57-2.93,4.99h-1.76c-1.56-1.7-3.1-4.56-3.81-6.75-.33-.58-2.63-4.07-2.64-4.7l-.29,14.97-.29.29h-3.23v-24.06Z" style="fill:#0b0a0c;"/><path d="M474.52,71.02l-8.8-19.37-9.39-20.54-5.58-12.33h-7.92l-.29.29-2.05,4.11-3.23,7.04-2.64,5.87-3.23,7.04-5.28,11.44-3.81,8.51-2.64,5.87-2.05,4.11-.29,1.47,2.35.29h6.75l1.17-1.17,4.7-10.86.59-1.47h27.88l.59,1.76,3.81,9.1,1.17,2.35,2.05.29h7.63v-.88l-1.47-2.93ZM456.91,53.7h-20.54l.29-1.76,3.81-8.51,4.4-9.98,1.47-3.23h.59l1.76,3.52,2.64,6.16,4.99,11.15.59,1.47v1.17Z" style="fill:#30a8e4;"/><path d="M511.5,91.56h3.23l.88,2.05c.44-.75,2.16-1.48,2.93-1.76,0,0,2.93,0,2.93,0l1.76.88,1.17,1.47h.88c.65-.84,2.22-2.01,3.23-2.35,0,0,2.93,0,2.93,0l2.35.88,1.47,2.64v13.21h-3.52l-.29-12.33-1.47-1.17h-2.93c-.59.49-1.53,1.6-1.76,2.35,0,0-.29,11.15-.29,11.15h-3.52c-.15-.81.11-12.92-.88-13.21-.32-.46-3.34-.26-3.81-.29l-1.47,2.05-.29,11.44h-3.52v-17.02Z" style="fill:#080709;"/><path d="M189.87,84.81c2.95-.17,6.96.2,9.39,2.05l.29.88-.59,2.35c-.85-.01-3.08-1.35-3.81-1.76-.97-.41-5.08-.28-6.16-.29l-1.47,1.17c-.4.57-.29,2.85-.29,3.52.64,1.45,5.18,2.21,6.46,2.64,1.35.42,4.14,1.52,5.28,2.35l1.17,2.05v4.11c-1.82,2.66-3.56,4.52-7.04,4.11v.59c-3.1.18-7.6-.36-10.27-2.05v-1.76l.59-1.17c1.57.16,3.53,1.23,4.99,1.76,0,0,4.99,0,4.99,0l2.05-.88c.75-1.19,1.26-2.76.59-4.11-.76-.22-2.27-.77-2.93-1.17,0,0-5.28-1.17-5.28-1.17-1.83-.93-4.31-2.64-4.99-4.7,0,0,0-2.93,0-2.93l1.47-2.93h.59v-.59c1.15-.77,3.6-1.91,4.99-2.05Z" style="fill:#0c0b0d;"/><path d="M363.3,84.81h3.81v14.38h.59l.88-1.76h.59c.73-1.84,3.63-4.24,4.7-5.87h4.11l-.29,1.17c-1.4,1.25-4.89,5.28-6.16,6.75l.29,1.17c1.55,1.4,5.06,5.42,6.46,7.04v.88h-4.11c-1.56-1.93-4.93-5.66-6.75-7.34l-.29,7.04-.29.29h-3.52v-23.77Z" style="fill:#100f11;"/><path d="M588.09,49.3l-1.17-4.11-2.35-4.11-3.23-3.23-3.52-2.05-5.58-1.17h-2.93l-4.11.88-3.52,1.47-3.81,2.64-1.76,2.05-.29,1.17h-.59l-2.05,4.4-1.17,4.99v4.11l.59,4.7,2.35,5.58h.59l.29,1.17h.59v.59l2.05,2.05,2.64,2.05,2.93,1.17,2.93.88,3.81.59h3.81l2.35-.29,3.81-1.17,2.93-1.17,3.52-1.76.29-1.17h-.59l-.29-1.47-1.47-3.81-1.17-.29-3.81,2.35-4.4.88h-6.75l-2.35-.88-1.17-.88-1.76-2.05-1.47-3.52-.29-3.23h26.12v-7.34ZM579.87,51.65h-17.9v-3.52l1.47-2.93.88-1.17h.59v-.59l2.35-1.47,1.47-.29h4.7l2.64.88,2.05,2.05,1.17,1.76.59,2.05v3.23Z" style="fill:#2b2d84;"/><path d="M237.99,91.56h3.81c.21,1.19-.29,13,1.17,13.5h3.81l1.76-1.47.29-12.03h4.11v17.02h-4.11v-2.35c-.9.65-2.83,1.82-3.81,2.35,0,0-2.64,0-2.64,0l-2.64-1.47-1.17-1.76c-.89-1.69-.53-11.8-.59-13.79Z" style="fill:#0a090b;"/><path d="M558.45,91.56h3.23l.29.29v2.35h.59v-.59l3.52-2.05h2.64l3.23,2.05,1.17,2.93v12.03h-3.81c-.15-1.9.13-11.75-1.17-13.21-1.35-.4-3.79-.59-4.99.29l-.59,1.17h-.59v11.74h-3.52v-17.02Z" style="fill:#0c0b0d;"/><path d="M436.37,91.56h3.52l.29,2.35c.78-.87,3.03-1.94,4.11-2.35,0,0,2.35,0,2.35,0l2.64,1.47,1.76,2.93v12.33l-.29.29h-3.23l-.29-10.56c-.33-.63-.73-1.93-.59-2.64-1.03-.29-3.33-.34-4.4-.29l-2.05,2.05-.29,11.44h-3.23l-.29-.29v-16.73Z" style="fill:#0b0a0c;"/><path d="M288.17,91.56h3.52c1.57,2.77,3.67,8.71,4.7,11.74,1.55-2.64,3.98-8.81,4.99-11.74h3.52c-2.04,7.49-6.62,15.92-9.39,23.18h-3.81c.41-1.6,1.9-4.96,2.64-6.46-.59-4.15-5.54-12.57-6.16-16.73Z" style="fill:#0d0c0e;"/><path d="M435.2,131.47l1.47.29c.79,2.65,2.55,6.71,3.23,9.39h.59c.66-2.45,1.87-7.69,3.52-9.68h2.35c-.09,1.97-2.16,6.96-2.93,8.8-.37.99-1.48,4.62-2.35,5.28h-2.05c-1.17-1.95-3.15-6.19-3.23-8.51h-.88c-.3,1.47-2.07,7.43-3.23,8.51h-1.76l-1.17-1.17-1.17-3.52c-.79-2.34-2.95-6.58-2.93-9.1h2.64c1.34,2.56,2.19,6.54,3.52,9.1l.59-.59c.62-1.92,2.13-6.43,2.93-8.22l.88-.59Z" style="fill:#48474b;"/><path d="M485.38,63.68h10.86v8.8l-.29,2.05-.59.29h-9.98v-11.15Z" style="fill:#2f3387;"/><path d="M578.4,86.57h3.52l.29.29v4.7h4.11v2.93l-.29.29h-3.81c.18,1.29-.22,9.83,1.17,10.56l2.93.29v2.93h-2.93l-3.23-1.17-1.76-2.64v-9.98h-2.93v-3.23h2.93v-4.99Z" style="fill:#0f0e10;"/><path d="M279.37,86.57h3.52l.29.29v4.7h4.11v3.23h-4.11l.29,9.39.88.88,2.93.59v2.64l-.29.29h-2.64l-2.93-1.17-1.76-2.05-.29-.59v-9.98h-2.93v-3.23h2.93v-4.99Z" style="fill:#0c0b0d;"/><path d="M352.15,91.56h2.35c.72.31,3.88,1.52,4.4,2.05l-.29,2.05-1.47.29-2.05-.88h-3.52l-1.47,1.47.29,1.47c1.46.4,5.96,1.65,7.34,2.05l1.47,1.76v3.81c-1.15,1.36-2.84,2.62-4.7,2.64,0,0-4.11,0-4.11,0-.69-.29-3.3-1.23-3.81-1.76v-2.35c.86.07,2.47.48,3.23.88,0,0,5.58.29,5.58.29.36-.56.31-2.29.29-2.93l-6.46-1.76-2.05-1.76c-.47-.3-.25-3.63-.29-4.11l1.17-1.47h.59v-.59l3.52-1.17Z" style="fill:#0d0c0e;"/><path d="M228.02,91.56h2.35c.73.3,4.19,1.49,4.7,2.05v2.05l-1.47.29-1.76-.88h-3.81l-1.76,1.47-.88,2.05v3.23c.36.77,1.3,2.77,2.05,3.23h4.4c.58-.25,2.28-1.09,2.93-.88.4.37.29,1.87.29,2.35-2.34,2.12-4.67,2.18-7.63,2.05-1.25-.43-3.52-1.65-4.4-2.64,0,0-1.47-2.64-1.47-2.64v-6.16l1.76-2.93c1.05-.96,3.3-2.33,4.7-2.64Z" style="fill:#0d0c0e;"/><path d="M535.27,131.47h2.64c-1.14,4.15-4.03,10.42-5.58,14.38h-.59c-.1,1.27-.9,3.72-1.76,4.7h-2.93c.24-.93.99-2.69,1.47-3.52.15-1.15.4-3.88,0-4.99h-.59c-.96-3.11-3.2-7.05-3.81-10.27h3.23c.79,2.8,2.47,6.4,3.52,9.1,1.15-.8,2.23-4.61,2.64-5.87,0,0,1.76-3.52,1.76-3.52Z" style="fill:#47464b;"/><path d="M484.79,91.56v2.64c-.97-.67-3.09-2.02-4.11-2.64-2.75-.24-4.06.35-6.16,2.05-.91.94-1.77,3.44-2.05,4.7-.04,3.03-.32,5.39,1.76,7.92,1.62,1.33,3.97,2.72,6.16,2.35,1.36-.49,3.39-1.41,3.81-2.93h.59c-.08.47-.16,4.12-.59,4.4,0,0-1.76,1.17-1.76,1.17h-4.4c-.93-.21-3.19-.71-4.11-.88-.22.52-.49,1.78-.59,2.35l.88.59,3.81,1.17h4.4l.88-.29c2.56-.95,4.15-1.97,4.99-4.7,0,0,0-17.9,0-17.9h-3.52ZM484.79,102.42l-1.47,2.35-1.47.88c-2.32.08-3.95.17-5.28-2.05-.87-.72-.54-4.89-.59-5.87,2.12-3.17,2.49-3.04,6.16-2.93,3.63,2.54,2.48,3.82,2.64,7.63Z" style="fill:#0b0a0b;"/><path d="M333.66,104.47c-.87-1.7-2.97-5.19-4.4-6.46,1.57.29,3.35-1.41,4.4-2.35.8-1.14.58-5.71.59-7.04-2.48-5.96-12.67-3.7-17.61-4.11v24.06h3.81v-9.68l6.16.29c.96,1.88,3.87,7.62,4.99,9.39h3.81c.31-.37-1.63-3.74-1.76-4.11ZM326.91,95.67h-6.46l-.29-.29v-7.63h8.22l2.05,1.17c.49.21.24,4.55.29,4.99l-1.47,1.47-2.35.29Z" style="fill:#0b0a0b;"/><path d="M257.36,91.56h3.23l.29.29v2.35c.8-.41,2.26-1.45,2.93-2.05.78-.35,2.37-.73,3.23-.59v3.23l-4.11,1.17-1.76,1.47-.29,11.15h-3.52v-17.02Z" style="fill:#0b0a0d;"/><path d="M270.27,91.56h3.81v17.02h-3.81v-17.02Z" style="fill:#151416;"/><path d="M339.24,91.56h3.81v17.02h-3.52l-.29-.59v-16.43Z" style="fill:#141315;"/><path d="M462.78,131.47c.5.03,2.87-.15,3.23.29v2.35c.44-.38,1.2-1.25,1.47-1.76.86-.41,2.58-.72,3.52-.59v2.64l-4.11.88-.59.59-.29,9.68h-3.23v-14.09Z" style="fill:#48474b;"/><path d="M405.56,127.95l-1.76-1.47-2.35-.88h-9.39l-.29.29v19.66h3.23v-7.92c1.41-.05,7.05.27,8.22-.59,0,0,2.35-1.76,2.35-1.76l.88-2.05v-3.23l-.88-2.05ZM403.43,133.59c-1.62,2.31-5.86,1.13-8.03,1.4-1.05.05-.08-6-.11-6.74h0c1.6.05,5.08-.13,6.8.05.34.36,1.24,1.11,1.39,1.68-.03.13.13,2.85-.06,3.61Z" style="fill:#48474b;"/><path d="M495.94,125.6v7.92l-2.64-1.76c-1.09-.05-3.47-.08-4.4.59,0,0-2.35,2.64-2.35,2.64l-.59,2.05c-.27,4.47.61,6.49,4.7,8.51,2.61.42,4-1.22,5.87-2.64v2.35l.29.29h2.35v-19.96h-3.23ZM496.24,139.69l-.59,1.76-1.47,1.47c-.36.42-2.16.28-2.64.29,0,0-1.17-.59-1.17-.59l-1.17-2.05v-3.81c.55-2.16,2.23-3.15,4.4-2.93l2.35,2.05c.3.87.33,2.9.29,3.81Z" style="fill:#48474b;"/><path d="M521.18,133.23l-2.35-1.47h-2.93c-.4.17-2.23,1.23-2.64,1.47l-.29-7.63h-3.23v19.96h2.93l.29-2.64,1.17,1.47,1.76.59v.59c2.07.36,4.4-1,5.87-2.35,0,0,1.17-2.64,1.17-2.64v-3.81l-1.76-3.52ZM519.71,140.86l-1.76,2.05-2.35.29-1.76-.88-.88-1.17v-5.28l1.17-1.17h.59v-.59c.36-.42,2.16-.28,2.64-.29.57.46,2.08,1.65,2.35,2.35v4.7Z" style="fill:#48474b;"/><path d="M420.82,133.82c-.75-.85-2.74-1.76-3.82-2.05,0,0-3.23,0-3.23,0l-2.35,1.17c-.85.81-2.02,2.68-2.35,3.82,0,1.12-.18,4.35.59,5.28,0,0,1.76,2.05,1.76,2.05l2.93,1.47h2.93l2.93-1.76,1.76-2.35v-5.28l-1.17-2.35ZM418.76,141.74c-1.57,1.4-1.99,1.61-4.11,1.47l-1.47-.88-1.17-1.76v-3.23l.88-2.05,1.47-1.17h2.64l1.76,1.47v6.16Z" style="fill:#48474b;"/><path d="M76.89,2.64h11.74l11.15,1.17,8.51,1.17.29.88-3.81-.29-14.67-1.47-4.7-.29h-9.1l-8.51.59-6.46.59h-4.11v-.29l3.52-.59,16.14-1.47Z" style="fill:#6f6d72;"/><path d="M468.06,95.08l-1.76-2.05-2.35-1.17c-2.76-.14-6.22-.04-8.51,1.76-.15.59.34,1.82.59,2.35.64.21,2.63-.66,3.23-.88,0,0,4.11,0,4.11,0l.88.59.59,2.93c-2.07-.19-5.96.21-7.92.88-.83.4-1.91,1.85-2.35,2.64-.35,3.5.89,4.3,3.52,6.16l2.64.29,2.35-1.17,1.47-1.76.29,2.93h3.52v-12.62l-.29-.88ZM464.84,103.3l-1.17,1.47-1.76.88-2.64-.29-1.17-1.76.29-2.05,2.05-.88h4.11l.29.29v2.35Z" style="fill:#0b0a0c;"/><path d="M431.09,95.08l-2.05-2.35c-3.2-1.44-7.69-1.23-10.56.88l.29,2.35c2.54-.38,5.98-1.5,8.51-.59l.59,3.23h-4.11l-4.4,1.17-1.76,2.05v2.93c.53,1.63,3.01,3.05,4.4,3.81,2.24.47,4.38-1.54,5.87-2.93v2.93h3.23l.29-.29v-12.33l-.29-.88ZM427.57,103.59l-2.05,1.76h-3.23l-1.17-1.76v-1.76c.36-.45,1.16-1.12,1.76-1.17,0,0,4.7,0,4.7,0v2.93Z" style="fill:#0d0c0e;"/><path d="M150.54,19.07l.59,1.17.59,1.47,1.47,8.8.59,2.93.59,6.46.29,5.87.29,2.35v2.64l-.59-.59-.88-8.8v-1.76h-.59l-.59-4.4-.59-6.75-1.17-7.34v-2.05Z" style="fill:#424145;"/><path d="M217.75,96.55l-1.76-2.93-2.93-1.76c-1.17.05-4.91-.24-5.87.59,0,0-2.05,1.76-2.05,1.76l-1.76,3.52v4.99c-.01.69,1.99,3.24,2.35,3.81,0,0,2.64,1.76,2.64,1.76,2.82.4,6.44.38,8.8-1.47l.29-1.17-.59-1.47c-.87-.3-2.79.79-3.52,1.17-.85,0-3.34.08-4.11-.29l-1.47-1.47-.88-2.93h10.86l.29-.29c-.04-.5.17-3.49-.29-3.81ZM206.89,98.6l.29-1.47,1.76-2.05c.3-.46,3.63-.25,4.11-.29l1.47,1.47.29,2.35h-7.92Z" style="fill:#0c0b0d;"/><path d="M553.46,95.96l-1.47-2.35-2.93-1.76c-3.78-.09-4.92-.28-7.92,2.35,0,0-1.76,3.52-1.76,3.52v4.7c-.05.91,1.58,3.09,2.05,3.81.79.94,3.27,1.96,4.4,2.35,0,0,2.93,0,2.93,0,1.08-.27,3.38-1.29,4.4-1.76l.29-1.47-.88-1.47-2.05,1.17h-5.28l-1.47-1.47-.88-2.93h10.86l.29-.29c.05-1.08.08-3.47-.59-4.4ZM550.82,98.6h-7.92l.29-1.47,1.76-2.05c.33-.46,3.03-.26,3.52-.29l1.47.88.88,1.47v1.47Z" style="fill:#0c0b0d;"/><path d="M506.8,96.84c-.12-1.15-2.2-3.3-2.93-4.11,0,0-2.35-.88-2.35-.88-.7.06-3.83-.17-4.4.29,0,0-2.05,1.17-2.05,1.17l-1.76,2.05-.88,2.64v4.11c0,.97.95,2.73,1.47,3.52,0,0,2.35,2.05,2.35,2.05,0,0,2.64.88,2.64.88,2.33.19,5.44-.31,7.34-1.76l.29-1.17-.59-1.47h-1.17l-1.17.88c-.67-.05-5.7.18-6.16-.29-.17-.58-1.24-3.48-1.47-4.11h10.86v-3.81ZM503.87,98.6h-7.92l.29-1.47,1.76-2.05c.33-.46,3.03-.26,3.52-.29l1.47.88c.41.71,1.1,2.08.88,2.93Z" style="fill:#0c0b0d;"/><path d="M458.09,132.94l-2.05-1.17c-.49.08-3.79-.2-4.11.29,0,0-2.35,1.76-2.35,1.76l-1.76,3.52v2.64c.34,1.39,1.94,3.42,2.93,4.4,0,0,2.93,1.17,2.93,1.17,0,0,2.35,0,2.35,0,.55-.29,3.28-1.11,3.52-1.76v-1.47c-.89-.15-2.68.28-3.52.59,0,0-2.93-.29-2.93-.29l-1.47-1.47-.59-2.05h8.51l.29-.29v-2.93l-1.76-2.93ZM458.09,137.63h-7.34c.02-1.55,1.4-3.04,2.64-3.81l2.35.29c.64.59,1.89,1.91,2.35,2.64v.88Z" style="fill:#48474b;"/><path d="M483.91,135.87c-.61-1.6-2.32-3.31-3.81-4.11-.7.06-3.83-.17-4.4.29,0,0-2.05,1.76-2.05,1.76l-1.76,3.52v2.35l.88,2.35,2.05,2.35,2.93,1.17s2.35,0,2.35,0c.54-.29,3.28-1.11,3.52-1.76l-.29-1.47c-1.8.35-4.68.98-6.46.29l-1.17-1.17-.88-2.35h9.1v-3.23ZM481.86,137.63h-7.04c.07-1.74,1.44-3.11,2.93-3.81l2.05.29c.51.49,1.76,1.71,2.05,2.35v1.17Z" style="fill:#48474b;"/><path d="M338.94,84.52h4.11v4.11h-4.11v-4.11Z" style="fill:#100e11;"/><path d="M269.98,84.52h4.11v4.11h-4.11v-4.11Z" style="fill:#0e0d10;"/><path d="M31.4,9.39h2.05v.88l-9.68,2.64-3.81,1.17-1.47.29,1.17-.88,4.11-1.76,7.63-2.35Z" style="fill:#9a999d;"/><path d="M154.95,55.76h.29v15.85l-.29,1.47-.29,5.28-1.47,7.34h-.29l.29-3.52,1.17-9.39.29-4.7.29-12.33Z" style="fill:#3e3d41;"/><path d="M70.43,3.23l5.87.29v.29l-8.51.59-6.46.59h-4.11v-.29l3.52-.59,9.68-.88Z" style="fill:#747277;"/><path d="M40.5,7.34l1.47.29-.29.59-7.04,1.76h-1.17l.29-.88,6.75-1.76Z" style="fill:#8a898e;"/><path d="M45.49,6.16h3.81l-.29.59-5.87,1.17-1.76-.29.29-.59,3.81-.88Z" style="fill:#858388;"/><path d="M104.18,4.7l4.11.29.29.88-3.81-.29-2.64-.29v-.29l2.05-.29Z" style="fill:#77767b;"/><path d="M49.89,5.28h1.17v.59h1.47v.29l-3.23.29h-2.93l.59-.59,2.93-.59Z" style="fill:#8c8b90;"/><path d="M70.43,3.23l5.87.29v.29l-7.63.29,1.17-.59.59-.29Z" style="fill:#7f7d82;"/><g id="g10"><g id="g12"><g style="clip-path:url(#clippath);"><g id="g14"><g id="g20"><path id="path22" d="M153.1,16.3C120.63,2.64,83.51,2.64,83.51,2.64c0,0-37.12,0-69.59,13.66-13.92,68.28,0,127.45,69.59,150.21,69.59-22.76,83.51-81.93,69.59-150.21" style="fill:#ccd6dd;"/></g><g id="g24"><path id="path26" d="M83.51,156.86C29.73,137.96,9.09,92.91,22.08,22.89c29.25-11,61.09-11.14,61.43-11.14s32.29.18,61.43,11.14c12.99,70.03-7.65,115.11-61.43,134.01" style="fill:#30a7e3;"/></g></g></g></g><g id="g28"><g style="clip-path:url(#clippath-1);"><g id="g30"><path id="path36" d="M153.1,157.41h-69.59V11.74h69.59v145.66Z" style="fill:#292a83;"/></g></g></g></g><path d="M563.67,161.66c-5.51-.48-11.32-4.14-14.36-8.67-9.12-13.58,1.01-31.56,17.2-31.01-.62.73-1.31,1.36-1.86,2.15-.28.4-1.18,2.24-1.29,2.32-.23.17-2.56.66-3.19.9-11.66,4.52-13.36,20.42-2.97,27.35,9.4,6.26,22.33.64,23.98-10.42,1.65-.52,2.8-1.77,4.14-2.71.2-.14.27-.39.55-.15v1.1c.21,9.56-7.93,18.7-17.79,19.13-1.43-.09-3,.12-4.41,0h0Z" style="fill:#34a8e0;"/><path d="M562.26,131.86c-.31.92.78,3.66.61,4.28-.08.28-1.08.82-1.4,1.13-6,5.71,3.07,15.11,9.14,8.63.25-.27.69-1.1.89-1.16.45-.15,3.48.96,4.3.61-2.57,7.59-12.61,9.46-17.95,3.38-4.89-5.57-2.61-14.5,4.41-16.86h0Z" style="fill:#34a8e0;"/><path d="M576.43,141.58c-.07-5.66-4.74-10.2-10.39-10.35-.38-.37.95-4.4,1.57-4.78.47-.28,2.84.42,3.46.63,5.53,1.91,9.76,7.1,10.32,12.94-1.51.86-3.17,1.67-4.96,1.56Z" style="fill:#292b81;"/><path d="M584.77,135.78c-1.71-5.42-5.74-9.78-10.92-12.1-.21-.09-2.14-.72-2-.91,7.31-2.93,14.66,2.58,13.84,10.41-.03.25-.63,2.83-.92,2.61Z" style="fill:#292b81;"/><path d="M572.18,140.95c-2.39-.92-4.69-2.98-5.35-5.49,2.75.57,4.99,2.64,5.35,5.49Z" style="fill:#292b82;"/></svg>