<svg width="54" height="54" viewBox="0 0 54 54" fill="none" xmlns="http://www.w3.org/2000/svg">
<g clip-path="url(#clip0_526_98)">
<path d="M26.88 51.05C40.1348 51.05 50.88 40.3048 50.88 27.05C50.88 13.7952 40.1348 3.04999 26.88 3.04999C13.6252 3.04999 2.88 13.7952 2.88 27.05C2.88 40.3048 13.6252 51.05 26.88 51.05Z" fill="white"/>
<path d="M38.53 24.04C38.53 22.23 36.85 22.08 35.35 22.08H34.36V26.12H35.35C36.83 26.12 38.53 25.9 38.53 24.03M38.57 27.27V27.31C39.39 27.37 39.86 28.19 40.16 28.86L42.57 34.73H39.22L37.41 30.04C36.98 28.92 36.59 28.49 35.33 28.49H34.36V34.73H31.35V19.72H34.6C37.82 19.72 41.67 19.61 41.67 23.78C41.7 25.57 40.35 27.09 38.57 27.26M28.62 34.73H19.78V19.72H22.79V32.36H28.62V34.73ZM15.48 34.73H12.47V19.72H15.48V34.73ZM53.77 26.88C53.77 12.04 41.73 0 26.88 0C12.04 0 0 12.04 0 26.88C0 41.72 12.04 53.76 26.88 53.76C41.73 53.76 53.76 41.73 53.76 26.88" fill="#ED2939"/>
</g>
<defs>
<clipPath id="clip0_526_98">
<rect width="53.77" height="53.76" fill="white"/>
</clipPath>
</defs>
</svg>
