<?xml version="1.0" encoding="UTF-8"?><svg id="Layer_1" xmlns="http://www.w3.org/2000/svg" xmlns:xlink="http://www.w3.org/1999/xlink" viewBox="0 0 588.11 166.72"><defs><clipPath id="clippath"><rect y="2.53" width="167.02" height="163.87" style="fill:none;"/></clipPath><clipPath id="clippath-1"><path d="M22.08,22.78c-12.99,70.03,7.68,115.11,61.43,134.01,53.74-18.9,74.42-63.98,61.43-134.01-29.14-10.96-61.09-11.14-61.43-11.14s-32.18.15-61.43,11.14Z" style="fill:none;"/></clipPath></defs><path d="M356.84,18.68h7.34l3.52,6.75,2.93,5.58,4.99,9.39,3.81,7.34,3.52,6.46.88.88,3.52-6.75,3.81-7.34,2.93-5.58,2.64-4.7,2.35-4.7,3.52-6.46.59-.88h7.63v56.05h-6.16l-2.64-.29-.29-1.47v-34.63h-.59l-.59,1.47-2.35,4.7-4.4,8.22-3.52,6.46-3.23,5.87-.59.59h-5.58l-1.47-1.47-3.52-6.75-3.81-6.75-3.81-7.04-2.35-4.11-.59-.88-.29,35.8-.29.29h-5.58l-2.93-.29v-14.09l.29-41.38.29-.29h.02Z" style="fill:#30a8e4;"/><path d="M231.24,18.68h29.35l7.63.29v6.75l-.29.29h-27l.29,16.14h25.24l.29.29v7.04h-25.82l.29,17.61h26.7l.29.29v7.04h-37.27V18.97l.29-.29h.01Z" style="fill:#30a8e4;"/><path d="M195.71,18.49c4.83-.24,9.34-.34,14.22,1.07,2.56.85,10.86,3.03,9.49,6.73-.78,2.38-1.74,5.37-4.33,4.06-4.13-2.27-8.2-4.31-13.08-4.34-2.9-.02-5.87-.2-8.49,1.02-3.26,1.31-5.83,4.88-4.85,8.45,1.43,5.03,7.76,5.49,11.89,6.87,4.9,1.26,10.23,2.49,14.57,5.14,7.43,3.94,8.33,14.13,3.18,20.21-3.45,4.2-8.8,6.07-13.99,6.97-5.98.77-12.39.12-18.28-1.68-2.99-1.21-9.35-2.43-7.56-6.84.82-2.3,2.05-4.02,4.19-3.04,3.7,1.65,7.98,3.71,12.03,3.9,5.09.05,11.97.97,15.43-3.7,4.89-8.3-6.3-10.4-12.42-11.99-5.03-1.3-10.25-2.51-14.53-5.82-6.53-4.94-6.2-15.13-.68-20.76,3.23-3.5,8.47-5.56,13.05-6.25l.16-.02Z" style="fill:#30a8e4;"/><path d="M334.25,18.68h9.68l.29.29v55.46l-.29.29h-7.34l-2.64-.29V18.97l.29-.29h.01Z" style="fill:#30a8e4;"/><path d="M545.1,48.01c-2.95-10.75-12.97-16.11-23.5-11.79-1.65.74-3.28,2.17-4.46,3.7-.45.55-.81.96-1.01.94-.08,0-.13-.07-.16-.17-.21-5.34.07-18.71-.11-21.63-.1-.38-.54-.35-.89-.38-1.5-.03-6.3-.01-7.8,0-.7.05-.9-.06-.94.4,0,3.7,0,41.18,0,51.85.09,1.15-.19,2.07.14,2.96.45.49,1.22.69,1.93.78,2.11.07,5.16.25,6.83-.13,1.02-.57.77-1.85.93-3.05.1-.64-.09-2.25.47-2.31.33.09,1.24,1.52,2.19,2.28,7.27,6.08,18.12,3.84,23.47-3.74,3.83-5.56,4.37-13.01,3-19.38l-.08-.33ZM535.83,59.52c-.06.13-.75,2.05-.87,2.29-.46.75-1.09,1.85-1.6,2.5-.57.57-1.66,1.7-2.24,2.21-.43.25-1.48.76-1.69.85-1.65.07-5.71.04-6.52.01-1.77-.9-3.4-1.49-4.54-2.87-.61-1.11-1.65-2.28-1.99-3.37-.1-.4-.3-1.18-.4-1.58-.16-.57-.08-.43-.1-1.32.04-2.54-.07-5.98.03-8.26.25-.7.56-1.55.82-2.28.25-.71.2-.74.77-.98.18-.15.09-.52.28-.66.12-.13.31-.12.47-.29.27-.29.38-1.13.72-1.38.75-.42,2.35-1.6,3.3-2.03.63-.22.7-.24,1.51-.22,1.1,0,3.09,0,4.19,0,.45.03.65-.08.98.08.83.45,2.35,1.26,3.13,1.68.92.41,1.37,1.38,2.05,2.04.48.51.94,1.97,1.27,2.6.25.66.45,1.27.44,1.96,0,2.64,0,6.38,0,8.96v.04Z" style="fill:#2a2d85;"/><path d="M322.22,69.45l-3.52-6.75-3.52-6.46-2.05-2.64-2.64-2.05-1.17-.88,4.11-1.47,2.93-1.76,2.93-2.93,1.76-2.64,1.17-3.81v-6.75l-.59-2.05-1.76-3.52-2.05-2.35-2.64-2.05-3.52-1.47-6.46-1.17h-27l-.29.59v55.17l3.81.29h6.16v-23.18l10.56.29,1.76.29,2.35,1.47,1.17,1.47,2.35,4.11,3.52,6.46,4.11,8.22,1.47.88h9.68v-.88l-2.64-4.4v-.03h.01ZM304.61,44.21h-16.73v-17.9l.29-.29h15.85l4.7,1.17,1.76,1.17,1.76,2.05.59,1.76v5.58l-1.17,2.64-1.47,1.76-2.35,1.17-3.23.88h0Z" style="fill:#30a8e4;"/><path d="M136.26,132.78c15.67-18.54,23-42.97,23.37-67.01.09-10.98.12-22.46-1.6-33.09-1.01-5.46-.97-11.18-3.8-16.02-4.43-6.74-26.71-10.42-34.86-12.14-12.53-2.13-25.09-3.32-37.75-3.04-9.95.51-22.44,2-34.17,4.12-6.66,1.2-13.06,3.14-18.56,4.51-2.3.87-4.57,1.84-7.02,2.79-3.8,1.47.46,2.07,2.9,1.48,20.44-4.98,39.3-11.54,60.58-10.93,20.41,1.19,41.08,4.23,60.1,11.84,2.07.93,3.74,1.84,4.57,3.79.92,2.49,1.21,6.2,1.75,8.95.88,5.72,1.79,12.36,2.34,17.94,1.88,24.59-.4,49.98-11.68,72.12-6.62,13.1-16.28,24.28-28.26,32.96-2.3,1.72-4.84,3.28-7.24,4.84-.91.6-1.64,1.14-2,1.47,2-1.09,3.98-2.26,6.02-3.52,9.16-5.75,18.34-12.57,25.32-21.06Z" style="fill:#8d8c91;"/><path d="M160.4,51.25c-.21-6.96-1.18-13.92-2.13-20.81-1.02-6.27-.98-14.23-7.22-17.75-5.06-2.89-10.8-4.1-16.28-5.76-3.48-.99-6.45-1.77-10.23-2.53C111.19,1.79,97.89.15,84.44,0h-.36c-17.18.51-35.17,3.41-51.53,8.4-12.77,5.23-12.78,5.48-12.77,5.48.54-.16,11.72-4.31,12.69-4.61,14.87-4.54,34.03-6.71,48.15-7.44,12.66-.28,25.22.91,37.75,3.04,8.15,1.72,30.43,5.4,34.86,12.14,2.83,4.84,2.79,10.56,3.8,16.02,1.72,10.64,1.69,22.11,1.6,33.09-.36,24.03-7.69,48.46-23.37,67.01-6.98,8.49-16.16,15.32-25.32,21.06-2.03,1.27-4.02,2.43-6.02,3.52-4.14,2.26-8.33,4.15-13.09,5.7-19.06,6.21-.79,1.99,2.56.59,22.28-8.54,42.39-23.98,53.62-45.27,11.53-20.38,14.22-44.39,13.38-67.49Z" style="fill:#bcbcbd;"/><path d="M474.52,70.92l-8.8-19.37-9.39-20.54-5.58-12.33h-7.92l-.29.29-2.05,4.11-3.23,7.04-2.64,5.87-3.23,7.04-5.28,11.44-3.81,8.51-2.64,5.87-2.05,4.11-.29,1.47,2.35.29h6.75l1.17-1.17,4.7-10.86.59-1.47h27.88l.59,1.76,3.81,9.1,1.17,2.35,2.05.29h7.63v-.88l-1.47-2.93h-.02ZM456.91,53.6h-20.54l.29-1.76,3.81-8.51,4.4-9.98,1.47-3.23h.59l1.76,3.52,2.64,6.16,4.99,11.15.59,1.47v1.17h0Z" style="fill:#30a8e4;"/><path d="M588.06,49.12c-.21-.58-.91-3.42-1.16-4.01-.68-1.28-1.67-3.03-2.35-4.11-.86-.94-2.38-2.42-3.14-3.15-.85-.63-2.8-1.66-3.48-2.06-.29-.14-.56-.17-1.24-.32-1.83-.31-3.54-.88-4.95-.93-.49,0-1.44,0-1.94,0-1.18.02-3.52.7-4.38.83-.53.14-.97.36-1.52.58-1.31.6-1.87.64-2.92,1.41-1.64,1.18-3.17,1.97-4.29,3.53-.62.66-.78,1.65-1.47,2.07-.63.86-1.39,2.92-1.84,3.75-.55,1.32-.92,3.78-1.26,4.97-.09.41-.12.74-.11,1.18,0,2.25-.06,3.52.29,5.73.23,1.33.08,2.06.72,3.35.55,1.25,1.25,3.07,1.79,4.2.43.46.92.91,1.25,1.52,1.18,1.68,2.84,3.07,4.55,4.33.82.66,1.81.86,2.82,1.31,1.99.84,5.07,1.43,7.1,1.67,1.94.09,3.91.12,5.85-.18,2.45-.49,4.83-1.4,7.14-2.35.84-.45,2.76-1.21,3.53-1.85.58-.69,0-1.18-.28-1.87-.24-1.09-.71-2.12-1.13-3.24-.28-1.06-.96-1.87-2.1-1.31-1.15.6-2.77,1.89-3.74,2.14-1,.22-3.19.64-3.92.78-1.52.09-3.95,0-5.63.03-.96-.01-1.09.05-1.75-.19-1.73-.48-3.12-1.47-4.19-2.94-.86-.87-1.26-2.44-1.77-3.53-.46-.95-.38-2.28-.52-3.29-.04-.48-.04-.6.06-.61,1.51-.05,24.16.07,25.97-.05.1-1.57.02-5.49.02-7.34v-.07ZM579.87,51.55c-3.34-.01-18.22.02-17.9,0,0-.64,0-3.43,0-3.51.05-.13.15-.29.21-.42.86-1.7,1.25-2.63,2.08-3.61.03-.14.45-.02.6-.12.09-.08.02-.42.06-.5.41-.38,1.29-.81,1.86-1.21.42-.23.3-.27.73-.35.95-.16.97-.26,1.76-.24,1.04,0,3.04,0,4.13,0,.53.16,2.26.71,2.72.92.56.6,1.58,1.5,2.12,2.18.24.43.95,1.28,1.11,1.79.12.53.49,1.47.53,1.99,0,.79.01,2.44,0,3.09h0Z" style="fill:#2b2d84;"/><path d="M485.38,63.58h2.47c3.2,0,8.38,0,8.38,0,.01,1.99,0,8.61,0,8.81,0,.05-.02.14-.03.19-.09.5-.22,1.8-.29,1.85-.06.05-.48.25-.54.28-1.47.02-8.32.02-10,.01,0,.25-.01-9.2,0-11.14h0Z" style="fill:#2f3387;"/><g id="g10"><g id="g12"><g style="clip-path:url(#clippath);"><g id="g14"><g id="g20"><path id="path22" d="M153.1,16.19C120.63,2.53,83.51,2.53,83.51,2.53c0,0-37.12,0-69.59,13.66-13.92,68.28,0,127.45,69.59,150.21,69.59-22.76,83.51-81.93,69.59-150.21" style="fill:#ccd6dd;"/></g><g id="g24"><path id="path26" d="M83.51,156.75C29.73,137.85,9.09,92.8,22.08,22.78c29.25-11,61.09-11.14,61.43-11.14s32.29.18,61.43,11.14c12.99,70.03-7.65,115.11-61.43,134.01" style="fill:#30a7e3;"/></g></g></g></g><g id="g28"><g style="clip-path:url(#clippath-1);"><g id="g30"><path id="path36" d="M153.1,157.3h-69.59V11.63h69.59v145.66h0Z" style="fill:#292a83;"/></g></g></g></g><path d="M563.67,161.56c-5.51-.48-11.32-4.14-14.36-8.67-9.12-13.58,1.01-31.56,17.2-31.01-.62.73-1.31,1.36-1.86,2.15-.28.4-1.18,2.24-1.29,2.32-.23.17-2.56.66-3.19.9-11.66,4.52-13.36,20.42-2.97,27.35,9.4,6.26,22.33.64,23.98-10.42,1.65-.52,2.8-1.77,4.14-2.71.2-.14.27-.39.55-.15v1.1c.21,9.56-7.93,18.7-17.79,19.13-1.43-.09-3,.12-4.41,0h0Z" style="fill:#34a8e0;"/><path d="M562.26,131.76c-.31.92.78,3.66.61,4.28-.08.28-1.08.82-1.4,1.13-6,5.71,3.07,15.11,9.14,8.63.25-.27.69-1.1.89-1.16.45-.15,3.48.96,4.3.61-2.57,7.59-12.61,9.46-17.95,3.38-4.89-5.57-2.61-14.5,4.41-16.86h0Z" style="fill:#34a8e0;"/><path d="M576.43,141.48c-.07-5.66-4.74-10.2-10.39-10.35-.38-.37.95-4.4,1.57-4.78.47-.28,2.84.42,3.46.63,5.53,1.91,9.76,7.1,10.32,12.94-1.51.86-3.17,1.67-4.96,1.56h0Z" style="fill:#292b81;"/><path d="M584.77,135.68c-1.71-5.42-5.74-9.78-10.92-12.1-.21-.09-2.14-.72-2-.91,7.31-2.93,14.66,2.58,13.84,10.41-.03.25-.63,2.83-.92,2.61h0Z" style="fill:#292b81;"/><path d="M572.18,140.85c-2.39-.92-4.69-2.98-5.35-5.49,2.75.57,4.99,2.64,5.35,5.49Z" style="fill:#292b82;"/><path d="M582.56,112.16c.48-.11.91-.28,1.33-.51v-2.07c-.42.2-.82.34-1.16.43-.34.08-.76.11-1.16.11-.82,0-1.47-.2-1.98-.6-.51-.4-.76-1.11-.76-2.1v-9.45h5.12v-2.13h-5.12v-4.88h-2.4v4.88h-2.26v2.13h2.26v9.79c0,.82.11,1.5.34,2.1.22.6.54,1.05.96,1.42.4.37.91.62,1.44.79.57.17,1.16.26,1.81.26.6,0,1.1-.06,1.58-.17ZM556.53,112.04h2.4v-9.28c0-.74.11-1.45.37-2.07.23-.62.57-1.16,1.02-1.62.42-.45.96-.79,1.55-1.02.59-.23,1.24-.37,1.92-.37,1.44,0,2.54.43,3.31,1.31.76.88,1.16,2.07,1.16,3.57v9.45h2.4v-10.07c0-.96-.14-1.84-.42-2.64-.28-.79-.68-1.48-1.22-2.04-.54-.57-1.19-1.02-1.92-1.33-.76-.31-1.64-.48-2.6-.48-1.39,0-2.54.31-3.42.94-.88.62-1.58,1.36-2.12,2.24v-2.81h-2.4v16.23h-.03ZM552.06,104.92c0-.2.03-.34.03-.48v-.37c0-1.19-.17-2.3-.51-3.35-.34-1.05-.82-1.96-1.47-2.72-.65-.77-1.44-1.39-2.37-1.84-.93-.45-2.01-.68-3.19-.68s-2.18.23-3.11.65c-.93.43-1.75,1.05-2.46,1.82-.68.77-1.22,1.67-1.61,2.7-.4,1.02-.57,2.13-.57,3.32s.23,2.41.65,3.46c.42,1.05,1.02,1.93,1.72,2.7.74.74,1.58,1.33,2.57,1.73.99.4,2.04.62,3.14.62,1.53,0,2.83-.28,3.87-.82,1.05-.57,1.98-1.28,2.77-2.21l-1.5-1.36c-.68.68-1.41,1.25-2.2,1.67-.79.43-1.75.62-2.88.62-.71,0-1.39-.11-2.03-.37-.65-.23-1.24-.6-1.75-1.05-.51-.45-.93-1.02-1.27-1.7-.34-.68-.54-1.45-.62-2.3h12.81v-.03ZM539.25,102.96c.09-.77.28-1.48.57-2.16.31-.68.68-1.25,1.13-1.73s.99-.88,1.58-1.14c.59-.26,1.24-.4,1.92-.4.79,0,1.5.14,2.12.43.62.28,1.13.68,1.55,1.19.42.51.76,1.08,1.02,1.73.25.65.4,1.36.48,2.07h-10.4.03ZM507.94,112.04h2.4v-9.22c0-.74.11-1.45.34-2.04.23-.62.54-1.16.96-1.62.39-.45.88-.82,1.41-1.08.54-.26,1.13-.37,1.78-.37,1.3,0,2.32.43,3.05,1.28.73.85,1.1,2.01,1.1,3.55v9.5h2.37v-9.33c0-.79.11-1.5.37-2.13.23-.62.57-1.16.96-1.59.4-.43.88-.74,1.41-.96.54-.23,1.1-.34,1.72-.34,1.3,0,2.35.43,3.08,1.28.74.85,1.1,2.04,1.1,3.6v9.45h2.4v-10.04c0-2.01-.54-3.63-1.58-4.79-1.08-1.16-2.54-1.73-4.41-1.73-.71,0-1.36.09-1.92.26-.57.17-1.07.4-1.55.68-.45.28-.88.65-1.24,1.02-.37.4-.68.82-.99,1.25-.43-.91-1.08-1.67-1.95-2.3-.85-.62-1.92-.94-3.25-.94-.68,0-1.3.09-1.81.26-.51.17-.99.4-1.41.68-.43.28-.79.62-1.1.99-.31.37-.62.77-.91,1.16v-2.72h-2.4v16.23l.06.03ZM503.47,104.92c0-.2.03-.34.03-.48v-.37c0-1.19-.17-2.3-.51-3.35-.34-1.05-.82-1.96-1.47-2.72-.65-.77-1.44-1.39-2.37-1.84-.93-.45-2-.68-3.19-.68s-2.15.23-3.11.65c-.96.43-1.75,1.05-2.46,1.82-.68.77-1.22,1.67-1.61,2.7-.4,1.02-.57,2.13-.57,3.32s.2,2.41.65,3.46c.43,1.05,1.02,1.93,1.72,2.7.74.74,1.58,1.33,2.57,1.73.99.4,2.03.62,3.14.62,1.53,0,2.83-.28,3.87-.82,1.05-.57,1.98-1.28,2.77-2.21l-1.5-1.36c-.68.68-1.41,1.25-2.2,1.67-.79.43-1.75.62-2.88.62-.71,0-1.39-.11-2.03-.37-.65-.23-1.22-.6-1.75-1.05-.51-.45-.93-1.02-1.27-1.7-.34-.68-.54-1.45-.62-2.3h12.8v-.03ZM490.67,102.96c.08-.77.28-1.48.56-2.16.31-.68.68-1.25,1.13-1.73s.99-.88,1.58-1.14c.6-.26,1.25-.4,1.95-.4.79,0,1.5.14,2.12.43.62.28,1.13.68,1.55,1.19.42.51.76,1.08,1.02,1.73.26.65.4,1.36.48,2.07h-10.4ZM478.96,116.58c1.05-.34,1.92-.91,2.66-1.62.68-.68,1.19-1.48,1.53-2.44.34-.96.54-2.07.54-3.32v-13.39h-2.4v2.92c-.34-.45-.71-.85-1.13-1.25-.43-.4-.88-.74-1.39-1.02-.51-.28-1.08-.54-1.72-.71-.65-.17-1.33-.26-2.09-.26-.96,0-1.89.17-2.83.54-.91.34-1.72.85-2.43,1.53-.71.68-1.27,1.45-1.7,2.41-.42.94-.65,2.01-.65,3.21v.06c0,1.16.2,2.21.65,3.15.43.94.99,1.73,1.7,2.38.71.65,1.53,1.16,2.43,1.53.9.34,1.84.54,2.83.54,1.47,0,2.74-.34,3.76-.99,1.02-.68,1.89-1.48,2.6-2.41v1.9c0,1.9-.54,3.35-1.58,4.31-1.07.96-2.49,1.48-4.3,1.48-1.16,0-2.26-.17-3.28-.54-1.02-.37-2.01-.88-2.94-1.53l-1.1,1.87c1.08.77,2.23,1.33,3.48,1.7,1.22.37,2.52.57,3.87.57s2.46-.17,3.51-.54M473.28,108.24c-.68-.26-1.27-.65-1.78-1.13-.51-.48-.93-1.05-1.22-1.73-.31-.68-.45-1.42-.45-2.24v-.06c0-.82.14-1.59.42-2.27s.71-1.25,1.22-1.7c.51-.48,1.1-.82,1.78-1.11.68-.26,1.41-.4,2.18-.4s1.53.14,2.23.4c.71.26,1.33.62,1.89,1.11.54.48.99,1.05,1.33,1.73.34.68.51,1.42.51,2.27v.06c0,.82-.17,1.56-.51,2.24-.34.68-.79,1.25-1.33,1.73-.56.48-1.19.88-1.89,1.13-.71.26-1.44.4-2.23.4s-1.47-.14-2.15-.4M458.47,111.56c.96-.54,1.7-1.19,2.26-1.93v2.41h2.37v-9.9c0-2.04-.57-3.63-1.7-4.77-1.19-1.19-2.94-1.79-5.23-1.79-1.19,0-2.23.14-3.17.37-.91.26-1.81.6-2.71,1.02l.71,1.99c.76-.34,1.53-.65,2.29-.85.79-.2,1.64-.31,2.6-.31,1.53,0,2.68.37,3.53,1.11.82.74,1.24,1.82,1.24,3.26v.51c-.74-.2-1.47-.37-2.23-.51-.76-.14-1.67-.2-2.71-.2s-1.95.11-2.8.34c-.85.23-1.58.57-2.17.99-.62.43-1.1.99-1.41,1.65-.34.65-.51,1.42-.51,2.3v.06c0,.85.17,1.56.51,2.18.34.62.79,1.16,1.36,1.59.57.43,1.22.74,1.92.96.74.2,1.47.31,2.23.31,1.41,0,2.6-.28,3.53-.82M453.89,110.2c-.48-.14-.91-.34-1.3-.62-.37-.28-.68-.6-.88-1.02-.22-.4-.34-.85-.34-1.36v-.06c0-.96.39-1.76,1.22-2.35.82-.6,1.98-.88,3.48-.88.99,0,1.86.06,2.66.23.76.14,1.44.31,2.06.48v1.5c0,.65-.14,1.22-.42,1.76-.28.54-.65.99-1.16,1.36-.48.4-1.05.68-1.7.88-.65.2-1.33.31-2.09.31-.54,0-1.05-.06-1.53-.23ZM430.74,112.04h2.4v-9.28c0-.74.11-1.45.37-2.07.23-.62.57-1.16,1.02-1.62.42-.45.96-.79,1.55-1.02.59-.23,1.24-.37,1.92-.37,1.44,0,2.54.43,3.31,1.31.77.88,1.16,2.07,1.16,3.57v9.45h2.4v-10.07c0-.96-.14-1.84-.42-2.64s-.68-1.48-1.22-2.04c-.54-.57-1.19-1.02-1.92-1.33-.76-.31-1.64-.48-2.6-.48-1.39,0-2.54.31-3.39.94-.88.62-1.58,1.36-2.12,2.24v-2.81h-2.4v16.23h-.06ZM420.82,111.56c.96-.54,1.7-1.19,2.26-1.93v2.41h2.37v-9.9c0-2.04-.57-3.63-1.7-4.77-1.19-1.19-2.94-1.79-5.23-1.79-1.19,0-2.23.14-3.17.37-.9.26-1.84.6-2.71,1.02l.74,1.99c.74-.34,1.53-.65,2.29-.85.79-.2,1.64-.31,2.6-.31,1.53,0,2.68.37,3.53,1.11.82.74,1.24,1.82,1.24,3.26v.51c-.73-.2-1.47-.37-2.23-.51-.76-.14-1.67-.2-2.71-.2s-1.95.11-2.8.34c-.85.23-1.58.57-2.17.99-.62.43-1.1.99-1.41,1.65-.34.65-.51,1.42-.51,2.3v.06c0,.85.17,1.56.51,2.18.34.62.79,1.16,1.36,1.59.57.43,1.22.74,1.95.96.73.2,1.47.31,2.2.31,1.41,0,2.6-.28,3.53-.82M416.21,110.2c-.48-.14-.91-.34-1.3-.62-.37-.28-.68-.6-.88-1.02-.2-.43-.34-.85-.34-1.36v-.06c0-.96.39-1.76,1.22-2.35.82-.6,1.98-.88,3.48-.88.99,0,1.86.06,2.66.23.76.14,1.44.31,2.06.48v1.5c0,.65-.14,1.22-.42,1.76-.28.54-.65.99-1.16,1.36-.48.4-1.05.68-1.7.88-.65.2-1.33.31-2.09.31-.54,0-1.05-.06-1.55-.23M385.4,112.04h2.4v-17.76l7.97,11.72h.11l7.97-11.77v17.79h2.46v-21.96h-2.49l-7.97,11.97-7.97-11.97h-2.49v21.99ZM361.43,112.04h2.4v-4.23l3.28-3.32,5.77,7.55h2.88l-7.01-9.25,6.78-6.95h-3l-8.73,9.14v-15.8h-2.4v22.9l.03-.03ZM353.43,112.04c.71-.23,1.3-.54,1.81-.96.51-.43.91-.94,1.22-1.53s.45-1.28.45-2.04v-.06c0-.74-.14-1.36-.45-1.84-.31-.51-.71-.94-1.22-1.28-.51-.34-1.05-.65-1.67-.88-.62-.23-1.24-.43-1.86-.62-.54-.17-1.08-.34-1.55-.51-.51-.17-.93-.34-1.33-.57-.4-.2-.68-.45-.93-.74-.23-.28-.34-.62-.34-.99v-.06c0-.68.28-1.22.85-1.67.56-.45,1.33-.68,2.29-.68.79,0,1.61.14,2.43.43.82.28,1.61.65,2.35,1.14l1.1-1.82c-.82-.54-1.75-.96-2.77-1.31-1.02-.31-2.03-.48-3.02-.48-.79,0-1.53.11-2.21.34-.68.23-1.27.54-1.75.94-.48.4-.88.91-1.13,1.48-.28.57-.4,1.22-.4,1.9v.06c0,.77.17,1.39.48,1.87.31.51.74.91,1.24,1.25.51.34,1.07.62,1.72.82.62.23,1.27.43,1.89.62.51.14,1.02.31,1.53.48.48.17.93.37,1.3.57.37.23.68.48.91.77.23.28.34.65.34,1.02v.06c0,.79-.31,1.42-.94,1.87-.62.45-1.44.68-2.4.68s-1.92-.17-2.86-.54c-.93-.34-1.86-.88-2.74-1.53l-1.22,1.73c.91.74,1.98,1.31,3.17,1.73,1.19.43,2.37.65,3.53.65.82,0,1.55-.11,2.26-.34M337.74,92.3h2.74v-2.67h-2.74v2.67ZM337.91,112.04h2.4v-16.23h-2.4v16.23ZM315.53,112.04h2.46v-8.54h6.25l6.36,8.54h3.03l-6.73-8.97c.85-.14,1.64-.4,2.37-.74.74-.34,1.36-.79,1.89-1.31.54-.54.93-1.16,1.25-1.87.28-.74.42-1.53.42-2.47v-.06c0-.88-.14-1.67-.42-2.41-.28-.74-.71-1.36-1.25-1.9-.68-.68-1.55-1.22-2.6-1.62s-2.26-.57-3.62-.57h-9.41v21.96-.06ZM318.01,101.29v-8.91h6.76c1.78,0,3.16.4,4.13,1.13.99.77,1.47,1.82,1.47,3.18v.06c0,.71-.14,1.33-.42,1.9-.28.54-.68,1.02-1.19,1.42-.51.4-1.1.68-1.78.91-.68.2-1.44.31-2.26.31h-6.73.03ZM296.45,116.13c.85-.68,1.61-1.87,2.29-3.55l6.78-16.74h-2.57l-5.17,13.51-5.88-13.51h-2.66l7.35,16.14c-.48,1.16-.96,1.96-1.47,2.38-.51.45-1.13.65-1.84.65-.51,0-.96-.06-1.36-.14-.4-.09-.79-.26-1.19-.45l-.82,1.9c.54.28,1.08.48,1.61.62.54.14,1.16.2,1.81.2,1.22,0,2.23-.34,3.08-1.02M284.77,112.16c.48-.11.91-.28,1.33-.51v-2.07c-.42.2-.82.34-1.19.43-.37.08-.76.11-1.16.11-.82,0-1.47-.2-1.98-.6-.51-.4-.74-1.11-.74-2.1v-9.45h5.11v-2.13h-5.11v-4.88h-2.4v4.88h-2.26v2.13h2.26v9.79c0,.82.11,1.5.34,2.1s.54,1.05.96,1.42c.4.37.9.62,1.44.79.54.17,1.16.26,1.81.26.59,0,1.1-.06,1.58-.17ZM269.9,92.3h2.74v-2.67h-2.74v2.67ZM270.05,112.04h2.4v-16.23h-2.4v16.23ZM257.33,112.04h2.4v-6.47c0-1.22.17-2.3.51-3.21.34-.94.79-1.7,1.39-2.33.59-.62,1.27-1.11,2.03-1.42.79-.31,1.61-.48,2.49-.48h.2v-2.61c-.76,0-1.5.09-2.15.28-.68.2-1.27.51-1.84.94-.56.4-1.07.91-1.5,1.48-.43.57-.79,1.19-1.1,1.84v-4.23h-2.4v16.23l-.03-.03ZM247.35,111.48c.88-.62,1.58-1.36,2.12-2.24v2.84h2.37v-16.23h-2.37v9.28c0,.74-.11,1.45-.37,2.07-.25.62-.59,1.16-1.02,1.62-.42.45-.93.79-1.53,1.02-.59.26-1.24.37-1.92.37-1.44,0-2.54-.45-3.31-1.31-.76-.88-1.16-2.07-1.16-3.57v-9.45h-2.4v10.07c0,.96.14,1.84.42,2.64.28.79.68,1.48,1.22,2.04.54.57,1.19,1.02,1.95,1.33.76.31,1.64.48,2.6.48,1.39,0,2.54-.31,3.42-.94M231.38,111.53c1.02-.6,1.95-1.33,2.77-2.27l-1.53-1.45c-.65.68-1.39,1.28-2.18,1.73-.79.45-1.72.68-2.77.68-.85,0-1.64-.17-2.35-.48-.71-.31-1.33-.77-1.87-1.36-.54-.57-.96-1.25-1.24-2.01-.31-.77-.45-1.59-.45-2.47v-.06c0-.88.14-1.7.42-2.47.28-.77.71-1.42,1.22-1.99.51-.57,1.13-1.02,1.84-1.33.71-.31,1.47-.48,2.29-.48,1.1,0,2.04.23,2.8.71.76.48,1.47,1.05,2.12,1.73l1.58-1.7c-.37-.4-.79-.77-1.22-1.13-.42-.37-.9-.65-1.44-.94-.51-.26-1.1-.45-1.72-.62-.62-.14-1.33-.23-2.09-.23-1.19,0-2.29.23-3.31.68-1.02.45-1.89,1.08-2.63,1.84-.74.77-1.33,1.67-1.72,2.7-.42,1.02-.62,2.13-.62,3.26v.06c0,1.13.2,2.21.62,3.23.42,1.02.99,1.93,1.72,2.67.73.77,1.61,1.36,2.63,1.82,1.02.45,2.12.68,3.31.68,1.53,0,2.8-.28,3.82-.88M215.77,104.92c0-.2.03-.34.03-.48v-.37c0-1.19-.17-2.3-.51-3.35-.34-1.05-.82-1.96-1.47-2.72-.65-.77-1.44-1.39-2.37-1.84-.93-.45-2.01-.68-3.19-.68s-2.15.23-3.11.65c-.96.43-1.75,1.05-2.46,1.82-.68.77-1.22,1.67-1.61,2.7-.4,1.02-.57,2.13-.57,3.32s.23,2.41.65,3.46c.42,1.05.99,1.93,1.72,2.7.74.74,1.58,1.33,2.57,1.73.99.4,2.04.62,3.14.62,1.55,0,2.83-.28,3.87-.82,1.05-.57,1.98-1.28,2.77-2.21l-1.5-1.36c-.68.68-1.41,1.25-2.2,1.67-.79.43-1.75.62-2.88.62-.71,0-1.38-.11-2.04-.37-.65-.23-1.24-.6-1.75-1.05-.51-.45-.96-1.02-1.27-1.7-.34-.68-.54-1.45-.62-2.3h12.8v-.03ZM202.94,102.96c.08-.77.28-1.48.59-2.16s.68-1.25,1.13-1.73c.45-.48.99-.88,1.58-1.14.59-.26,1.24-.4,1.95-.4.79,0,1.5.14,2.12.43.62.28,1.13.68,1.55,1.19.42.51.76,1.08,1.02,1.73.25.65.4,1.36.48,2.07h-10.43ZM192.26,111.93c.9-.28,1.7-.71,2.35-1.25.65-.54,1.16-1.19,1.53-1.96.37-.77.57-1.62.57-2.55v-.06c0-1.67-.59-2.98-1.72-3.94-1.16-.96-2.94-1.7-5.4-2.27-1.22-.26-2.2-.51-2.97-.79-.76-.28-1.39-.6-1.81-.94-.42-.34-.74-.71-.9-1.14-.17-.4-.25-.88-.25-1.39v-.06c0-.99.42-1.84,1.24-2.53.82-.68,1.98-1.02,3.42-1.02,1.13,0,2.2.2,3.22.57,1.05.37,2.06.99,3.08,1.82l1.44-1.9c-1.13-.91-2.29-1.56-3.48-2.01-1.19-.45-2.6-.68-4.21-.68-1.05,0-2.01.14-2.88.45-.88.31-1.64.71-2.29,1.25-.65.54-1.16,1.16-1.5,1.9-.34.74-.54,1.53-.54,2.38v.06c0,.91.14,1.67.45,2.35.28.68.73,1.25,1.36,1.76.59.51,1.38.94,2.29,1.28.93.34,2.04.68,3.28.94,1.16.26,2.09.51,2.83.79.73.28,1.33.57,1.72.91.42.34.71.71.88,1.11.17.4.25.85.25,1.36v.06c0,1.08-.45,1.99-1.33,2.67-.88.71-2.06,1.05-3.53,1.05s-2.85-.26-4.04-.77c-1.16-.51-2.32-1.31-3.48-2.33l-1.53,1.82c1.3,1.19,2.69,2.07,4.13,2.64,1.44.57,3.05.85,4.81.85,1.07,0,2.09-.14,3-.45" style="stroke:#000; stroke-miterlimit:10;"/><text transform="translate(388.08 146.86)" style="fill:#48474b; font-family:Montserrat-SemiBold, Montserrat; font-size:24px; font-variation-settings:&apos;wght&apos; 600; font-weight:600;"><tspan x="0" y="0" style="letter-spacing:-.01em;">P</tspan><tspan x="17.14" y="0" style="letter-spacing:-.01em;">ow</tspan><tspan x="53.95" y="0">e</tspan><tspan x="68.88" y="0" style="letter-spacing:-.01em;">r</tspan><tspan x="78.72" y="0">ed </tspan><tspan x="116.76" y="0" style="letter-spacing:-.01em;">b</tspan><tspan x="132.86" y="0">y</tspan></text></svg>