<?xml version="1.0" encoding="UTF-8"?><svg id="Layer_1" xmlns="http://www.w3.org/2000/svg" width="221" height="57" xmlns:xlink="http://www.w3.org/1999/xlink" viewBox="0 0 221 57"><defs><clipPath id="clippath"><rect y=".9" width="62.8" height="56" fill="none"/></clipPath><clipPath id="clippath-1"><path d="M8.3,7.8c-4.9,23.9,2.9,39.4,23.1,45.8,20.2-6.5,28-21.9,23.1-45.8-11-3.7-23-3.8-23.1-3.8s-12.1,0-23.1,3.8Z" fill="none"/></clipPath></defs><path d="M134.1,6.4h2.8l1.3,2.3,1.1,1.9,1.9,3.2,1.4,2.5,1.3,2.2.3.3,1.3-2.3,1.4-2.5,1.1-1.9,1-1.6.9-1.6,1.3-2.2.2-.3h2.9v19.2h-3.3l-.1-.6v-11.8h-.2l-.2.5-.9,1.6-1.7,2.8-1.3,2.2-1.2,2-.2.2h-2.1l-.6-.5-1.3-2.3-1.4-2.3-1.4-2.4-.9-1.4-.2-.3v12.2h-3.4V6.5h.2v-.1Z" fill="#30a8e4"/><path d="M86.9,6.4h13.9v2.4h-10.2v5.5h9.7v2.5h-9.7v6h10.3v2.5h-14V6.5h.1l-.1-.1Z" fill="#30a8e4"/><path d="M73.5,6.3c1.8,0,3.5-.1,5.3.4,1,.3,4.1,1,3.6,2.3-.3.8-.7,1.8-1.6,1.4-1.6-.8-3.1-1.5-4.9-1.5-1.1,0-2.2,0-3.2.3-1.2.4-2.2,1.7-1.8,2.9.5,1.7,2.9,1.9,4.5,2.3,1.8.4,3.8.9,5.5,1.8,2.8,1.3,3.1,4.8,1.2,6.9-1.3,1.4-3.3,2.1-5.3,2.4-2.2.3-4.7,0-6.9-.6-1.1-.4-3.5-.8-2.8-2.3.3-.8.8-1.4,1.6-1,1.4.6,3,1.3,4.5,1.3,1.9,0,4.5.3,5.8-1.3,1.8-2.8-2.4-3.6-4.7-4.1-1.9-.4-3.9-.9-5.5-2-2.5-1.7-2.3-5.2-.3-7.1,1.2-1.2,3.2-1.9,4.9-2.1h.1Z" fill="#30a8e4"/><path d="M125.6,6.4h3.7v19.1h-3.9V6.5h.1l.1-.1Z" fill="#30a8e4"/><path d="M204.8,16.4c-1.1-3.7-4.9-5.5-8.8-4-.6.3-1.2.7-1.7,1.3-.2.2-.3.3-.4.3h0v-7.4c0-.1-.2-.1-.3-.1h-2.9q-.3,0-.4.1v18.7c.2.2.5.2.7.3h2.6c.4-.2.3-.6.3-1,0-.2,0-.8.2-.8.1,0,.5.5.8.8,2.7,2.1,6.8,1.3,8.8-1.3,1.4-1.9,1.6-4.4,1.1-6.6h0v-.3ZM201.4,20.3s-.3.7-.3.8c-.2.3-.4.6-.6.9-.2.2-.6.6-.8.8-.2,0-.6.3-.6.3h-2.5c-.7-.3-1.3-.5-1.7-1-.2-.4-.6-.8-.7-1.2,0-.1-.1-.4-.2-.5v-3.3c0-.2.2-.5.3-.8,0-.2,0-.3.3-.3,0,0,0-.2.1-.2h.2c.1,0,.1-.4.3-.5.3-.1.9-.5,1.2-.7h2.6c.3.2.9.4,1.2.6.3.1.5.5.8.7.2.2.4.7.5.9,0,.2.2.4.2.7v3.1h0l-.3-.3Z" fill="#2a2d85"/><path d="M121.1,23.7l-1.3-2.3-1.3-2.2-.8-.9-1-.7-.4-.3,1.5-.5,1.1-.6,1.1-1,.7-.9.4-1.3v-2.3l-.2-.7-.7-1.2-.8-.8-1-.7-1.3-.5-2.4-.4h-10.1v.2c-.1,0-.1,18.9-.1,18.9h3.7v-7.9h4l.7.2.9.5.4.5.9,1.4,1.3,2.2,1.5,2.8.6.3h3.6v-.3l-1-1.5h0ZM114.5,15.1h-6.3v-6.1h6.1l1.8.4.7.4.7.7.2.6v1.9l-.4.9-.6.6-.9.4-1.2.3h0l-.1-.1Z" fill="#30a8e4"/><path d="M51.2,45.4c5.9-6.3,8.6-14.7,8.8-22.9,0-3.8,0-7.7-.6-11.3-.4-1.9-.4-3.8-1.4-5.5-1.7-2.3-10-3.6-13.1-4.2-4.7-.7-9.4-1.1-14.2-1-3.7.2-8.4.7-12.8,1.4-2.5.4-4.9,1.1-7,1.5-.9.3-1.7.6-2.6,1-1.4.5.2.7,1.1.5,7.7-1.7,14.8-3.9,22.8-3.7,7.7.4,15.4,1.4,22.6,4,.8.3,1.4.6,1.7,1.3.3.9.5,2.1.7,3.1.3,2,.7,4.2.9,6.1.7,8.4-.2,17.1-4.4,24.7-2.5,4.5-6.1,8.3-10.6,11.3-.9.6-1.8,1.1-2.7,1.7-.3.2-.6.4-.8.5.8-.4,1.5-.8,2.3-1.2,3.4-2,6.9-4.3,9.5-7.2h0l-.2-.1Z" fill="#8d8c91"/><path d="M60.3,17.5c0-2.4-.4-4.8-.8-7.1-.4-2.1-.4-4.9-2.7-6.1-1.9-1-4.1-1.4-6.1-2-1.3-.3-2.4-.6-3.8-.9C41.9.5,36.9-.1,31.8-.1h-.1c-6.5.2-13.2,1.2-19.4,2.9-4.8,1.8-4.8,1.9-4.8,1.9.2,0,4.4-1.5,4.8-1.6C17.8,1.6,25,.9,30.3.6c4.8,0,9.5.3,14.2,1,3.1.6,11.4,1.8,13.1,4.2,1.1,1.7,1,3.6,1.4,5.5.6,3.6.6,7.6.6,11.3-.1,8.2-2.9,16.6-8.8,22.9-2.6,2.9-6.1,5.2-9.5,7.2-.8.4-1.5.8-2.3,1.2-1.6.8-3.1,1.4-4.9,1.9-7.2,2.1-.3.7,1,.2,8.4-2.9,15.9-8.2,20.1-15.5,4.3-7,5.3-15.2,5-23.1h0l.1.1Z" fill="#bcbcbd"/><path d="M178.3,24.2l-3.3-6.6-3.5-7-2.1-4.2h-3.1l-.8,1.5-1.2,2.4-1,2-1.2,2.4-2,3.9-1.4,2.9-1,2-.8,1.4v.5c-.1,0,.8,0,.8,0h2.5l.4-.4,1.8-3.7.2-.5h10.5l.2.6,1.4,3.1.4.8h3.7v-.3l-.6-1h0l.1.2ZM171.7,18.3h-7.7v-.6c.1,0,1.5-2.9,1.5-2.9l1.7-3.4.6-1.1h.2l.7,1.2,1,2.1,1.9,3.8.2.5v.4h-.1Z" fill="#30a8e4"/><path d="M221,16.8c0-.2-.3-1.2-.4-1.4-.3-.4-.6-1-.9-1.4-.3-.3-.9-.8-1.2-1.1-.3-.2-1.1-.6-1.3-.7-.1,0-.2,0-.5-.1-.7-.1-1.3-.3-1.9-.3h-.7c-.4,0-1.3.2-1.6.3-.2,0-.4.1-.6.2-.5.2-.7.2-1.1.5-.6.4-1.2.7-1.6,1.2-.2.2-.3.6-.6.7-.2.3-.5,1-.7,1.3-.2.5-.3,1.3-.5,1.7v.4c0,.8,0,1.2.1,2,0,.5,0,.7.3,1.1.2.4.5,1,.7,1.4.2.2.3.3.5.5.4.6,1.1,1,1.7,1.5.3.2.7.3,1.1.4.7.3,1.9.5,2.7.6h2.2c.9-.2,1.8-.5,2.7-.8.3-.2,1-.4,1.3-.6.2-.2,0-.4-.1-.6,0-.4-.3-.7-.4-1.1-.1-.4-.4-.6-.8-.4-.4.2-1,.6-1.4.7-.4,0-1.2.2-1.5.3h-2.8c-.7-.2-1.2-.5-1.6-1-.3-.3-.5-.8-.7-1.2-.2-.3-.1-.8-.2-1.1v-.2h9.8v-2.5h0v-.3ZM217.9,17.6c-1.3,0-6.8,0-6.7,0v-1.3c.3-.6.5-.9.8-1.2h.2v-.2c.2-.1.5-.3.7-.4.2,0,.1,0,.3-.1h2.3c.2,0,.8.2,1,.3.2.2.6.5.8.7,0,.1.4.4.4.6s.2.5.2.7v1.1h0v-.2Z" fill="#2b2d84"/><path d="M182.4,21.7h4.1v3c0,.1,0,0,0,0,0,.2,0,.6-.1.6h-4v-3.8h0v.2Z" fill="#2f3387"/><g id="g10"><g id="g12"><g clip-path="url(#clippath)"><g id="g14"><g id="g20"><path id="path22" d="M57.5,5.5C45.3.9,31.4.9,31.4.9c0,0-13.9,0-26.2,4.7-5.2,23.3,0,43.5,26.2,51.3,26.2-7.8,31.4-28,26.2-51.4" fill="#ccd6dd"/></g><g id="g24"><path id="path26" d="M31.4,53.6C11.2,47.1,3.4,31.7,8.3,7.8c11-3.8,23-3.8,23.1-3.8s12.1,0,23.1,3.8c4.9,23.9-2.9,39.4-23.1,45.8" fill="#30a7e3"/></g></g></g></g><g id="g28"><g clip-path="url(#clippath-1)"><g id="g30"><path id="path36" d="M57.5,53.8h-26.2V4h26.2v49.8h0Z" fill="#292a83"/></g></g></g></g><path d="M211.8,55.2c-2.1-.2-4.3-1.4-5.4-3-3.4-4.6.4-10.8,6.5-10.6-.2.2-.5.5-.7.7-.1.1-.4.8-.5.8,0,0-1,.2-1.2.3-4.4,1.5-5,7-1.1,9.4,3.5,2.1,8.4.2,9-3.6.6-.2,1.1-.6,1.6-.9,0,0,.1-.1.2,0v.4c0,3.3-3,6.4-6.7,6.5h-1.7Z" fill="#34a8e0"/><path d="M211.3,45c-.1.3.3,1.3.2,1.5,0,0-.4.3-.5.4-2.3,2,1.2,5.2,3.4,3l.3-.4c.2,0,1.3.3,1.6.2-1,2.6-4.7,3.2-6.7,1.2-1.8-1.9-1-5,1.7-5.8h0v-.1Z" fill="#34a8e0"/><path d="M216.6,48.4c0-1.9-1.8-3.5-3.9-3.5-.1-.1.4-1.5.6-1.6.2,0,1.1.1,1.3.2,2.1.7,3.7,2.4,3.9,4.4-.6.3-1.2.6-1.9.5h0Z" fill="#292b81"/><path d="M219.7,46.4c-.6-1.9-2.2-3.3-4.1-4.1,0,0-.8-.2-.8-.3,2.7-1,5.5.9,5.2,3.6,0,0-.2,1-.3.9h0v-.1Z" fill="#292b81"/><path d="M215,48.2c-.9-.3-1.8-1-2-1.9,1,.2,1.9.9,2,1.9Z" fill="#292b82"/><path d="M218.9,38.3c.2,0,.3,0,.5-.2v-.7c-.2,0-.3.1-.4.1h-.4c-.3,0-.6,0-.7-.2s-.3-.4-.3-.7v-3.2h1.9v-.7h-1.9v-1.7h-.9v1.7h-.8v.7h.8v3.3c0,.3,0,.5.1.7,0,.2.2.4.4.5s.3.2.5.3h1.3l-.1.1ZM209.1,38.3h.9v-3.2c0-.3,0-.5.1-.7,0-.2.2-.4.4-.6.2-.2.4-.3.6-.3s.5-.1.7-.1c.5,0,1,.1,1.2.4.3.3.4.7.4,1.2v3.2h.9v-3.4c0-.3,0-.6-.2-.9-.1-.3-.3-.5-.5-.7s-.4-.3-.7-.5c-.3-.1-.6-.2-1-.2-.5,0-1,.1-1.3.3s-.6.5-.8.8v-1h-.9v5.5h0l.2.2ZM207.5,35.9v-.2h0c0-.5,0-.9-.2-1.3-.1-.4-.3-.7-.6-.9-.2-.3-.5-.5-.9-.6s-.8-.2-1.2-.2-.8,0-1.2.2c-.3.1-.7.4-.9.6-.3.3-.5.6-.6.9-.2.3-.2.7-.2,1.1s0,.8.2,1.2.4.7.6.9c.3.3.6.5,1,.6s.8.2,1.2.2,1.1,0,1.5-.3c.4-.2.7-.4,1-.8l-.6-.5c-.3.2-.5.4-.8.6-.3.1-.7.2-1.1.2s-.5,0-.8-.1c-.2,0-.5-.2-.7-.4s-.3-.3-.5-.6-.2-.5-.2-.8h4.8l.2.2ZM202.6,35.2c0-.3.1-.5.2-.7.1-.2.3-.4.4-.6s.4-.3.6-.4.5-.1.7-.1.6,0,.8.1c.2,0,.4.2.6.4s.3.4.4.6c0,.2.2.5.2.7h-3.9ZM190.9,38.3h.9v-3.2c0-.3,0-.5.1-.7,0-.2.2-.4.4-.6.1-.2.3-.3.5-.4.2,0,.4-.1.7-.1.5,0,.9.1,1.1.4s.4.7.4,1.2v3.2h.9v-3.2c0-.3,0-.5.1-.7,0-.2.2-.4.4-.5s.3-.3.5-.3.4-.1.6-.1c.5,0,.9.1,1.2.4.3.3.4.7.4,1.2v3.2h.9v-3.4c0-.7-.2-1.2-.6-1.6-.4-.4-1-.6-1.7-.6h-.7c-.2,0-.4.1-.6.2-.2,0-.3.2-.5.3-.1.1-.3.3-.4.4-.2-.3-.4-.6-.7-.8s-.7-.3-1.2-.3h-.7c-.2,0-.4.1-.5.2-.2,0-.3.2-.4.3-.1.1-.2.3-.3.4v-.9h-.9v5.5h0l.1.5ZM189.2,35.9v-.2h0c0-.5,0-.9-.2-1.3-.1-.4-.3-.7-.6-.9-.2-.3-.5-.5-.9-.6s-.8-.2-1.2-.2-.8,0-1.2.2c-.4.1-.7.4-.9.6-.3.3-.5.6-.6.9-.2.3-.2.7-.2,1.1s0,.8.2,1.2.4.7.6.9c.3.3.6.5,1,.6s.8.2,1.2.2,1.1,0,1.5-.3c.4-.2.7-.4,1-.8l-.6-.5c-.3.2-.5.4-.8.6-.3.1-.7.2-1.1.2s-.5,0-.8-.1c-.2,0-.5-.2-.7-.4s-.3-.3-.5-.6-.2-.5-.2-.8h4.8l.2.2ZM184.4,35.2c0-.3.1-.5.2-.7.1-.2.3-.4.4-.6s.4-.3.6-.4c.2,0,.5-.1.7-.1s.6,0,.8.1c.2,0,.4.2.6.4.2.2.3.4.4.6,0,.2.2.5.2.7h-3.9ZM180,39.9c.4-.1.7-.3,1-.6.3-.2.4-.5.6-.8s.2-.7.2-1.1v-4.6h-.9v1c-.1-.2-.3-.3-.4-.4-.2-.1-.3-.3-.5-.3s-.4-.2-.6-.2h-.8c-.3,0-.7,0-1.1.2-.3.1-.6.3-.9.5s-.5.5-.6.8c-.2.3-.2.7-.2,1.1h0c0,.4,0,.8.2,1.1s.4.6.6.8c.3.2.6.4.9.5.3.1.7.2,1.1.2.6,0,1-.1,1.4-.3s.7-.5,1-.8v.6c0,.6-.2,1.1-.6,1.5-.4.3-.9.5-1.6.5s-.8,0-1.2-.2-.8-.3-1.1-.5l-.4.6c.4.3.8.5,1.3.6s.9.2,1.5.2.9,0,1.3-.2M177.8,37c-.3,0-.5-.2-.7-.4s-.3-.4-.5-.6c-.1-.2-.2-.5-.2-.8h0c0-.3,0-.6.2-.8s.3-.4.5-.6c.2-.2.4-.3.7-.4.3,0,.5-.1.8-.1s.6,0,.8.1c.3,0,.5.2.7.4s.4.4.5.6.2.5.2.8h0c0,.3,0,.6-.2.8s-.3.4-.5.6c-.2.2-.4.3-.7.4-.3,0-.5.1-.8.1s-.6,0-.8-.1M172.3,38.1c.4-.2.6-.4.8-.7v.8h.9v-3.4c0-.7-.2-1.2-.6-1.6-.4-.4-1.1-.6-2-.6s-.8,0-1.2.1c-.3,0-.7.2-1,.3l.3.7c.3-.1.6-.2.9-.3.3,0,.6-.1,1-.1.6,0,1,.1,1.3.4.3.3.5.6.5,1.1v.2c-.3,0-.6-.1-.8-.2s-.6,0-1,0-.7,0-1.1.1c-.3,0-.6.2-.8.3s-.4.3-.5.6c-.1.2-.2.5-.2.8h0c0,.3,0,.6.2.8s.3.4.5.5.5.3.7.3c.3,0,.6.1.8.1.5,0,1,0,1.3-.3M170.6,37.7c-.2,0-.3-.1-.5-.2-.1,0-.3-.2-.3-.3s-.1-.3-.1-.5h0c0-.3.1-.6.5-.8.3-.2.7-.3,1.3-.3h1c.3,0,.5.1.8.2v.5c0,.2,0,.4-.2.6s-.2.3-.4.5c-.2.1-.4.2-.6.3-.2,0-.5.1-.8.1h-.6l-.1-.1ZM161.9,38.3h.9v-3.2c0-.3,0-.5.1-.7,0-.2.2-.4.4-.6.2-.2.4-.3.6-.3s.5-.1.7-.1c.5,0,1,.1,1.2.4s.4.7.4,1.2v3.2h.9v-3.4c0-.3,0-.6-.2-.9s-.3-.5-.5-.7-.4-.3-.7-.5c-.3-.1-.6-.2-1-.2-.5,0-1,.1-1.3.3s-.6.5-.8.8v-1h-.9v5.5h0l.2.2ZM158.1,38.1c.4-.2.6-.4.8-.7v.8h.9v-3.4c0-.7-.2-1.2-.6-1.6-.4-.4-1.1-.6-2-.6s-.8,0-1.2.1c-.3,0-.7.2-1,.3l.3.7c.3-.1.6-.2.9-.3.3,0,.6-.1,1-.1.6,0,1,.1,1.3.4.3.3.5.6.5,1.1v.2c-.3,0-.6-.1-.8-.2s-.6,0-1,0-.7,0-1.1.1c-.3,0-.6.2-.8.3s-.4.3-.5.6c-.1.2-.2.5-.2.8h0c0,.3,0,.6.2.8s.3.4.5.5.5.3.7.3c.3,0,.6.1.8.1.5,0,1,0,1.3-.3M156.4,37.7c-.2,0-.3-.1-.5-.2-.1,0-.3-.2-.3-.3s-.1-.3-.1-.5h0c0-.3.1-.6.5-.8.3-.2.7-.3,1.3-.3h1c.3,0,.5.1.8.2v.5c0,.2,0,.4-.2.6s-.2.3-.4.5c-.2.1-.4.2-.6.3-.2,0-.5.1-.8.1h-.6M144.8,38.3h.9v-6.1l3,4h0l3-4v6.1h.9v-7.5h-.9l-3,4.1-3-4.1h-.9v7.5h0ZM135.8,38.3h.9v-1.4l1.2-1.1,2.2,2.6h1.1l-2.6-3.2,2.5-2.4h-1.1l-3.3,3.1v-5.4h-.9v7.8h0ZM132.8,38.3c.3,0,.5-.2.7-.3s.3-.3.5-.5.2-.4.2-.7h0c0-.3,0-.5-.2-.6-.1-.2-.3-.3-.5-.4s-.4-.2-.6-.3c-.2,0-.5-.1-.7-.2-.2,0-.4-.1-.6-.2-.2,0-.3-.1-.5-.2-.2,0-.3-.2-.3-.3,0,0-.1-.2-.1-.3h0c0-.3.1-.4.3-.6.2-.2.5-.2.9-.2s.6,0,.9.1c.3,0,.6.2.9.4l.4-.6c-.3-.2-.7-.3-1-.4-.4-.1-.8-.2-1.1-.2s-.6,0-.8.1c-.3,0-.5.2-.7.3s-.3.3-.4.5c-.1.2-.2.4-.2.6h0c0,.3,0,.5.2.7.1.2.3.3.5.4.2.1.4.2.6.3.2,0,.5.1.7.2.2,0,.4.1.6.2.2,0,.3.1.5.2.1,0,.3.2.3.3,0,0,.1.2.1.3h0c0,.3-.1.5-.4.7-.2.2-.5.2-.9.2s-.7,0-1.1-.2c-.3-.1-.7-.3-1-.5l-.5.6c.3.3.7.4,1.2.6.4.1.9.2,1.3.2s.6,0,.8-.1M126.9,31.6h1v-.9h-1v.9ZM127,38.3h.9v-5.5h-.9v5.5ZM118.6,38.3h.9v-2.9h2.3l2.4,2.9h1.1l-2.5-3.1c.3,0,.6-.1.9-.3.3-.1.5-.3.7-.4.2-.2.3-.4.5-.6.1-.3.2-.5.2-.8h0c0-.3,0-.6-.2-.8-.1-.3-.3-.5-.5-.6-.3-.2-.6-.4-1-.6s-.8-.2-1.4-.2h-3.5v7.5h0l.1-.1ZM119.5,34.6v-3h2.5c.7,0,1.2.1,1.6.4.4.3.6.6.6,1.1h0c0,.3,0,.5-.2.7-.1.2-.3.3-.4.5s-.4.2-.7.3c-.3,0-.5.1-.8.1h-2.5l-.1-.1ZM111.4,39.7c.3-.2.6-.6.9-1.2l2.5-5.7h-1l-1.9,4.6-2.2-4.6h-1l2.8,5.5c-.2.4-.4.7-.6.8-.2.2-.4.2-.7.2h-.5c-.2,0-.3,0-.4-.2l-.3.6c.2,0,.4.2.6.2h.7c.5,0,.8-.1,1.2-.3M107,38.3c.2,0,.3,0,.5-.2v-.7c-.2,0-.3.1-.4.1h-.4c-.3,0-.6,0-.7-.2s-.3-.4-.3-.7v-3.2h1.9v-.7h-1.9v-1.7h-.9v1.7h-.8v.7h.8v3.3c0,.3,0,.5.1.7s.2.4.4.5c.2.1.3.2.5.3s.4,0,.7,0h.6l-.1.1ZM101.4,31.6h1v-.9h-1v.9ZM101.5,38.3h.9v-5.5h-.9v5.5ZM96.7,38.3h.9v-2.2c0-.4,0-.8.2-1.1.1-.3.3-.6.5-.8s.5-.4.8-.5.6-.2.9-.2h0v-.9h-.8c-.3,0-.5.2-.7.3s-.4.3-.6.5-.3.4-.4.6v-1.4h-.9v5.5h0l.1.2ZM92.9,38.1c.3-.2.6-.5.8-.8v1h.9v-5.5h-.9v3.2c0,.3,0,.5-.1.7,0,.2-.2.4-.4.6-.2.2-.3.3-.6.3-.2,0-.5.1-.7.1-.5,0-1-.2-1.2-.4-.3-.3-.4-.7-.4-1.2v-3.2h-.9v3.4c0,.3,0,.6.2.9.1.3.3.5.5.7s.4.3.7.5c.3.1.6.2,1,.2.5,0,1-.1,1.3-.3M86.9,38.1c.4-.2.7-.5,1-.8l-.6-.5c-.2.2-.5.4-.8.6-.3.2-.6.2-1,.2s-.6,0-.9-.2c-.3-.1-.5-.3-.7-.5s-.4-.4-.5-.7-.2-.5-.2-.8h0c0-.3,0-.6.2-.9.1-.3.3-.5.5-.7s.4-.3.7-.5c.3-.1.6-.2.9-.2s.8,0,1.1.2c.3.2.6.4.8.6l.6-.6c-.1-.1-.3-.3-.5-.4-.2-.1-.3-.2-.5-.3-.2,0-.4-.2-.6-.2h-.8c-.4,0-.9,0-1.2.2s-.7.4-1,.6c-.3.3-.5.6-.6.9-.2.3-.2.7-.2,1.1h0c0,.4,0,.8.2,1.1s.4.7.6.9c.3.3.6.5,1,.6.4.2.8.2,1.2.2s1.1,0,1.4-.3M81.1,35.9v-.2h0c0-.5,0-.9-.2-1.3-.1-.4-.3-.7-.6-.9-.2-.3-.5-.5-.9-.6s-.8-.2-1.2-.2-.8,0-1.2.2c-.4.1-.7.4-.9.6-.3.3-.5.6-.6.9-.2.3-.2.7-.2,1.1s0,.8.2,1.2.4.7.6.9c.3.3.6.5,1,.6s.8.2,1.2.2,1.1,0,1.5-.3c.4-.2.7-.4,1-.8l-.6-.5c-.3.2-.5.4-.8.6-.3.1-.7.2-1.1.2s-.5,0-.8-.1c-.2,0-.5-.2-.7-.4s-.4-.3-.5-.6c-.1-.2-.2-.5-.2-.8h4.8l.2.2ZM76.3,35.2c0-.3.1-.5.2-.7s.3-.4.4-.6c.2-.2.4-.3.6-.4s.5-.1.7-.1.6,0,.8.1c.2,0,.4.2.6.4s.3.4.4.6c0,.2.2.5.2.7h-3.9,0ZM72.2,38.3c.3,0,.6-.2.9-.4.2-.2.4-.4.6-.7s.2-.6.2-.9h0c0-.6-.2-1-.6-1.4-.4-.3-1.1-.6-2-.8-.5,0-.8-.2-1.1-.3-.3,0-.5-.2-.7-.3s-.3-.2-.3-.4v-.5h0c0-.4.2-.6.5-.9.3-.2.7-.3,1.3-.3s.8,0,1.2.2c.4.1.8.3,1.2.6l.5-.6c-.4-.3-.9-.5-1.3-.7s-1-.2-1.6-.2-.8,0-1.1.2c-.3.1-.6.2-.9.4s-.4.4-.6.6c-.2.2-.2.5-.2.8h0c0,.3,0,.6.2.8.1.2.3.4.5.6.2.2.5.3.9.4.3.1.8.2,1.2.3.4,0,.8.2,1.1.3.3,0,.5.2.6.3.2.1.3.2.3.4v.5h0c0,.4-.2.7-.5.9s-.8.4-1.3.4-1.1,0-1.5-.3c-.4-.2-.9-.4-1.3-.8l-.6.6c.5.4,1,.7,1.6.9s1.1.3,1.8.3.8,0,1.1-.2" stroke="#000" stroke-miterlimit="10" stroke-width=".4"/><g isolation="isolate"><g isolation="isolate"><path d="M146.3,50.2v-5.7h3c.6,0,1.1,0,1.5.3.4.2.8.4,1,.8.2.3.4.7.4,1.2s-.1.8-.4,1.1c-.2.3-.6.6-1,.8s-.9.3-1.5.3h-1.9l.9-.8v2.2h-2.1l.1-.2ZM148.5,48.2l-.9-.9h1.7c.3,0,.5,0,.7-.2.1-.1.2-.3.2-.5s0-.4-.2-.5c-.1-.1-.4-.2-.7-.2h-1.7l.9-.9v3.2Z" fill="#48474b"/></g><g isolation="isolate"><path d="M155.3,50.3c-.6,0-1.1,0-1.5-.3-.4-.2-.8-.5-1-.8-.2-.4-.4-.8-.4-1.2s.1-.9.4-1.2c.2-.4.6-.6,1-.8s.9-.3,1.5-.3,1.1,0,1.5.3c.4.2.8.5,1,.8s.4.8.4,1.2-.1.9-.4,1.2c-.2.3-.6.6-1,.8s-.9.3-1.5.3ZM155.3,48.8h.4c.1,0,.2-.2.3-.3s.1-.3.1-.5,0-.4-.1-.5-.2-.2-.3-.3h-.8c-.1,0-.2.2-.3.3,0,.1-.1.3-.1.5s0,.4.1.5c0,.1.2.2.3.3h.4Z" fill="#48474b"/><path d="M159.8,50.2l-1.7-4.5h1.9l1.3,3.6h-.9l1.4-3.6h1.7l1.3,3.6h-.9l1.3-3.6h1.8l-1.7,4.5h-2l-1-2.9h.6l-1.1,2.9h-2Z" fill="#48474b"/></g><g isolation="isolate"><path d="M169.3,50.3c-.6,0-1.1-.1-1.6-.3-.4-.2-.8-.5-1-.8-.2-.4-.4-.8-.4-1.2s.1-.9.4-1.2c.2-.4.6-.6,1-.8s.9-.3,1.4-.3.9,0,1.3.3c.4.2.7.4,1,.8.2.3.4.8.4,1.3s0,.1,0,.2v.2h-3.8v-.9h2.7l-.8.2c0-.2,0-.3-.1-.4,0-.1-.2-.2-.3-.3-.1,0-.3-.1-.4-.1s-.3,0-.4.1c-.1,0-.2.2-.3.3v.7c0,.2,0,.4.1.5s.2.2.4.3c.2,0,.3.1.6.1h.6c.1,0,.3-.1.5-.2l1.1,1c-.2.2-.5.4-.9.5s-.8.2-1.3.2l-.2-.2Z" fill="#48474b"/></g><g isolation="isolate"><path d="M172.2,50.2v-4.5h1.9v1.4l-.3-.4c.2-.3.4-.6.7-.8s.7-.3,1.2-.3v1.6h-.4c-.3,0-.6,0-.8.2-.2.1-.3.4-.3.8v2h-2,0Z" fill="#48474b"/></g><g isolation="isolate"><path d="M178.6,50.3c-.6,0-1.1-.1-1.6-.3-.4-.2-.8-.5-1-.8-.2-.4-.4-.8-.4-1.2s.1-.9.4-1.2c.2-.4.6-.6,1-.8s.9-.3,1.4-.3.9,0,1.3.3c.4.2.7.4,1,.8.2.3.4.8.4,1.3s0,.1,0,.2v.2h-3.8v-.9h2.7l-.8.2c0-.2,0-.3-.1-.4,0-.1-.2-.2-.3-.3-.1,0-.3-.1-.4-.1s-.3,0-.4.1c-.1,0-.2.2-.3.3v.7c0,.2,0,.4.1.5s.2.2.4.3c.2,0,.3.1.6.1h.6c.1,0,.3-.1.5-.2l1.1,1c-.2.2-.5.4-.9.5s-.8.2-1.3.2l-.2-.2Z" fill="#48474b"/><path d="M183.9,50.3c-.4,0-.8,0-1.2-.3-.4-.2-.7-.5-.9-.8s-.3-.8-.3-1.2.1-.9.3-1.2.5-.6.9-.8.8-.3,1.2-.3.8,0,1.1.2.5.4.6.8c.1.3.2.8.2,1.3s0,1-.2,1.3c-.1.3-.3.6-.6.8s-.6.2-1.1.2ZM184.4,48.8h.4c.1,0,.2-.2.3-.3s.1-.3.1-.5,0-.4-.1-.5-.2-.2-.3-.3h-.8c-.1,0-.2.2-.3.3s-.1.3-.1.5,0,.4.1.5.2.2.3.3h.4ZM185.3,50.2v-6h2v6.1h-1.9l-.1-.1Z" fill="#48474b"/></g><g isolation="isolate"><path d="M190.2,50.2v-6.1h2v6h-1.9l-.1.1ZM193.5,50.3c-.5,0-.8,0-1.1-.2s-.5-.4-.6-.8c-.1-.3-.2-.8-.2-1.3s0-1,.2-1.3c.1-.3.3-.6.6-.8s.6-.2,1.1-.2.8,0,1.2.3c.4.2.6.5.9.8.2.3.3.8.3,1.2s-.1.9-.3,1.2-.5.6-.9.8-.8.3-1.2.3ZM193,48.8h.4c.1,0,.2-.2.3-.3s.1-.3.1-.5,0-.4-.1-.5-.2-.2-.3-.3h-.8c-.1,0-.2.2-.3.3s-.1.3-.1.5,0,.4.1.5.2.2.3.3h.4Z" fill="#48474b"/></g><g isolation="isolate"><path d="M197.8,50.4l-2.1-4.7h2.1l1.5,3.5-1.4,1.2h-.1ZM197.3,51.9c-.3,0-.5,0-.8-.1-.3,0-.5-.2-.7-.3l.7-1.3c.1,0,.2.1.3.2h.4c.2,0,.3,0,.4-.1,0,0,.2-.2.2-.3l.2-.5v-.2c.1,0,1.7-3.7,1.7-3.7h1.9l-2,4.6c-.2.4-.4.7-.6,1-.2.2-.5.4-.8.5-.3,0-.6.1-1,.1l.1.1Z" fill="#48474b"/></g></g></svg>