<?xml version="1.0" encoding="UTF-8"?>
<svg id="Layer_1" xmlns="http://www.w3.org/2000/svg" version="1.1" viewBox="0 0 215.2 202.4">
  <!-- Generator: Adobe Illustrator 29.3.1, SVG Export Plug-In . SVG Version: 2.1.0 Build 151)  -->
  <defs>
    <style>
      .st0 {
        fill: #34a8e0;
      }

      .st1 {
        fill: #292b81;
      }

      .st2 {
        fill: #292b82;
      }
    </style>
  </defs>
  <path class="st0" d="M102.4,202.4c-27.98-2.44-57.54-21.05-72.98-44.04C-16.91,89.37,34.54-2,116.8.8c-3.14,3.69-6.65,6.89-9.45,10.9-1.41,2.01-6.01,11.4-6.55,11.8-1.16.85-13.02,3.34-16.21,4.57-59.24,22.95-67.88,103.77-15.09,138.97,47.75,31.83,113.48,3.23,121.86-52.94,8.39-2.63,14.22-8.97,21.02-13.76,1-.71,1.36-2,2.82-.74v5.58c1.06,48.56-40.31,95.04-90.4,97.22-7.26-.46-15.24.63-22.4,0Z"/>
  <g>
    <path class="st0" d="M95.2,51c-1.58,4.68,3.97,18.61,3.1,21.75-.39,1.4-5.49,4.17-7.12,5.72-30.51,29.01,15.62,76.8,46.44,43.87,1.26-1.35,3.51-5.58,4.52-5.91,2.29-.74,17.67,4.87,21.86,3.11-13.04,38.58-64.09,48.05-91.22,17.15-24.84-28.3-13.26-73.67,22.42-85.68Z"/>
    <path class="st1" d="M167.2,100.41c-.37-28.77-24.1-51.84-52.79-52.61-1.94-1.87,4.83-22.38,8-24.29,2.37-1.44,14.41,2.12,17.56,3.22,28.08,9.73,49.58,36.08,52.45,65.75-7.69,4.38-16.1,8.48-25.22,7.93Z"/>
    <path class="st1" d="M209.61,70.92c-8.7-27.53-29.19-49.67-55.47-61.49-1.06-.48-10.89-3.67-10.14-4.63,37.12-14.89,74.48,13.12,70.3,52.88-.13,1.25-3.19,14.37-4.69,13.24Z"/>
    <path class="st2" d="M145.6,97.21c-12.12-4.65-23.85-15.16-27.19-27.89,13.98,2.88,25.36,13.4,27.19,27.89Z"/>
  </g>
</svg>