<svg width="60" height="64" viewBox="0 0 60 64" fill="none" xmlns="http://www.w3.org/2000/svg">
<path d="M48.104 46.552C51.6942 41.0547 51.7051 36.235 51.7051 36.235V11.6776C40.787 9.75957 32.1586 6.28416 27.8034 2C23.4537 6.27869 14.8253 9.75957 3.90723 11.6776V36.2405C3.90723 36.2405 3.95094 53.317 27.8089 59.8416C33.2406 58.3552 37.4318 56.3225 40.6778 54.0711" stroke="#787D82" stroke-width="2.5" stroke-linecap="round" stroke-linejoin="round"/>
<path d="M27.8088 50.0655C37.3184 50.0655 45.0274 42.3564 45.0274 32.8469C45.0274 23.3373 37.3184 15.6283 27.8088 15.6283C18.2992 15.6283 10.5902 23.3373 10.5902 32.8469C10.5902 42.3564 18.2992 50.0655 27.8088 50.0655Z" stroke="#787D82" stroke-width="2.5" stroke-linecap="round" stroke-linejoin="round"/>
<path d="M40.951 43.9618L48.4155 51.6996L45.9128 54.1203L38.4428 46.3771" stroke="#787D82" stroke-width="2.5" stroke-linecap="round" stroke-linejoin="round"/>
<path d="M56.0929 57.5082L49.8525 51.0382C49.6503 50.8306 49.3224 50.8251 49.1148 51.0273L45.2131 54.7923C45.0055 54.9945 45 55.3224 45.2022 55.5301L51.4426 62" stroke="#787D82" stroke-width="2.5" stroke-linecap="round" stroke-linejoin="round"/>
<path d="M32.0931 30.5192H23.5193C22.6049 30.5192 21.8636 31.2605 21.8636 32.175V37.6012C21.8636 38.5156 22.6049 39.2569 23.5193 39.2569H32.0931C33.0075 39.2569 33.7488 38.5156 33.7488 37.6012V32.175C33.7488 31.2605 33.0075 30.5192 32.0931 30.5192Z" stroke="#787D82" stroke-width="2.5" stroke-linecap="round" stroke-linejoin="round"/>
<path d="M32.0933 30.519V28.7485C32.0933 26.3824 30.1753 24.4589 27.8037 24.4589C25.4376 24.4589 23.5141 26.377 23.5141 28.7485V30.519" stroke="#787D82" stroke-width="2.5" stroke-linecap="round" stroke-linejoin="round"/>
<path d="M27.8087 36.1474V34.0163" stroke="#787D82" stroke-width="2.5" stroke-linecap="round" stroke-linejoin="round"/>
<path d="M27.8089 46.306C35.2422 46.306 41.268 40.2802 41.268 32.847C41.268 25.4138 35.2422 19.388 27.8089 19.388C20.3757 19.388 14.3499 25.4138 14.3499 32.847C14.3499 40.2802 20.3757 46.306 27.8089 46.306Z" stroke="#787D82" stroke-width="2.5" stroke-linecap="round" stroke-linejoin="round"/>
</svg>
