<svg width="26" height="25" viewBox="0 0 26 25" fill="none" xmlns="http://www.w3.org/2000/svg">
<path d="M6.94935 19.0536C7.53607 16.1754 10.0711 14.0167 13.1154 14.0167C16.1597 14.0167 18.6947 16.1754 19.2815 19.0426" stroke="black" stroke-width="1.2" stroke-linecap="round" stroke-linejoin="round"/>
<path d="M13.1154 14.0166C14.6255 14.0166 15.8497 12.7924 15.8497 11.2823C15.8497 9.77217 14.6255 8.54797 13.1154 8.54797C11.6053 8.54797 10.3811 9.77217 10.3811 11.2823C10.3811 12.7924 11.6053 14.0166 13.1154 14.0166Z" stroke="black" stroke-width="1.2" stroke-linecap="round" stroke-linejoin="round"/>
<path d="M13.1154 21.5C18.0859 21.5 22.1154 17.4706 22.1154 12.5C22.1154 7.52944 18.0859 3.5 13.1154 3.5C8.14482 3.5 4.11539 7.52944 4.11539 12.5C4.11539 17.4706 8.14482 21.5 13.1154 21.5Z" stroke="black" stroke-width="1.2" stroke-linecap="round" stroke-linejoin="round"/>
</svg>
