<?xml version="1.0" encoding="UTF-8"?>
<svg id="Layer_1" xmlns="http://www.w3.org/2000/svg" version="1.1" viewBox="0 0 19.2 19.2">
  <!-- Generator: Adobe Illustrator 29.8.3, SVG Export Plug-In . SVG Version: 2.1.1 Build 3)  -->
  <path d="M6.1,14.1l3.3-.9-3.4-3.4-.9,3.3c-.2.6.4,1.1,1,1h0Z" style="fill: none; stroke: #000; stroke-linecap: round; stroke-linejoin: round; stroke-width: 1.2px;"/>
  <path d="M16.4.9l1.8,1.8c.4.4.4,1.1,0,1.6l-8.9,8.9-3.4-3.4L14.9.9c.4-.4,1.1-.4,1.6,0h0Z" style="fill: none; stroke: #000; stroke-linecap: round; stroke-linejoin: round; stroke-width: 1.2px;"/>
  <path d="M13.8,2l3.4,3.4" style="fill: none; stroke: #000; stroke-linecap: round; stroke-linejoin: round; stroke-width: 1.2px;"/>
  <path d="M18.6,8.7v6.8c0,1.7-1.4,3-3,3H3.6c-1.7,0-3-1.4-3-3V3.6C.6,2,2,.6,3.6.6h6.8" style="fill: none; stroke: #000; stroke-linecap: round; stroke-linejoin: round; stroke-width: 1.2px;"/>
</svg>