<?xml version="1.0" encoding="UTF-8"?>
<svg id="Layer_1" xmlns="http://www.w3.org/2000/svg" version="1.1" xmlns:xlink="http://www.w3.org/1999/xlink" viewBox="0 0 60 59">
  <!-- Generator: Adobe Illustrator 29.8.3, SVG Export Plug-In . SVG Version: 2.1.1 Build 3)  -->
  <defs>
    <clipPath id="clippath">
      <rect width="59" height="59" style="fill: none;"/>
    </clipPath>
  </defs>
  <g style="clip-path: url(#clippath);">
    <path d="M30.1,59h0s0,0,0,0c0,0,0,0,0,0ZM4.6,37c1.3-.5,2.9.2,3.4,1.5,1.4,3.6,3.5,6.7,6.4,9.2,4.7,4.2,10.8,6.3,17.1,6,6.3-.4,12.1-3.2,16.3-7.9,1-1.1,1.9-2.3,2.6-3.5,1.4,1,3,1.8,4.8,2.2-1,1.7-2.2,3.3-3.5,4.8-5.1,5.8-12.2,9.2-20,9.6-.6,0-1.1,0-1.7,0-7.1,0-13.9-2.6-19.2-7.4-3.5-3.1-6.1-7-7.8-11.3-.5-1.3.2-2.9,1.5-3.4ZM5.7,25.9c.4,0,.8.2,1.2.4.3.3.6.6.8,1.1.2.5.3,1.1.3,1.8,0,.6-.1,1.2-.3,1.7-.2.6-.4,1-.7,1.3l-1.3-.7c.2-.3.5-.7.6-1.1.2-.4.3-.9.3-1.3,0-.3,0-.6,0-.8,0-.2-.2-.4-.3-.5-.1-.1-.3-.2-.4-.2-.2,0-.4,0-.5.2-.1.2-.2.4-.3.6,0,.3-.2.5-.3.9,0,.3-.2.6-.3.9-.1.3-.3.6-.4.9-.2.3-.4.5-.7.6-.3.2-.6.2-1,.2-.4,0-.8-.2-1.2-.4-.3-.2-.6-.6-.8-1.1-.2-.5-.3-1.1-.3-1.8,0-.5.1-.9.2-1.4.1-.5.3-.9.6-1.2l1.3.6c-.2.3-.4.7-.5,1-.1.3-.2.7-.2,1,0,.3,0,.6,0,.8,0,.2.2.4.3.5.1.1.3.2.4.2.2,0,.4,0,.5-.2.1-.2.2-.4.3-.6,0-.3.2-.5.3-.9,0-.3.2-.6.3-.9.1-.3.2-.6.4-.9.2-.3.4-.5.7-.6.3-.2.6-.2,1-.2ZM5.5,17c-.4.1-.7.3-1,.5-.3.2-.5.5-.6.9-.1.3-.2.7-.2,1,0,.3,0,.6.2.9.1.3.3.5.5.8.2.2.5.4.8.5.3.1.7.2,1,.2.3,0,.6,0,.9-.2.3-.1.5-.3.8-.5.2-.2.4-.5.5-.8.1-.4.2-.7.2-1.1,0-.4-.1-.7-.3-1.1h0s1.4-.6,1.4-.6c.3.5.4,1.1.4,1.6,0,.6-.1,1.2-.4,1.8-.2.5-.5,1-.9,1.4-.4.4-.8.7-1.3.9-.5.2-1,.3-1.5.3-.5,0-1.1,0-1.6-.3-.5-.2-1-.5-1.3-.9-.4-.4-.6-.8-.8-1.3-.2-.5-.3-1-.3-1.5,0-.5.1-1.1.4-1.6.3-.6.6-1.1,1-1.5.4-.4.9-.7,1.4-.9l.5,1.4ZM37.8,4.7c.6-1.3,2.1-2,3.4-1.4,3,1.2,5.7,3,8.1,5.1,2.3,2.1,4.2,4.4,5.8,7-1.7.5-3.3,1.2-4.8,2.2-1.2-2-2.7-3.8-4.5-5.4-2-1.8-4.2-3.2-6.7-4.2-1.3-.6-2-2.1-1.4-3.4ZM11.8,7.3c.5,0,1,0,1.5.3.5.2.9.5,1.3.9h0c.4.4.7.9.9,1.4.2.5.3,1,.3,1.5,0,.5-.1,1-.4,1.5-.2.5-.5,1-1,1.4-.4.4-.9.8-1.4,1-.5.2-1,.3-1.5.3-.5,0-1,0-1.5-.3-.5-.2-.9-.5-1.3-.9-.4-.4-.7-.9-.9-1.3-.2-.5-.3-1-.3-1.5,0-.5.1-1,.4-1.5.2-.5.6-1,1-1.4.4-.4.9-.7,1.4-1,.5-.2,1-.3,1.5-.3ZM11.7,9c-.3,0-.6,0-.9.2-.3.1-.6.3-.8.5-.2.2-.4.5-.5.8-.1.3-.2.6-.2.9,0,.3,0,.6.2.9.1.3.3.6.6.8.2.3.5.4.8.6.3.1.6.2.9.2.3,0,.6,0,.9-.2.3-.1.6-.3.8-.5.2-.2.4-.5.5-.8h0c.1-.3.2-.6.2-.9s0-.6-.2-.9c-.1-.3-.3-.6-.6-.8-.3-.3-.5-.4-.8-.6-.3-.1-.6-.2-.9-.2ZM21,1.8c.5,0,1,.2,1.4.5.4.3.7.7.9,1.2.2.5.3,1,.2,1.5-.1.5-.3.9-.7,1.3h0s0,0,0,0l2.5,1.6-1.8.7-2.2-1.4s0,0,0,0l-1.4.6.8,2-1.6.7-2.8-7.1,3.1-1.2c.6-.3,1.2-.4,1.8-.3ZM32.7,1.4h-4c0,0,0,1.7,0,1.7h3.6c0,0,0,1.3,0,1.3h-3.6c0,0,0,1.8,0,1.8h4.2c0,0,0,1.4,0,1.4h-5.9c0,0-.1-7.6-.1-7.6h5.8c0,0,0,1.3,0,1.3ZM20.9,3.3c-.3-.1-.8,0-1.3.1l-1.3.5,1,2.5,1.3-.5c.5-.2.8-.5,1-.8.2-.3.2-.7,0-1.1-.2-.4-.4-.6-.7-.8Z" style="fill: #212529;"/>
  </g>
</svg>