<svg width="21" height="21" viewBox="0 0 21 21" fill="none" xmlns="http://www.w3.org/2000/svg">
<path d="M16.665 0.25C18.4599 0.25 19.9149 1.70517 19.915 3.5V11.9395C19.915 13.7344 18.46 15.1895 16.665 15.1895H15.1904V16.8604C15.1904 18.6553 13.7354 20.1104 11.9404 20.1104H3.5C1.70511 20.1103 0.25 18.6552 0.25 16.8604V8.4209C0.250117 6.6261 1.70519 5.17095 3.5 5.1709H4.97461V3.5C4.97472 1.70519 6.42978 0.250029 8.22461 0.25H16.665ZM3.5 6.6709C2.53362 6.67095 1.75012 7.45453 1.75 8.4209V16.8604C1.75 17.8268 2.53354 18.6103 3.5 18.6104H11.9404C12.9069 18.6104 13.6904 17.8269 13.6904 16.8604V15.1895H8.22461C6.42971 15.1894 4.97461 13.7344 4.97461 11.9395V6.6709H3.5ZM8.22461 1.75C7.2582 1.75003 6.47472 2.53361 6.47461 3.5V11.9395C6.47461 12.9059 7.25814 13.6894 8.22461 13.6895H16.665C17.6315 13.6895 18.415 12.906 18.415 11.9395V3.5C18.4149 2.53359 17.6315 1.75 16.665 1.75H8.22461Z" fill="#E40521"/>
</svg>
