<?xml version="1.0" encoding="UTF-8"?>
<svg id="Layer_1" xmlns="http://www.w3.org/2000/svg" version="1.1" viewBox="0 0 13.8 19.2">
  <!-- Generator: Adobe Illustrator 29.8.1, SVG Export Plug-In . SVG Version: 2.1.1 Build 2)  -->
  <defs>
    <style>
      .st0 {
        fill: none;
        stroke: #000;
        stroke-linecap: round;
        stroke-linejoin: round;
        stroke-width: 1.2px;
      }
    </style>
  </defs>
  <path class="st0" d="M.6,6.2v-3.7c0-1.1.9-1.9,2-1.9h6"/>
  <path class="st0" d="M13.2,16.3v.3c0,1.1-.9,1.9-2,1.9H2.6c-1.1,0-2-.9-2-1.9v-.3"/>
  <path class="st0" d="M13.2,5.6v.7"/>
  <path class="st0" d="M8.6.6v3.2c0,.7.6,1.3,1.4,1.3h3.3L8.6.6Z"/>
  <path class="st0" d="M.6,12h1.2c.8,0,1.4-.6,1.4-1.4s-.6-1.4-1.4-1.4H.6v4.7"/>
  <path class="st0" d="M5.4,9.2h1.6c1,0,1.7,1,1.7,2.3s-.8,2.3-1.7,2.3h-1.6v-4.7Z"/>
  <path class="st0" d="M11,13.8v-4.6h2"/>
  <path class="st0" d="M11,11.5h1.7"/>
</svg>