<svg width="26" height="25" viewBox="0 0 26 25" fill="none" xmlns="http://www.w3.org/2000/svg">
<path d="M6.35075 9.13252V5.43193C6.35075 4.36752 7.22678 3.5 8.30162 3.5H14.2525" stroke="black" stroke-width="1.2" stroke-linecap="round" stroke-linejoin="round"/>
<path d="M18.9569 19.2395L18.957 19.5681C18.957 20.6356 18.084 21.5 17.0061 21.5H8.30171C7.22376 21.5 6.35084 20.6356 6.35084 19.5681L6.35075 19.2395" stroke="black" stroke-width="1.2" stroke-linecap="round" stroke-linejoin="round"/>
<path d="M18.9568 8.45874V9.13254" stroke="black" stroke-width="1.2" stroke-linecap="round" stroke-linejoin="round"/>
<path d="M14.3284 3.53616V6.77877C14.3284 7.52017 14.9342 8.12313 15.6859 8.12313H18.9471L14.3284 3.53616Z" stroke="black" stroke-width="1.2" stroke-linecap="round" stroke-linejoin="round"/>
<path d="M6.35075 14.8946H7.58092C8.36686 14.8946 9.00679 14.264 9.00679 13.4826C9.00679 12.7012 8.36996 12.0706 7.58092 12.0706H6.35075V16.725" stroke="black" stroke-width="1.2" stroke-linecap="round" stroke-linejoin="round"/>
<path d="M11.1627 12.0741H12.747C13.7038 12.0741 14.4836 13.1139 14.4836 14.3998C14.4836 15.6857 13.707 16.7255 12.747 16.7255H11.1627V12.0741Z" stroke="black" stroke-width="1.2" stroke-linecap="round" stroke-linejoin="round"/>
<path d="M16.7979 16.6578V12.0741H18.7519" stroke="black" stroke-width="1.2" stroke-linecap="round" stroke-linejoin="round"/>
<path d="M16.7979 14.4304H18.4692" stroke="black" stroke-width="1.2" stroke-linecap="round" stroke-linejoin="round"/>
</svg>
