<svg width="21" height="20" viewBox="0 0 21 20" fill="none" xmlns="http://www.w3.org/2000/svg">
<path d="M16.415 0C18.2099 0 19.6649 1.45517 19.665 3.25V11.6895C19.665 13.4844 18.21 14.9395 16.415 14.9395H14.9404V16.6104C14.9404 18.4053 13.4854 19.8604 11.6904 19.8604H3.25C1.45511 19.8603 0 18.4052 0 16.6104V8.1709C0.000117244 6.3761 1.45519 4.92095 3.25 4.9209H4.72461V3.25C4.72472 1.45519 6.17978 2.86021e-05 7.97461 0H16.415ZM3.25 6.4209C2.28362 6.42095 1.50012 7.20453 1.5 8.1709V16.6104C1.5 17.5768 2.28354 18.3603 3.25 18.3604H11.6904C12.6569 18.3604 13.4404 17.5769 13.4404 16.6104V14.9395H7.97461C6.17971 14.9394 4.72461 13.4844 4.72461 11.6895V6.4209H3.25Z" fill="#E40521"/>
<path d="M15.6222 5.45764L11.3296 9.75004L9 7.42063" stroke="white" stroke-width="1.5" stroke-linecap="round" stroke-linejoin="round"/>
</svg>
