<svg width="25" height="25" viewBox="0 0 25 25" fill="none" xmlns="http://www.w3.org/2000/svg">
<path d="M16.6684 9.80614C17.1701 10.5827 17.4624 11.5031 17.4624 12.4978C17.4624 15.2375 15.2419 17.458 12.5022 17.458C11.5119 17.458 10.5871 17.1657 9.81056 16.664M8.32731 15.1895C7.82562 14.4129 7.53333 13.4925 7.53333 12.4978C7.53333 9.75815 9.75385 7.53763 12.4935 7.53763C13.4838 7.53763 14.4086 7.82992 15.1852 8.33161M20.4987 10.6568H20.3329C19.9141 10.6568 19.5389 10.3907 19.395 9.99809C19.3208 9.78869 19.2336 9.58365 19.1376 9.38297C18.9587 9.0078 19.046 8.55846 19.3383 8.26181L19.4561 8.14402C19.8443 7.75576 19.8443 7.1232 19.4561 6.73493L18.2651 5.54397C17.8768 5.15571 17.2443 5.15571 16.856 5.54397L16.7382 5.66176C16.4459 5.95405 15.9966 6.0413 15.6171 5.86243C15.4164 5.76646 15.2113 5.68357 15.0019 5.60505C14.6049 5.46108 14.3432 5.08591 14.3432 4.66711V4.50133C14.3432 3.95166 13.8982 3.50232 13.3442 3.50232H11.6559C11.1062 3.50232 10.6569 3.94729 10.6569 4.50133V4.66711C10.6569 5.08591 10.3908 5.46108 9.99815 5.60505C9.78875 5.67921 9.58371 5.76646 9.38303 5.86243C9.00786 6.0413 8.55852 5.95405 8.26187 5.66176L8.14408 5.54397C7.75582 5.15571 7.12326 5.15571 6.73499 5.54397L5.54403 6.73493C5.15577 7.1232 5.15577 7.75576 5.54403 8.14402L5.66182 8.26181C5.95411 8.5541 6.04136 9.00344 5.86249 9.38297C5.76652 9.58365 5.68363 9.78869 5.60511 9.99809C5.46114 10.3951 5.08597 10.6568 4.66717 10.6568H4.50139C3.95172 10.6568 3.50238 11.1018 3.50238 11.6558V13.3441C3.50238 13.8938 3.94736 14.3431 4.50139 14.3431H4.66717C5.08597 14.3431 5.46114 14.6093 5.60511 15.0019C5.67927 15.2113 5.76652 15.4163 5.86249 15.617C6.04136 15.9922 5.95411 16.4415 5.66182 16.7382L5.54403 16.8559C5.15577 17.2442 5.15577 17.8768 5.54403 18.265L6.73499 19.456C7.12326 19.8443 7.75582 19.8443 8.14408 19.456L8.26187 19.3382C8.55416 19.0459 9.0035 18.9587 9.38303 19.1375C9.58371 19.2335 9.78875 19.3164 9.99815 19.3949C10.3951 19.5389 10.6569 19.9141 10.6569 20.3329V20.4986C10.6569 21.0483 11.1019 21.4976 11.6559 21.4976H13.3442C13.8939 21.4976 14.3432 21.0527 14.3432 20.4986V20.3329C14.3432 19.9141 14.6093 19.5389 15.0019 19.3949C15.2113 19.3208 15.4164 19.2335 15.6171 19.1375C15.9922 18.9587 16.4416 19.0459 16.7382 19.3382L16.856 19.456C17.2443 19.8443 17.8768 19.8443 18.2651 19.456L19.4561 18.265C19.8443 17.8768 19.8443 17.2442 19.4561 16.8559L19.3383 16.7382C19.046 16.4459 18.9587 15.9965 19.1376 15.617C19.2336 15.4163 19.3165 15.2113 19.395 15.0019C19.5389 14.6049 19.9141 14.3431 20.3329 14.3431H20.4987C21.0484 14.3431 21.4977 13.8982 21.4977 13.3441V11.6558C21.4977 11.1062 21.0527 10.6568 20.4987 10.6568Z" stroke="black" stroke-width="1.2" stroke-linecap="round" stroke-linejoin="round"/>
</svg>
