<svg width="60" height="64" viewBox="0 0 60 64" fill="none" xmlns="http://www.w3.org/2000/svg">
<path d="M9.93178 49.398H4.57139C2.91505 49.398 1.5802 48.0631 1.5802 46.4138V4.97737C1.5802 3.32802 2.90807 2.00015 4.57139 2.00015H55.4287C57.078 2.00015 58.4199 3.33501 58.4199 4.98436V46.4208C58.4199 48.0701 57.078 49.405 55.4287 49.405H40.3818" stroke="#787D82" stroke-width="2.5" stroke-linecap="round" stroke-linejoin="round"/>
<path d="M1.58032 12.0152H58.42" stroke="#787D82" stroke-width="2.5" stroke-linecap="round" stroke-linejoin="round"/>
<path d="M46.5533 43.3667L47.2242 43.2619L31.4715 21.4779L31.171 22.0719C27.2712 29.7526 21.5964 36.3849 14.6216 41.4308C12.6438 42.8635 12.1965 45.6241 13.6292 47.6089L16.816 52.0118C18.2487 53.9966 21.0163 54.4369 22.9941 53.0042C29.9689 47.9583 38.0479 44.6526 46.5533 43.3527V43.3667Z" stroke="#787D82" stroke-width="2.5" stroke-linecap="round" stroke-linejoin="round"/>
<path d="M28.2985 49.6216L33.8685 57.3232C34.826 58.6441 34.5255 60.4891 33.2046 61.4396C31.8837 62.397 30.0387 62.0965 29.0882 60.7757L23.3015 52.7735" stroke="#787D82" stroke-width="2.5" stroke-linecap="round" stroke-linejoin="round"/>
<path d="M17.2631 39.397L25.7545 51.1382" stroke="#787D82" stroke-width="2.5" stroke-linecap="round" stroke-linejoin="round"/>
<path d="M38.0264 2V6.50776C38.0264 9.55486 40.4935 12.0219 43.5406 12.0219H52.3324" stroke="#787D82" stroke-width="2.5" stroke-linecap="round" stroke-linejoin="round"/>
<path d="M42.744 7.01105H45.7282" stroke="#787D82" stroke-width="2.5" stroke-linecap="round" stroke-linejoin="round"/>
<path d="M49.9845 7.01105H52.9687" stroke="#787D82" stroke-width="2.5" stroke-linecap="round" stroke-linejoin="round"/>
</svg>
