<svg width="11" height="11" viewBox="0 0 11 11" fill="none" xmlns="http://www.w3.org/2000/svg">
<path fill-rule="evenodd" clip-rule="evenodd" d="M5.5 0C2.464 0 0 2.464 0 5.5C0 8.536 2.464 11 5.5 11C8.536 11 11 8.536 11 5.5C11 2.464 8.536 0 5.5 0ZM5.5 1.5C7.708 1.5 9.5 3.292 9.5 5.5C9.5 7.708 7.708 9.5 5.5 9.5C3.292 9.5 1.5 7.708 1.5 5.5C1.5 3.292 3.292 1.5 5.5 1.5Z" fill="#787D82"/>
<path fill-rule="evenodd" clip-rule="evenodd" d="M4.75 3.25V5.25C4.75 5.425 4.812 5.595 4.924 5.73L6.174 7.23C6.439 7.548 6.912 7.591 7.23 7.326C7.548 7.061 7.591 6.588 7.326 6.27L6.25 4.978V3.25C6.25 2.836 5.914 2.5 5.5 2.5C5.086 2.5 4.75 2.836 4.75 3.25Z" fill="#787D82"/>
</svg>
