<svg width="60" height="64" viewBox="0 0 60 64" fill="none" xmlns="http://www.w3.org/2000/svg">
<path d="M46.0136 36.1018V4.52934C46.0136 3.13155 44.8821 2 43.4843 2H21.3747L8.47839 14.9019V48.9704C8.47839 50.3682 9.60994 51.4997 11.0077 51.4997H30.2219" stroke="#787D82" stroke-width="2.5" stroke-linecap="round" stroke-linejoin="round"/>
<path d="M30.2219 56.6474H6.01012C4.61232 56.6474 3.48077 55.5158 3.48077 54.118V9.68254C3.48077 8.28475 4.61232 7.1532 6.01012 7.1532H16.2273" stroke="#787D82" stroke-width="2.5" stroke-linecap="round" stroke-linejoin="round"/>
<path d="M30.2222 12.3615H40.4006" stroke="#787D82" stroke-width="2.5" stroke-linecap="round" stroke-linejoin="round"/>
<path d="M30.2222 18.9068H37.0891" stroke="#787D82" stroke-width="2.5" stroke-linecap="round" stroke-linejoin="round"/>
<path d="M13.5874 25.4521H40.4007" stroke="#787D82" stroke-width="2.5" stroke-linecap="round" stroke-linejoin="round"/>
<path d="M13.5874 32.0029H40.4007" stroke="#787D82" stroke-width="2.5" stroke-linecap="round" stroke-linejoin="round"/>
<path d="M13.5874 38.5482H33.6558" stroke="#787D82" stroke-width="2.5" stroke-linecap="round" stroke-linejoin="round"/>
<path d="M13.5874 45.0931H30.2223" stroke="#787D82" stroke-width="2.5" stroke-linecap="round" stroke-linejoin="round"/>
<path d="M38.8863 47.4452L37.0503 45.6092L40.1287 42.5307L41.9536 44.3667C42.5361 44.0283 43.1684 43.7566 43.8396 43.5902V40.9942H48.1938V43.5902C48.865 43.7621 49.4973 44.0283 50.0797 44.3667L51.9046 42.5307L54.9831 45.6092L53.1471 47.4452C53.4855 48.0276 53.7406 48.6599 53.9126 49.32H56.5196V53.6742H53.9126C53.7406 54.3454 53.4744 54.9777 53.1471 55.5602L54.9831 57.3851L51.9046 60.4635L50.0797 58.6275C49.4973 58.9659 48.865 59.2377 48.1938 59.4041V62H43.8396V59.4041C43.1684 59.2321 42.5361 58.9659 41.9536 58.6275L40.1287 60.4635L37.0503 57.3851L38.8863 55.5602C38.5479 54.9777 38.2761 54.3454 38.1097 53.6742H35.5138V49.32H38.1097C38.2817 48.6655 38.5479 48.0331 38.8863 47.4452Z" stroke="#787D82" stroke-width="2.5" stroke-linecap="round" stroke-linejoin="round"/>
<path d="M46.0137 56.1923C48.6084 56.1923 50.7118 54.0889 50.7118 51.4942C50.7118 48.8995 48.6084 46.796 46.0137 46.796C43.419 46.796 41.3156 48.8995 41.3156 51.4942C41.3156 54.0889 43.419 56.1923 46.0137 56.1923Z" stroke="#787D82" stroke-width="2.5" stroke-linecap="round" stroke-linejoin="round"/>
<path d="M21.3806 14.9018H8.47876L21.3806 2.00548V14.9018Z" stroke="#787D82" stroke-width="2.5" stroke-linecap="round" stroke-linejoin="round"/>
</svg>
