<?xml version="1.0" encoding="UTF-8"?>
<svg id="Layer_1" xmlns="http://www.w3.org/2000/svg" version="1.1" viewBox="0 0 19.7 24.5">
  <!-- Generator: Adobe Illustrator 29.8.1, SVG Export Plug-In . SVG Version: 2.1.1 Build 2)  -->
  <defs>
    <style>
      .st0 {
        fill: #e40521;
      }

      .st1 {
        fill: #fff;
      }
    </style>
  </defs>
  <path d="M19.7,17.3v4.3c0,1.6-1.3,2.9-2.9,2.9H5.3c-1.6,0-2.9-1.3-2.9-2.9v-1s0,0,0,0h-.7c-.9,0-1.7-.8-1.7-1.7s0,0,0-.1v-8.4c0-.9.8-1.7,1.7-1.7h.7V3.4c0-1.9,1.5-3.4,3.4-3.4h8.6c.5,0,.9.2,1.3.5l3.4,3.1c.4.4.6.9.6,1.4v4.2s0,0,0,0v8.1s0,0,0,0ZM18.8,21.6v-3.4H3.4v3.4c0,1.1.9,1.9,1.9,1.9h11.5c1.1,0,1.9-.9,1.9-1.9ZM18.8,17.3v-7.6H2.9s0,0,0,0h-1.2c-.4,0-.7.3-.7.7v7c.2-.1.4-.2.7-.2h17.1ZM18.8,8.7v-3.5h-2.4c-1.1,0-1.9-.9-1.9-1.9V1s0,0,0,0H5.8c-1.3,0-2.4,1.1-2.4,2.4v5.4h15.4ZM16.4,4.2h2.1l-3-2.7v1.7c0,.5.4,1,1,1ZM2.4,19.7v-1.4h-.8c-.4,0-.7.3-.7.7s.3.7.7.7h.7s0,0,0,0Z"/>
  <path class="st0" d="M18.8,16v1.3H1.7c-.3,0-.5,0-.7.2v-7c0-.4.3-.7.7-.7h17.1s0,6.3,0,6.3h0ZM15.6,11.6c0-.3-.2-.5-.5-.5h-1.6c-.3,0-.5.2-.5.5v3.9c0,.3.2.5.5.5s.5-.2.5-.5v-1.5h1c.3,0,.5-.2.5-.5s-.2-.5-.5-.5h-1v-.9h1.1c.3,0,.5-.2.5-.5ZM11.9,13.5c0-1.4-.8-2.4-2-2.4h-1.1c-.3,0-.5.2-.5.5v3.8s0,0,0,0c0,.2.2.4.5.4h0s.8,0,1.1,0c1.2,0,2-1,2-2.4ZM5.7,14.3c.9,0,1.6-.7,1.6-1.6s-.7-1.6-1.6-1.6h-1s0,0,0,0c-.3,0-.5.2-.5.5v3.9c0,.3.2.5.5.5s.5-.2.5-.5v-1.2c.2,0,.5,0,.6,0Z"/>
  <path class="st1" d="M15.1,11.1c.3,0,.5.2.5.5s-.2.5-.5.5h-1.1v.9h1c.3,0,.5.2.5.5s-.2.5-.5.5h-1v1.5c0,.3-.2.5-.5.5s-.5-.2-.5-.5v-3.9c0-.3.2-.5.5-.5h1.6Z"/>
  <path class="st1" d="M9.8,11.1c1.2,0,2,1,2,2.4s-.8,2.4-2,2.4c-.3,0-1.1,0-1.1,0h0c-.3,0-.5-.2-.5-.4,0,0,0,0,0,0v-3.8c0-.3.2-.5.5-.5h1.1ZM10.9,13.5c0-.7-.3-1.4-1.1-1.4h-.6v1.4c0,.3,0,1,0,1.4.2,0,.5,0,.6,0,.7,0,1.1-.7,1.1-1.4Z"/>
  <path class="st0" d="M9.8,12.1c.8,0,1.1.7,1.1,1.4s-.3,1.4-1.1,1.4c-.1,0-.4,0-.6,0,0-.5,0-1.1,0-1.4v-1.4h.6Z"/>
  <path class="st1" d="M7.3,12.7c0,.9-.7,1.6-1.6,1.6s-.4,0-.6,0v1.2c0,.3-.2.5-.5.5s-.5-.2-.5-.5v-3.9c0-.3.2-.5.5-.5s0,0,0,0h1c.9,0,1.6.7,1.6,1.6ZM6.4,12.7c0-.3-.3-.6-.6-.6h-.6s0,1.2,0,1.2h.6c.3,0,.6-.3.6-.6Z"/>
  <path class="st0" d="M5.7,12.1c.3,0,.6.3.6.6s-.3.6-.6.6h-.6v-1.2h.6Z"/>
</svg>