<?xml version="1.0" encoding="UTF-8"?>
<svg id="Layer_1" xmlns="http://www.w3.org/2000/svg" version="1.1" viewBox="0 0 18.7 17.8">
  <!-- Generator: Adobe Illustrator 30.1.0, SVG Export Plug-In . SVG Version: 2.1.1 Build 136)  -->
  <path d="M1.1,10.4h0c-.5-.9-.5-2.1,0-3h0l2.9-5.2h0c.5-.9,1.5-1.5,2.5-1.5h5.7c1,0,2,.6,2.5,1.5h0l2.9,5.1h0c.5.9.5,2.1,0,3h0l-2.9,5.1h0c-.5.9-1.5,1.5-2.5,1.5h-5.9c-1,0-1.9-.6-2.4-1.5h0l-2.9-5.1h0Z" style="fill: none; stroke: #727272; stroke-width: 1.5px;"/>
  <path d="M9.2,4.7v4.9" style="fill: none; stroke: #727272; stroke-linecap: round; stroke-linejoin: round; stroke-width: 1.5px;"/>
  <path d="M9.2,12.7c.4,0,.8-.4.8-.8s-.4-.8-.8-.8-.8.4-.8.8.4.8.8.8Z" style="fill: #727373;"/>
</svg>