<svg width="23" height="22" viewBox="0 0 23 22" fill="none" xmlns="http://www.w3.org/2000/svg">
<path d="M4.14139 12.0363L4.1413 12.0362C3.61957 11.1016 3.61957 9.93279 4.1413 8.99821L4.14139 8.99804L6.99503 3.88324C6.99506 3.88318 6.99509 3.88313 6.99512 3.88307C7.51536 2.95131 8.4772 2.38501 9.49409 2.38501H15.2053C16.2221 2.38501 17.184 2.95131 17.7042 3.88307C17.7043 3.88313 17.7043 3.88318 17.7043 3.88324L20.5579 8.99804L20.558 8.99821C21.0798 9.93279 21.0798 11.0978 20.558 12.0323L20.5579 12.0325L17.7043 17.1473C17.7043 17.1474 17.7043 17.1474 17.7042 17.1475C17.184 18.0793 16.2221 18.6455 15.2053 18.6455H9.49409H9.34914C8.38654 18.5946 7.49057 18.0387 6.99512 17.1513C6.99509 17.1513 6.99506 17.1512 6.99503 17.1512L4.14139 12.0363Z" fill="#757575 " stroke="#757575 " stroke-width="1.5"/>
<path d="M12.1906 6.30981V11.1786" stroke="white" stroke-width="1.5" stroke-linecap="round" stroke-linejoin="round"/>
<path d="M12.2272 14.3712C12.676 14.3712 13.0398 14.0074 13.0398 13.5586C13.0398 13.1099 12.676 12.7461 12.2272 12.7461C11.7785 12.7461 11.4147 13.1099 11.4147 13.5586C11.4147 14.0074 11.7785 14.3712 12.2272 14.3712Z" fill="white"/>
</svg>
