<svg width="21" height="25" viewBox="0 0 21 25" fill="none" xmlns="http://www.w3.org/2000/svg">
<path d="M20.5758 17.3211V21.6352C20.5739 23.2265 19.2838 24.5161 17.6925 24.518H6.15185C4.56057 24.5161 3.27099 23.2265 3.26907 21.6352V20.6382C3.26285 20.6387 3.25662 20.6392 3.24992 20.6392H2.51246C1.58681 20.6392 0.836426 19.8888 0.836426 18.9631C0.836426 18.9162 0.83882 18.8698 0.842651 18.8238L0.863242 10.3972C0.864679 9.47247 1.61458 8.724 2.53928 8.724H3.26811V3.36404C3.27003 1.50747 4.77415 0.0028732 6.63072 0H15.2192C15.6894 0 16.1439 0.172392 16.4954 0.485092L19.9289 3.53739C20.3392 3.90229 20.5739 4.42473 20.5739 4.97399V9.18036C20.5744 9.18706 20.5748 9.19329 20.5748 9.19951V17.3019C20.5753 17.3086 20.5758 17.3149 20.5758 17.3211ZM19.6181 21.6352V18.2448H4.2268V21.6352C4.22824 22.6978 5.08924 23.5588 6.15185 23.5603H17.6925C18.7552 23.5588 19.6166 22.6978 19.6181 21.6352ZM19.6162 17.2871V9.67551L3.75177 9.67838C3.75177 9.67838 3.74842 9.67838 3.74698 9.67838H2.53784C2.14134 9.67838 1.81954 10.0002 1.81954 10.3967L1.8023 17.4446C2.01779 17.3436 2.25866 17.2866 2.51246 17.2866H19.6162V17.2871ZM19.6162 8.72065V5.19858H17.2098C16.1492 5.19714 15.2901 4.33806 15.2886 3.27737V0.961086C15.2656 0.959171 15.2427 0.957734 15.2192 0.957734H6.63072C5.30282 0.95965 4.22728 2.03614 4.22585 3.36404V8.72352L19.6162 8.72065ZM17.2098 4.24085H19.2766L16.2464 1.54722V3.27737C16.2468 3.80939 16.6778 4.24037 17.2098 4.24085ZM3.26907 19.6824V18.2448H2.51246C2.11596 18.2448 1.79416 18.5666 1.79416 18.9631C1.79416 19.3596 2.11596 19.6814 2.51246 19.6814H3.24992C3.25662 19.6814 3.26285 19.6819 3.26907 19.6824Z" fill="black"/>
<path d="M19.6161 15.9515V17.2871H2.51244C2.25864 17.2871 2.01777 17.3441 1.80228 17.4451L1.81952 10.3972C1.81952 10.0007 2.14131 9.67887 2.53782 9.67887H3.74696C3.74696 9.67887 3.75031 9.67887 3.75174 9.67887L19.6161 9.67599V15.952V15.9515ZM16.3934 11.6082C16.3934 11.3439 16.1788 11.1294 15.9145 11.1294H14.3524C14.0881 11.1294 13.8736 11.3439 13.8736 11.6082V15.4617C13.8736 15.726 14.0881 15.9405 14.3524 15.9405C14.6168 15.9405 14.8313 15.726 14.8313 15.4617V13.9772H15.7905C16.0548 13.9772 16.2693 13.7626 16.2693 13.4983C16.2693 13.234 16.0548 13.0194 15.7905 13.0194H14.8313V12.0871H15.9145C16.1788 12.0871 16.3934 11.8726 16.3934 11.6082ZM12.7118 13.5342C12.7118 12.0952 11.8939 11.1284 10.6766 11.1284H9.5853C9.32097 11.1284 9.10644 11.3429 9.10644 11.6073V15.3994C9.10644 15.4329 9.10979 15.465 9.11649 15.4966C9.13421 15.7447 9.3406 15.9405 9.59344 15.9405L9.59488 15.9396C9.62792 15.9396 10.4061 15.9367 10.7173 15.931C11.8729 15.9108 12.7118 14.9028 12.7118 13.5342ZM6.56461 14.2635C7.43998 14.2635 8.15253 13.561 8.15253 12.6972C8.15253 11.8333 7.43998 11.1308 6.56461 11.1308H5.51781C5.50871 11.1303 5.49913 11.1294 5.48955 11.1294C5.22522 11.1294 5.01069 11.3439 5.01069 11.6082V15.4617C5.01069 15.726 5.22522 15.9405 5.48955 15.9405C5.75389 15.9405 5.96842 15.726 5.96842 15.4617V14.2659C6.1863 14.2645 6.42717 14.2635 6.56461 14.2635Z" fill="#E40521"/>
<path d="M15.9145 11.1294C16.1788 11.1294 16.3934 11.3439 16.3934 11.6082C16.3934 11.8726 16.1788 12.0871 15.9145 12.0871H14.8313V13.0195H15.7905C16.0548 13.0195 16.2693 13.234 16.2693 13.4983C16.2693 13.7627 16.0548 13.9772 15.7905 13.9772H14.8313V15.4617C14.8313 15.726 14.6168 15.9405 14.3524 15.9405C14.0881 15.9405 13.8736 15.726 13.8736 15.4617V11.6082C13.8736 11.3439 14.0881 11.1294 14.3524 11.1294H15.9145Z" fill="white"/>
<path d="M10.6767 11.1284C11.894 11.1284 12.7119 12.0952 12.7119 13.5342C12.7119 14.9732 11.8729 15.9108 10.7174 15.9309C10.4061 15.9367 9.62796 15.9396 9.59492 15.9396L9.59348 15.9405C9.34064 15.9405 9.13425 15.7447 9.11653 15.4966C9.10983 15.465 9.10648 15.4329 9.10648 15.3994V11.6073C9.10648 11.3429 9.32101 11.1284 9.58534 11.1284H10.6767ZM11.7522 13.5352C11.7522 12.8351 11.4692 12.0871 10.6748 12.0871H10.0652V13.5309C10.0652 13.8603 10.0652 14.5245 10.0685 14.9804C10.2984 14.9804 10.5541 14.977 10.6987 14.9746C11.4266 14.9617 11.7522 14.2425 11.7522 13.5352Z" fill="white"/>
<path d="M10.6748 12.0871C11.4692 12.0871 11.7522 12.8351 11.7522 13.5352C11.7522 14.2353 11.4266 14.9617 10.6987 14.9747C10.5541 14.9771 10.2984 14.9804 10.0685 14.9804C10.0652 14.5245 10.0652 13.8603 10.0652 13.5309V12.0871H10.6748Z" fill="#E40521"/>
<path d="M8.15253 12.6972C8.15253 13.5611 7.43997 14.2635 6.5646 14.2635C6.42717 14.2635 6.1863 14.2645 5.96842 14.2659V15.4617C5.96842 15.726 5.75388 15.9405 5.48955 15.9405C5.22521 15.9405 5.01068 15.726 5.01068 15.4617V11.6082C5.01068 11.3439 5.22521 11.1294 5.48955 11.1294C5.49913 11.1294 5.5087 11.1303 5.5178 11.1308H6.5646C7.43997 11.1308 8.15253 11.8333 8.15253 12.6972ZM7.18905 12.6977C7.18905 12.3677 6.90173 12.089 6.55886 12.089L5.96985 12.0871V13.3063H6.55886C6.90029 13.3063 7.18905 13.0276 7.18905 12.6977Z" fill="white"/>
<path d="M6.5589 12.089C6.90177 12.089 7.18909 12.3677 7.18909 12.6977C7.18909 13.0276 6.90033 13.3063 6.5589 13.3063H5.96989V12.0871L6.5589 12.089Z" fill="#E40521"/>
</svg>
