<svg width="24" height="30" viewBox="0 0 24 30" fill="none" xmlns="http://www.w3.org/2000/svg">
<path d="M1.00012 25.9072V4.95043C1.00012 3.51441 2.17227 2.34766 3.61492 2.34766H4.78207" stroke="black" stroke-width="1.15" stroke-linecap="round" stroke-linejoin="round"/>
<path d="M11.6397 5.72825L9.73117 4.71108L7.82266 5.72825V1.5H11.6397V5.72825Z" stroke="black" stroke-width="1.15" stroke-linecap="round" stroke-linejoin="round"/>
<path d="M4.66687 23.3194V2.34766H7.82267" stroke="black" stroke-width="1.15" stroke-linecap="round" stroke-linejoin="round"/>
<path d="M22.7501 7.92716V25.8972C22.7501 27.3332 21.5779 28.5 20.1353 28.5H3.61492C2.17227 28.5 1.00012 27.3332 1.00012 25.8972V25.9172C1.00012 24.4812 2.17227 23.3144 3.61492 23.3144H20.1353C21.5779 23.3144 22.7501 22.1476 22.7501 20.7116V4.95043C22.7501 3.51441 21.5779 2.34766 20.1353 2.34766H11.6397" stroke="black" stroke-width="1.15" stroke-linecap="round" stroke-linejoin="round"/>
<path d="M22.5948 23.3194C22.5948 24.7554 21.4226 25.9222 19.98 25.9222H5.46333" stroke="black" stroke-width="1.15" stroke-linecap="round" stroke-linejoin="round"/>
<path d="M8.05309 18.3133L10.4174 11.5222L12.8269 18.3133" stroke="black" stroke-width="1.15" stroke-linecap="round" stroke-linejoin="round"/>
<path d="M12.0855 16.2291H8.77942" stroke="black" stroke-width="1.15" stroke-linecap="round" stroke-linejoin="round"/>
<path d="M15.0309 11.5222H18.9631L15.0309 18.3133H18.9631" stroke="black" stroke-width="1.15" stroke-linecap="round" stroke-linejoin="round"/>
</svg>
