<svg width="26" height="25" viewBox="0 0 26 25" fill="none" xmlns="http://www.w3.org/2000/svg">
<path d="M12.9158 8.51855C10.1749 8.51855 7.78729 10.0108 6.5043 12.2234C7.78729 14.4361 10.1749 15.9283 12.9158 15.9283C15.6567 15.9283 18.0443 14.4361 19.3273 12.2234C18.0443 10.0108 15.6567 8.51855 12.9158 8.51855Z" stroke="black" stroke-width="1.2" stroke-linecap="round" stroke-linejoin="round"/>
<path d="M12.9159 14.0829C13.9428 14.0829 14.7752 13.2504 14.7752 12.2236C14.7752 11.1967 13.9428 10.3643 12.9159 10.3643C11.8891 10.3643 11.0566 11.1967 11.0566 12.2236C11.0566 13.2504 11.8891 14.0829 12.9159 14.0829Z" stroke="black" stroke-width="1.2" stroke-linecap="round" stroke-linejoin="round"/>
<path d="M19.1558 3.5H7.22889C5.55184 3.5 4.19232 4.85952 4.19232 6.53657V18.4634C4.19232 20.1405 5.55184 21.5 7.22889 21.5H19.1558C20.8328 21.5 22.1923 20.1405 22.1923 18.4634V6.53657C22.1923 4.85952 20.8328 3.5 19.1558 3.5Z" stroke="black" stroke-width="1.2" stroke-linecap="round" stroke-linejoin="round"/>
</svg>
