<?xml version="1.0" encoding="UTF-8"?>
<svg id="Layer_1" xmlns="http://www.w3.org/2000/svg" version="1.1" viewBox="0 0 19.7 24.5">
  <!-- Generator: Adobe Illustrator 29.8.1, SVG Export Plug-In . SVG Version: 2.1.1 Build 2)  -->
  <defs>
    <style>
      .st0 {
        fill: #fff;
      }

      .st1 {
        fill: #4c4c4c;
      }
    </style>
  </defs>
  <path d="M19.7,17.3v4.3c0,1.6-1.3,2.9-2.9,2.9H5.3c-1.6,0-2.9-1.3-2.9-2.9v-1s0,0,0,0h-.7c-.9,0-1.7-.8-1.7-1.7s0,0,0-.1v-8.4c0-.9.8-1.7,1.7-1.7h.7V3.4c0-1.9,1.5-3.4,3.4-3.4h8.6c.5,0,.9.2,1.3.5l3.4,3.1c.4.4.6.9.6,1.4v4.2s0,0,0,0v8.1s0,0,0,0ZM18.8,21.6v-3.4H3.4v3.4c0,1.1.9,1.9,1.9,1.9h11.5c1.1,0,1.9-.9,1.9-1.9ZM18.8,17.3v-7.6H2.9s0,0,0,0h-1.2c-.4,0-.7.3-.7.7v7c.2-.1.4-.2.7-.2h17.1ZM18.8,8.7v-3.5h-2.4c-1.1,0-1.9-.9-1.9-1.9V1s0,0,0,0H5.8c-1.3,0-2.4,1.1-2.4,2.4v5.4h15.4ZM16.4,4.2h2.1l-3-2.7v1.7c0,.5.4,1,1,1ZM2.4,19.7v-1.4h-.8c-.4,0-.7.3-.7.7s.3.7.7.7h.7s0,0,0,0Z"/>
  <path class="st1" d="M18.8,16v1.3H1.7c-.3,0-.5,0-.7.2v-7c0-.4.3-.7.7-.7h17.1s0,6.3,0,6.3h0Z"/>
  <path class="st0" d="M6.8,15.1h-1.5v-3.5c0-.3-.2-.5-.5-.5s-.5.2-.5.5v3.9c0,.3.2.5.5.5h2c.3,0,.5-.2.5-.5s-.2-.5-.5-.5Z"/>
  <path class="st0" d="M15.2,13.4c0,0-.2-.1-.3-.1h-1c-.3,0-.5.2-.5.5s.2.5.5.5h.5v.5c0,.1-.3.3-.5.3-.4,0-.8-.6-.8-1.5s.4-1.5.8-1.5.4.2.5.3c.2.2.5.3.7,0,.2-.2.3-.5,0-.7-.3-.4-.8-.7-1.3-.7-1,0-1.8,1.1-1.8,2.5s.8,2.5,1.8,2.5.4,0,.6-.1c0,.1.2.2.4.2.3,0,.5-.2.5-.5v-1.9c0-.1,0-.2-.1-.3Z"/>
  <path class="st0" d="M9.5,11.1c-1,0-1.8,1.1-1.8,2.5s.8,2.5,1.8,2.5,1.8-1.1,1.8-2.5-.8-2.5-1.8-2.5ZM9.5,15.1c-.4,0-.8-.6-.8-1.5s.4-1.5.8-1.5.8.6.8,1.5-.4,1.5-.8,1.5Z"/>
</svg>