<?xml version="1.0" encoding="UTF-8"?>
<svg id="Layer_1" xmlns="http://www.w3.org/2000/svg" version="1.1" viewBox="0 0 17.2 20.7">
  <!-- Generator: Adobe Illustrator 29.8.3, SVG Export Plug-In . SVG Version: 2.1.1 Build 3)  -->
  <path d="M.6,7.5V1.8c0-.7.5-1.2,1.2-1.2h7.1" style="fill: none; stroke: #000; stroke-linecap: round; stroke-linejoin: round; stroke-width: 1.2px;"/>
  <path d="M7,15.2H1.8c-.7,0-1.2-.5-1.2-1.2v-6.5" style="fill: none; stroke: #000; stroke-linecap: round; stroke-linejoin: round; stroke-width: 1.2px;"/>
  <path d="M11.8,3.5v7.1" style="fill: none; stroke: #000; stroke-linecap: round; stroke-linejoin: round; stroke-width: 1.2px;"/>
  <path d="M8.9.6v1.7c0,.7.5,1.2,1.2,1.2h1.7l-2.9-2.9Z" style="fill: none; stroke: #000; stroke-linecap: round; stroke-linejoin: round; stroke-width: 1.2px;"/>
  <path d="M8.9.6l2.9,2.9" style="fill: none; stroke: #000; stroke-linecap: round; stroke-linejoin: round; stroke-width: 1.2px;"/>
  <path d="M2.8,5.5h6.2" style="fill: none; stroke: #000; stroke-linecap: round; stroke-linejoin: round; stroke-width: 1.2px;"/>
  <path d="M2.8,7.9h4.1" style="fill: none; stroke: #000; stroke-linecap: round; stroke-linejoin: round; stroke-width: 1.2px;"/>
  <path d="M12.3,5.5h1.3" style="fill: none; stroke: #000; stroke-linecap: round; stroke-linejoin: round; stroke-width: 1.2px;"/>
  <path d="M16.6,8.3v10.6c0,.7-.5,1.2-1.2,1.2H6.6c-.7,0-1.2-.5-1.2-1.2v-3.7" style="fill: none; stroke: #000; stroke-linecap: round; stroke-linejoin: round; stroke-width: 1.2px;"/>
  <path d="M13.7,5.5v1.7c0,.7.5,1.2,1.2,1.2h1.7l-2.9-2.9Z" style="fill: none; stroke: #000; stroke-linecap: round; stroke-linejoin: round; stroke-width: 1.2px;"/>
  <path d="M13.7,5.5l2.9,2.9" style="fill: none; stroke: #000; stroke-linecap: round; stroke-linejoin: round; stroke-width: 1.2px;"/>
  <path d="M8.6,12.1l4.2,4.1" style="fill: none; stroke: #000; stroke-linecap: round; stroke-linejoin: round; stroke-width: 1.2px;"/>
  <path d="M12.8,13.7v2.6h-2.6" style="fill: none; stroke: #000; stroke-linecap: round; stroke-linejoin: round; stroke-width: 1.2px;"/>
</svg>