<?xml version="1.0" encoding="UTF-8"?>
<svg id="Layer_1" xmlns="http://www.w3.org/2000/svg" version="1.1" viewBox="0 0 19.2 19.2">
  <!-- Generator: Adobe Illustrator 29.8.1, SVG Export Plug-In . SVG Version: 2.1.1 Build 2)  -->
  <defs>
    <style>
      .st0 {
        fill: none;
        stroke: #000;
        stroke-linecap: round;
        stroke-linejoin: round;
        stroke-width: 1.2px;
      }
    </style>
  </defs>
  <path class="st0" d="M9.3,5.6c-2.7,0-5.1,1.5-6.4,3.7,1.3,2.2,3.7,3.7,6.4,3.7s5.1-1.5,6.4-3.7c-1.3-2.2-3.7-3.7-6.4-3.7Z"/>
  <path class="st0" d="M9.3,11.2c1,0,1.9-.8,1.9-1.9s-.8-1.9-1.9-1.9-1.9.8-1.9,1.9.8,1.9,1.9,1.9Z"/>
  <path class="st0" d="M15.6.6H3.6C2,.6.6,2,.6,3.6v11.9c0,1.7,1.4,3,3,3h11.9c1.7,0,3-1.4,3-3V3.6c0-1.7-1.4-3-3-3Z"/>
</svg>