<?xml version="1.0" encoding="UTF-8"?>
<svg id="Layer_1" xmlns="http://www.w3.org/2000/svg" version="1.1" viewBox="0 0 18.7 17.8">
  <!-- Generator: Adobe Illustrator 29.8.1, SVG Export Plug-In . SVG Version: 2.1.1 Build 2)  -->
  <defs>
    <style>
      .st0 {
        fill: #e40521;
        stroke: #e40521;
      }

      .st0, .st1 {
        stroke-width: 1.5px;
      }

      .st2 {
        fill: #fff;
      }

      .st1 {
        fill: none;
        stroke: #fff;
        stroke-linecap: round;
        stroke-linejoin: round;
      }
    </style>
  </defs>
  <path class="st0" d="M1.1,10.4h0c-.5-.9-.5-2.1,0-3h0S4,2.2,4,2.2c0,0,0,0,0,0,.5-.9,1.5-1.5,2.5-1.5h5.7c1,0,2,.6,2.5,1.5,0,0,0,0,0,0l2.9,5.1h0c.5.9.5,2.1,0,3h0s-2.9,5.1-2.9,5.1t0,0c-.5.9-1.5,1.5-2.5,1.5h-5.9c-1,0-1.9-.6-2.4-1.5,0,0,0,0,0,0l-2.9-5.1Z"/>
  <path class="st1" d="M9.2,4.7v4.9"/>
  <path class="st2" d="M9.2,12.7c.4,0,.8-.4.8-.8s-.4-.8-.8-.8-.8.4-.8.8.4.8.8.8Z"/>
</svg>