<svg width="26" height="25" viewBox="0 0 26 25" fill="none" xmlns="http://www.w3.org/2000/svg">
<path d="M8.98285 17.2074L12.3115 16.3155L8.90917 12.9131L8.01722 16.2418C7.8603 16.828 8.3966 17.3643 8.98249 17.2071L8.98285 17.2074Z" stroke="black" stroke-width="1.2" stroke-linecap="round" stroke-linejoin="round"/>
<path d="M19.3443 4.04212L21.1823 5.88013C21.6139 6.3117 21.6141 7.01279 21.1823 7.44462L12.3116 16.3153L8.9094 12.913L17.7801 4.04237C18.2116 3.6108 18.9127 3.61055 19.3446 4.04237L19.3443 4.04212Z" stroke="black" stroke-width="1.2" stroke-linecap="round" stroke-linejoin="round"/>
<path d="M16.6695 5.15332L20.0715 8.55569" stroke="black" stroke-width="1.2" stroke-linecap="round" stroke-linejoin="round"/>
<path d="M21.5124 11.861V18.7086C21.5124 20.3827 20.1553 21.7401 18.4809 21.7401H6.52847C4.85438 21.7401 3.49697 20.3831 3.49697 18.7086V6.7555C3.49697 5.08142 4.85402 3.72437 6.52847 3.72437H13.3761" stroke="black" stroke-width="1.2" stroke-linecap="round" stroke-linejoin="round"/>
</svg>
