<?xml version="1.0" encoding="UTF-8"?>
<svg id="Layer_1" xmlns="http://www.w3.org/2000/svg" version="1.1" viewBox="0 0 33 33">
  <!-- Generator: Adobe Illustrator 29.8.1, SVG Export Plug-In . SVG Version: 2.1.1 Build 2)  -->
  <defs>
    <style>
      .st0 {
        stroke-miterlimit: 10;
      }

      .st0, .st1 {
        fill: none;
        stroke: #fff;
      }

      .st1 {
        stroke-linecap: round;
        stroke-linejoin: round;
        stroke-width: 1.5px;
      }
    </style>
  </defs>
  <path class="st0" d="M1,12.8v14.4c0,2.6,2.1,4.8,4.8,4.8h21.5c2.6,0,4.8-2.1,4.8-4.8v-14.4h-8.2c0,4.1-3.3,7.3-7.3,7.3s-7.3-3.3-7.3-7.3H1Z"/>
  <path class="st1" d="M11.5,18.2c.5-2.3,2.6-4.1,5-4.1s4.6,1.8,5,4.1"/>
  <path class="st1" d="M16.5,14.1c1.2,0,2.2-1,2.2-2.2s-1-2.2-2.2-2.2-2.2,1-2.2,2.2,1,2.2,2.2,2.2Z"/>
  <path class="st1" d="M16.5,20.2c4.1,0,7.3-3.3,7.3-7.3s-3.3-7.3-7.3-7.3-7.3,3.3-7.3,7.3,3.3,7.3,7.3,7.3Z"/>
  <path class="st1" d="M27.2,1H5.8C3.1,1,1,3.1,1,5.8v21.5c0,2.6,2.1,4.8,4.8,4.8h21.5c2.6,0,4.8-2.1,4.8-4.8V5.8c0-2.6-2.1-4.8-4.8-4.8Z"/>
  <path class="st1" d="M24.4,12.8h7.6"/>
  <path class="st1" d="M9.1,12.8H1.1"/>
  <path class="st1" d="M8.6,23.9h15.8"/>
  <path class="st1" d="M8.6,27.7h15.8"/>
</svg>