<svg width="26" height="25" viewBox="0 0 26 25" fill="none" xmlns="http://www.w3.org/2000/svg">
<path d="M12.0403 18.9196C16.1761 18.9196 19.5287 15.5669 19.5287 11.4312C19.5287 7.29543 16.1761 3.94275 12.0403 3.94275C7.90459 3.94275 4.55191 7.29543 4.55191 11.4312C4.55191 15.5669 7.90459 18.9196 12.0403 18.9196Z" stroke="black" stroke-width="1.2" stroke-linecap="round" stroke-linejoin="round"/>
<path d="M17.2611 16.798L21.5246 21.0574" stroke="black" stroke-width="1.2" stroke-linecap="round" stroke-linejoin="round"/>
<path d="M13.6873 7.22859C13.1843 7.02982 12.6367 6.92029 12.0606 6.92029C9.59019 6.92029 7.5903 8.92423 7.5903 11.3906C7.5903 11.9667 7.70388 12.5102 7.8986 13.0173" stroke="black" stroke-width="1.2" stroke-linecap="round" stroke-linejoin="round"/>
<path d="M16.5066 13.1431C16.6526 12.7009 16.7337 12.2304 16.7337 11.7355" stroke="black" stroke-width="1.2" stroke-linecap="round" stroke-linejoin="round"/>
</svg>
