<svg width="16" height="17" viewBox="0 0 16 17" fill="none" xmlns="http://www.w3.org/2000/svg">
<path d="M11 6.14731C11 6.94296 10.6839 7.70602 10.1213 8.26863C9.55871 8.83124 8.79565 9.14731 8 9.14731C7.20435 9.14731 6.44129 8.83124 5.87868 8.26863C5.31607 7.70602 5 6.94296 5 6.14731C5 5.35166 5.31607 4.5886 5.87868 4.02599C6.44129 3.46338 7.20435 3.14731 8 3.14731C8.79565 3.14731 9.55871 3.46338 10.1213 4.02599C10.6839 4.5886 11 5.35166 11 6.14731Z" fill="#4A4949"/>
<path fill-rule="evenodd" clip-rule="evenodd" d="M0 8.14731C0 6.02558 0.842855 3.99075 2.34315 2.49045C3.84344 0.990163 5.87827 0.147308 8 0.147308C10.1217 0.147308 12.1566 0.990163 13.6569 2.49045C15.1571 3.99075 16 6.02558 16 8.14731C16 10.269 15.1571 12.3039 13.6569 13.8042C12.1566 15.3045 10.1217 16.1473 8 16.1473C5.87827 16.1473 3.84344 15.3045 2.34315 13.8042C0.842855 12.3039 0 10.269 0 8.14731ZM8 1.14731C6.68178 1.14738 5.39037 1.51967 4.2744 2.22134C3.15844 2.923 2.26328 3.92552 1.69196 5.1135C1.12065 6.30149 0.896386 7.62665 1.045 8.93647C1.19361 10.2463 1.70905 11.4875 2.532 12.5173C3.242 11.3733 4.805 10.1473 8 10.1473C11.195 10.1473 12.757 11.3723 13.468 12.5173C14.2909 11.4875 14.8064 10.2463 14.955 8.93647C15.1036 7.62665 14.8794 6.30149 14.308 5.1135C13.7367 3.92552 12.8416 2.923 11.7256 2.22134C10.6096 1.51967 9.31822 1.14738 8 1.14731Z" fill="#4A4949"/>
</svg>
