<svg width="25" height="25" viewBox="0 0 25 25" fill="none" xmlns="http://www.w3.org/2000/svg">
<path d="M21.5076 14.7571C21.5076 16.4312 20.1506 17.7886 18.4761 17.7886H11.7982L8.18578 21.508V17.7886H6.52338C4.84929 17.7886 3.49188 16.4316 3.49188 14.7571V6.52344C3.49188 4.84935 4.84894 3.49194 6.52338 3.49194H9.59984" stroke="black" stroke-width="1.2" stroke-linecap="round" stroke-linejoin="round"/>
<path d="M15.7562 15C18.9327 15 21.5078 12.425 21.5078 9.24847C21.5078 6.07199 18.9327 3.49695 15.7562 3.49695C12.5797 3.49695 10.0047 6.07199 10.0047 9.24847C10.0047 12.425 12.5797 15 15.7562 15Z" fill="#008800" stroke="#008800" stroke-width="1.37853" stroke-linecap="round" stroke-linejoin="round"/>
<path d="M15.7564 7.08252V11.4151" stroke="white" stroke-width="1.37853" stroke-linecap="round" stroke-linejoin="round"/>
<path d="M13.5895 9.24854H17.9221" stroke="white" stroke-width="1.37853" stroke-linecap="round" stroke-linejoin="round"/>
</svg>
