<svg width="60" height="59" viewBox="0 0 60 59" fill="none" xmlns="http://www.w3.org/2000/svg">
<g clip-path="url(#clip0_1668_3440)">
<path d="M30.0791 59H30.0703C30.0715 59 30.073 58.9991 30.0742 58.999C30.0758 58.999 30.0775 58.9999 30.0791 59ZM4.57129 36.9824C5.92004 36.463 7.43299 37.1464 7.94336 38.4951C9.30125 42.0674 11.4429 45.1844 14.3135 47.7451C19.0341 51.9644 25.1218 54.0877 31.4463 53.7324C37.7709 53.377 43.5764 50.5793 47.7959 45.8496C48.7879 44.7376 49.6617 43.5495 50.417 42.3027C51.8454 43.3011 53.4559 44.0559 55.1885 44.5098C54.2022 46.2127 53.037 47.8289 51.6963 49.3311C46.5473 55.0995 39.4571 58.5166 31.7383 58.9541C31.1837 58.9905 30.6198 58.999 30.0742 58.999C22.9586 58.9977 16.189 56.4197 10.8408 51.6455C7.38695 48.5561 4.69897 44.6549 3.05859 40.3535C2.5485 39.0049 3.22272 37.4928 4.57129 36.9824ZM5.66504 25.9004C6.09319 25.9187 6.48486 26.0555 6.83105 26.3105C7.17729 26.5657 7.45088 26.939 7.65137 27.4219C7.85186 27.9049 7.93359 28.516 7.90625 29.2451C7.888 29.8555 7.77884 30.4384 7.59668 30.9941C7.41442 31.55 7.17767 31.988 6.9043 32.3252L5.5918 31.6689C5.83779 31.3501 6.04789 30.9676 6.21191 30.5303C6.37595 30.0928 6.46712 29.6363 6.48535 29.1807C6.49444 28.8345 6.47588 28.5517 6.41211 28.333C6.34837 28.1056 6.25694 27.9511 6.13867 27.8418C6.0203 27.7326 5.88358 27.6681 5.71973 27.668C5.51942 27.6589 5.35506 27.732 5.22754 27.8867C5.09999 28.0416 4.99932 28.2426 4.9082 28.5068C4.81711 28.7619 4.73531 29.0536 4.65332 29.3633C4.57131 29.6731 4.47977 29.992 4.36133 30.3018C4.24293 30.6205 4.10658 30.9032 3.93359 31.1582C3.76958 31.4133 3.54155 31.6146 3.27734 31.7695C3.01312 31.9244 2.67557 31.9967 2.26562 31.9785C1.82841 31.9603 1.42723 31.824 1.08105 31.5781C0.734918 31.3321 0.452098 30.9583 0.260742 30.4756C0.0602677 29.9926 -0.0224553 29.3811 0.00488281 28.6611C0.0231402 28.1783 0.105855 27.7137 0.233398 27.249C0.360959 26.7935 0.55219 26.3834 0.789062 26.0371L2.11035 26.6387C1.89174 26.9849 1.72749 27.3312 1.61816 27.6865C1.49974 28.0328 1.43587 28.3793 1.42676 28.7256C1.41766 29.0718 1.44568 29.3546 1.51855 29.5732C1.59137 29.7915 1.68225 29.9555 1.80957 30.0557C1.93708 30.1559 2.07406 30.2109 2.24707 30.2109C2.43841 30.22 2.60289 30.1471 2.73047 29.9922C2.84891 29.8373 2.95803 29.6363 3.04004 29.3721C3.12203 29.117 3.21294 28.8253 3.29492 28.5156C3.38604 28.2058 3.47757 27.8961 3.58691 27.5771C3.69622 27.2583 3.83283 26.9758 4.00586 26.7207C4.16987 26.4656 4.39788 26.2643 4.66211 26.1094C4.92634 25.9545 5.26417 25.8822 5.66504 25.9004ZM5.50977 16.9961C5.13627 17.1237 4.81695 17.3061 4.55273 17.543C4.28862 17.7798 4.08816 18.0807 3.94238 18.4268C3.8057 18.7548 3.73275 19.0834 3.72363 19.4023C3.71452 19.7213 3.76925 20.031 3.8877 20.3135C4.00615 20.596 4.17944 20.8513 4.40723 21.0791C4.63491 21.3067 4.91703 21.4893 5.25391 21.626C5.58181 21.7717 5.91946 21.8446 6.23828 21.8447C6.55719 21.8447 6.86792 21.7903 7.15039 21.6719C7.44171 21.5626 7.69648 21.3799 7.91504 21.1523C8.13375 20.9245 8.31643 20.6415 8.45312 20.3135C8.59886 19.9582 8.67149 19.6121 8.65332 19.2568C8.64421 18.9014 8.54457 18.5361 8.3623 18.1807L8.37988 18.1992L9.78418 17.5527C10.0573 18.0628 10.194 18.6095 10.2031 19.1924C10.2122 19.7756 10.0843 20.3774 9.8291 20.9971C9.60127 21.5347 9.30039 22.0085 8.92676 22.4004C8.55314 22.7922 8.13401 23.0935 7.66016 23.2939C7.18646 23.5034 6.69434 23.6123 6.16602 23.6123C5.63755 23.6214 5.10854 23.5126 4.58008 23.2939C4.04254 23.0662 3.59592 22.7742 3.23145 22.3916C2.86702 22.0089 2.59339 21.5805 2.41113 21.0977C2.22888 20.6147 2.13803 20.1041 2.15625 19.5664C2.16536 19.0288 2.29278 18.4913 2.52051 17.9355C2.77566 17.325 3.11305 16.8144 3.53223 16.4043C3.94228 15.9942 4.43471 15.7119 4.98145 15.5479L5.50977 16.9961ZM37.8164 4.73926C38.3723 3.40875 39.9039 2.77037 41.2344 3.32617C44.2053 4.56557 46.9486 6.2881 49.3818 8.45703C51.6941 10.521 53.6272 12.8978 55.1436 15.501C53.4123 15.9602 51.8036 16.7205 50.3779 17.7236C49.1749 15.7528 47.6731 13.9487 45.9004 12.3672C43.9046 10.5901 41.6627 9.17693 39.2295 8.15625C37.8992 7.60036 37.2609 6.06963 37.8164 4.73926ZM11.8164 7.3457C12.3358 7.32748 12.8374 7.41804 13.3203 7.60938C13.8124 7.79163 14.2501 8.09287 14.6602 8.50293V8.52051C15.052 8.93059 15.3526 9.37802 15.5439 9.87012C15.7352 10.3621 15.8268 10.8726 15.8086 11.3828C15.7903 11.8931 15.6718 12.4035 15.4531 12.8955C15.2344 13.3967 14.9146 13.8523 14.4863 14.2715C14.049 14.6997 13.5841 15.0284 13.083 15.2471C12.5821 15.4656 12.0718 15.5927 11.5527 15.5928C11.0333 15.611 10.5311 15.5107 10.0391 15.3193C9.55635 15.128 9.10066 14.8366 8.70898 14.4268C8.31722 14.0168 8.01657 13.5698 7.8252 13.0869C7.63387 12.5949 7.54237 12.0935 7.56055 11.5742C7.57877 11.0549 7.69705 10.5441 7.9248 10.043C8.15262 9.54177 8.48122 9.07642 8.90039 8.65723C9.32861 8.22908 9.80296 7.91008 10.2949 7.69141C10.7868 7.47283 11.2972 7.35486 11.8164 7.3457ZM11.6611 8.98535C11.3515 8.98544 11.06 9.04959 10.7686 9.16797C10.477 9.29553 10.2128 9.47799 9.9668 9.71484C9.72078 9.96088 9.53838 10.2253 9.41992 10.5078C9.30153 10.7902 9.23736 11.0907 9.2373 11.4004C9.22819 11.7102 9.29235 12.0209 9.41992 12.3125C9.54749 12.6039 9.73913 12.8866 9.99414 13.1416C10.2401 13.3966 10.5139 13.5883 10.8145 13.7158C11.115 13.8433 11.4159 13.916 11.7256 13.916C12.0352 13.9251 12.3268 13.8615 12.6182 13.7432C12.9098 13.6156 13.1749 13.4332 13.4209 13.1963C13.6669 12.9503 13.8493 12.6858 13.9678 12.4033L13.9766 12.3945C14.095 12.112 14.1582 11.8108 14.1582 11.501C14.1582 11.1912 14.0953 10.8814 13.9678 10.5898C13.8403 10.2984 13.6485 10.0158 13.3936 9.76074C13.1384 9.50561 12.8642 9.3141 12.5635 9.18652C12.272 9.05903 11.9709 8.98535 11.6611 8.98535ZM21.002 1.75C21.5487 1.76822 22.0229 1.93238 22.4238 2.21484C22.8247 2.49729 23.1351 2.90685 23.3447 3.44434C23.5543 3.97291 23.609 4.475 23.5088 4.95801C23.4085 5.44088 23.1708 5.87807 22.7881 6.26074L22.7979 6.26953C22.7979 6.27864 22.7881 6.2793 22.7881 6.2793L25.2852 7.92871L23.5088 8.63965L21.3486 7.19043C21.3213 7.1996 21.2754 7.22656 21.2754 7.22656L19.8447 7.79199L20.6289 9.77832L18.9795 10.4346L16.1543 3.31738L19.2344 2.0957C19.872 1.84065 20.4553 1.72277 21.002 1.75ZM32.7227 1.42188L28.7031 1.47656L28.7217 3.14453L32.2754 3.08984L32.3027 4.46582L28.749 4.52051L28.7676 6.28809L32.9414 6.2334L32.959 7.65527L27.0361 7.7373L26.917 0.0908203L32.7041 0L32.7227 1.42188ZM20.9297 3.33496C20.5926 3.21659 20.1732 3.26257 19.6631 3.46289L18.3232 4.00098L19.3027 6.46777L20.6377 5.94141C21.1479 5.74094 21.4854 5.4771 21.6494 5.1582C21.8135 4.83923 21.8229 4.48335 21.668 4.10059C21.513 3.70889 21.2668 3.45342 20.9297 3.33496Z" fill="#787D82"/>
</g>
<defs>
<clipPath id="clip0_1668_3440">
<rect width="59.05" height="59" fill="white"/>
</clipPath>
</defs>
</svg>
