<svg width="27" height="27" viewBox="0 0 27 27" fill="none" xmlns="http://www.w3.org/2000/svg">
<path d="M13.7456 25.2014C10.7288 25.2014 7.83549 24.003 5.70227 21.8697C3.56904 19.7365 2.37061 16.8432 2.37061 13.8264C2.37061 10.8096 3.56904 7.91629 5.70227 5.78306C7.83549 3.64983 10.7288 2.4514 13.7456 2.4514C16.7624 2.4514 19.6557 3.64983 21.7889 5.78306C23.9222 7.91629 25.1206 10.8096 25.1206 13.8264C25.1206 16.8432 23.9222 19.7365 21.7889 21.8697C19.6557 24.003 16.7624 25.2014 13.7456 25.2014ZM13.7456 26.8264C17.1934 26.8264 20.5 25.4568 22.938 23.0188C25.376 20.5808 26.7456 17.2742 26.7456 13.8264C26.7456 10.3786 25.376 7.07199 22.938 4.63401C20.5 2.19604 17.1934 0.826401 13.7456 0.826401C10.2978 0.826401 6.99119 2.19604 4.55322 4.63401C2.11524 7.07199 0.745605 10.3786 0.745605 13.8264C0.745605 17.2742 2.11524 20.5808 4.55322 23.0188C6.99119 25.4568 10.2978 26.8264 13.7456 26.8264Z" fill="white"/>
<path d="M8.29536 8.37615C8.37083 8.30049 8.46049 8.24045 8.5592 8.19949C8.65791 8.15853 8.76373 8.13745 8.87061 8.13745C8.97748 8.13745 9.0833 8.15853 9.18201 8.19949C9.28072 8.24045 9.37038 8.30049 9.44586 8.37615L13.7456 12.6775L18.0454 8.37615C18.1209 8.30061 18.2106 8.24068 18.3093 8.1998C18.408 8.15892 18.5138 8.13787 18.6206 8.13787C18.7274 8.13787 18.8332 8.15892 18.9319 8.1998C19.0306 8.24068 19.1203 8.30061 19.1959 8.37615C19.2714 8.45169 19.3313 8.54138 19.3722 8.64008C19.4131 8.73878 19.4341 8.84457 19.4341 8.9514C19.4341 9.05823 19.4131 9.16402 19.3722 9.26272C19.3313 9.36143 19.2714 9.45111 19.1959 9.52665L14.8945 13.8264L19.1959 18.1262C19.2714 18.2017 19.3313 18.2914 19.3722 18.3901C19.4131 18.4888 19.4341 18.5946 19.4341 18.7014C19.4341 18.8082 19.4131 18.914 19.3722 19.0127C19.3313 19.1114 19.2714 19.2011 19.1959 19.2767C19.1203 19.3522 19.0306 19.4121 18.9319 19.453C18.8332 19.4939 18.7274 19.5149 18.6206 19.5149C18.5138 19.5149 18.408 19.4939 18.3093 19.453C18.2106 19.4121 18.1209 19.3522 18.0454 19.2767L13.7456 14.9753L9.44586 19.2767C9.37031 19.3522 9.28063 19.4121 9.18193 19.453C9.08323 19.4939 8.97744 19.5149 8.87061 19.5149C8.76377 19.5149 8.65798 19.4939 8.55928 19.453C8.46058 19.4121 8.3709 19.3522 8.29536 19.2767C8.21981 19.2011 8.15989 19.1114 8.119 19.0127C8.07812 18.914 8.05708 18.8082 8.05708 18.7014C8.05708 18.5946 8.07812 18.4888 8.119 18.3901C8.15989 18.2914 8.21981 18.2017 8.29536 18.1262L12.5967 13.8264L8.29536 9.52665C8.21969 9.45118 8.15966 9.36152 8.1187 9.26281C8.07774 9.16409 8.05665 9.05827 8.05665 8.9514C8.05665 8.84453 8.07774 8.73871 8.1187 8.64C8.15966 8.54129 8.21969 8.45162 8.29536 8.37615Z" fill="white"/>
</svg>
